<svg width="34" height="34" viewBox="0 0 34 34" fill="none" xmlns="http://www.w3.org/2000/svg">
<g filter="url(#filter0_d_4305_217551)">
<rect x="4" y="2" width="26" height="26" rx="2" fill="url(#paint0_radial_4305_217551)" fill-opacity="0.5"/>
<path fill-rule="evenodd" clip-rule="evenodd" d="M17.9016 6.12373L25.8595 11.8481C26.122 12.0296 25.9908 12.442 25.679 12.442H24.071V22.6701C24.071 22.8515 23.9234 23 23.7429 23H11.2727C11.0922 23 10.9446 22.8515 10.9446 22.6701V12.442H9.33656C9.00839 12.442 8.87713 12.0296 9.13966 11.8481L17.1468 6.12373C17.3601 5.95876 17.6719 5.95876 17.9016 6.12373ZM19.9716 16.2377V17.2802H21.0072V17.7519C20.8044 17.8726 20.6244 17.9581 20.4672 18.0082C20.31 18.0583 20.1448 18.0834 19.9716 18.0834C19.607 18.0834 19.3222 17.9672 19.1171 17.7348C18.9143 17.5024 18.8129 17.115 18.8129 16.5727C18.8129 16.0622 18.9132 15.6897 19.1137 15.455C19.3165 15.218 19.5876 15.0995 19.9272 15.0995C20.155 15.0995 20.3419 15.1497 20.4877 15.2499C20.6358 15.3502 20.7406 15.4949 20.8022 15.684L22.2958 15.4174C22.2047 15.0938 22.0679 14.8272 21.8857 14.6176C21.7056 14.4057 21.4778 14.2496 21.2021 14.1493C20.9286 14.0491 20.515 13.9989 19.9613 13.9989C19.3871 13.9989 18.9303 14.0798 18.5907 14.2416C18.1555 14.4512 17.8251 14.7589 17.5995 15.1645C17.3739 15.5678 17.2611 16.0429 17.2611 16.5898C17.2611 17.1093 17.3637 17.5696 17.5688 17.9706C17.7761 18.3717 18.0666 18.6736 18.4403 18.8764C18.8163 19.0792 19.3017 19.1806 19.8964 19.1806C20.3795 19.1806 20.7965 19.1247 21.1474 19.0131C21.5006 18.8992 21.9062 18.6861 22.3642 18.3739V16.2377H19.9716ZM16.4272 14.0844H13.122L12.6811 16.7777L13.8671 16.9486C13.9788 16.8233 14.0813 16.7367 14.1747 16.6889C14.3 16.6228 14.4299 16.5898 14.5644 16.5898C14.7763 16.5898 14.946 16.6593 15.0736 16.7983C15.2012 16.9372 15.265 17.156 15.265 17.4545C15.265 17.7462 15.2012 17.9661 15.0736 18.1142C14.9483 18.26 14.7888 18.3329 14.5951 18.3329C14.4219 18.3329 14.2727 18.2748 14.1474 18.1586C14.022 18.0401 13.9423 17.8681 13.9081 17.6425L12.4999 17.7963C12.5683 18.031 12.6537 18.227 12.7563 18.3842C12.8588 18.5414 12.9921 18.6827 13.1562 18.808C13.3225 18.9311 13.523 19.0245 13.7577 19.0883C13.9947 19.1498 14.2784 19.1806 14.6088 19.1806C15.0691 19.1806 15.4462 19.102 15.7401 18.9447C16.0364 18.7875 16.2642 18.5596 16.4237 18.2611C16.5855 17.9626 16.6664 17.6516 16.6664 17.328C16.6664 16.8678 16.5103 16.4861 16.1982 16.183C15.886 15.88 15.4792 15.7284 14.9779 15.7284C14.8298 15.7284 14.6794 15.7467 14.5268 15.7831C14.3764 15.8196 14.2237 15.8743 14.0688 15.9472L14.1884 15.1952H16.4272V14.0844Z" fill="white"/>
</g>
<defs>
<filter id="filter0_d_4305_217551" x="0" y="0" width="34" height="34" filterUnits="userSpaceOnUse" color-interpolation-filters="sRGB">
<feFlood flood-opacity="0" result="BackgroundImageFix"/>
<feColorMatrix in="SourceAlpha" type="matrix" values="0 0 0 0 0 0 0 0 0 0 0 0 0 0 0 0 0 0 127 0" result="hardAlpha"/>
<feOffset dy="2"/>
<feGaussianBlur stdDeviation="2"/>
<feComposite in2="hardAlpha" operator="out"/>
<feColorMatrix type="matrix" values="0 0 0 0 0 0 0 0 0 0 0 0 0 0 0 0 0 0 0.1 0"/>
<feBlend mode="normal" in2="BackgroundImageFix" result="effect1_dropShadow_4305_217551"/>
<feBlend mode="normal" in="SourceGraphic" in2="effect1_dropShadow_4305_217551" result="shape"/>
</filter>
<radialGradient id="paint0_radial_4305_217551" cx="0" cy="0" r="1" gradientUnits="userSpaceOnUse" gradientTransform="translate(17 13.7812) rotate(134.304) scale(15.905)">
<stop stop-color="#0E7FA2"/>
<stop offset="0.223958" stop-color="#1486B4" stop-opacity="0"/>
<stop offset="0.465383" stop-color="#1689B9" stop-opacity="0"/>
<stop offset="1" stop-color="#1D92CD"/>
</radialGradient>
</defs>
</svg>
