<svg width="30" height="30" viewBox="0 0 30 30" fill="none" xmlns="http://www.w3.org/2000/svg">
<path d="M15 14.8407C14.7669 14.8414 14.5353 14.8018 14.3157 14.7235L5.40942 11.5735C5.06594 11.477 4.76341 11.2709 4.54793 10.9866C4.33245 10.7022 4.21582 10.3553 4.21582 9.99849C4.21582 9.64172 4.33245 9.29473 4.54793 9.0104C4.76341 8.72606 5.06594 8.51995 5.40942 8.42349L14.3157 5.27349C14.7588 5.1188 15.2413 5.1188 15.6844 5.27349L24.5907 8.42349C24.9341 8.51995 25.2367 8.72606 25.4521 9.0104C25.6676 9.29473 25.7843 9.64172 25.7843 9.99849C25.7843 10.3553 25.6676 10.7022 25.4521 10.9866C25.2367 11.2709 24.9341 11.477 24.5907 11.5735L15.6844 14.7235C15.4648 14.8018 15.2332 14.8414 15 14.8407Z" fill="#0AA7FF"/>
<path d="M24.5906 13.425L23.1844 12.9328L20.55 13.8703L23.7797 15L15 18.0984L6.2203 15L9.43593 13.8656L6.79687 12.9281L5.39062 13.4203C5.04714 13.5168 4.74461 13.7229 4.52913 14.0072C4.31365 14.2915 4.19702 14.6385 4.19702 14.9953C4.19702 15.3521 4.31365 15.699 4.52913 15.9834C4.74461 16.2677 5.04714 16.4738 5.39062 16.5703L14.2969 19.7203C14.7397 19.8765 15.2227 19.8765 15.6656 19.7203L24.5719 16.5703C24.9153 16.4738 25.2179 16.2677 25.4333 15.9834C25.6488 15.699 25.7655 15.3521 25.7655 14.9953C25.7655 14.6385 25.6488 14.2915 25.4333 14.0072C25.2179 13.7229 24.9153 13.5168 24.5719 13.4203L24.5906 13.425Z" fill="#0AA7FF"/>
<path d="M24.5907 18.4266L23.1845 17.9344L20.5501 18.8719L23.761 20.0062L15.0001 23.1L6.23446 20.0016L9.45009 18.8672L6.81103 17.9297L5.40478 18.4219C5.0613 18.5183 4.75877 18.7244 4.54329 19.0088C4.32781 19.2931 4.21118 19.6401 4.21118 19.9969C4.21118 20.3536 4.32781 20.7006 4.54329 20.985C4.75877 21.2693 5.0613 21.4754 5.40478 21.5719L14.311 24.7219C14.7539 24.8781 15.2369 24.8781 15.6798 24.7219L24.586 21.5719C24.9295 21.4754 25.232 21.2693 25.4475 20.985C25.663 20.7006 25.7796 20.3536 25.7796 19.9969C25.7796 19.6401 25.663 19.2931 25.4475 19.0088C25.232 18.7244 24.9295 18.5183 24.586 18.4219L24.5907 18.4266Z" fill="#0AA7FF"/>
</svg>
