<svg width="51" height="50" viewBox="0 0 51 50" fill="none" xmlns="http://www.w3.org/2000/svg">
<g filter="url(#filter0_d_4305_197978)">
<path d="M18.723 12.675V6.35L13.248 3.2L7.77305 6.35V12.675L13.248 15.825L18.723 12.675ZM45.523 0L40.073 3.15V9.475L41.023 10.025L31.448 17.3L25.998 14.15L16.573 19.6V30.475L19.423 32.125L12.748 37.175L7.77305 34.325L0.998047 38.25V46.075L7.77305 50L14.573 46.075V38.925L21.773 33.475L25.998 35.925L29.998 33.625L33.623 36.65L33.023 37V43.3L38.473 46.475L43.948 43.3V37L38.473 33.85L35.923 35.325L32.298 32.275L35.423 30.475V19.6L33.798 18.65L43.373 11.375L45.523 12.625L50.998 9.475V3.15L45.523 0Z" fill="url(#paint0_linear_4305_197978)"/>
</g>
<defs>
<filter id="filter0_d_4305_197978" x="-3.00195" y="0" width="58" height="58" filterUnits="userSpaceOnUse" color-interpolation-filters="sRGB">
<feFlood flood-opacity="0" result="BackgroundImageFix"/>
<feColorMatrix in="SourceAlpha" type="matrix" values="0 0 0 0 0 0 0 0 0 0 0 0 0 0 0 0 0 0 127 0" result="hardAlpha"/>
<feOffset dy="4"/>
<feGaussianBlur stdDeviation="2"/>
<feComposite in2="hardAlpha" operator="out"/>
<feColorMatrix type="matrix" values="0 0 0 0 0 0 0 0 0 0 0 0 0 0 0 0 0 0 0.25 0"/>
<feBlend mode="normal" in2="BackgroundImageFix" result="effect1_dropShadow_4305_197978"/>
<feBlend mode="normal" in="SourceGraphic" in2="effect1_dropShadow_4305_197978" result="shape"/>
</filter>
<linearGradient id="paint0_linear_4305_197978" x1="18.9147" y1="50" x2="-0.726626" y2="23.1986" gradientUnits="userSpaceOnUse">
<stop stop-color="#12E334"/>
<stop offset="1" stop-color="#BEFFEF"/>
</linearGradient>
</defs>
</svg>
