<svg width="38" height="36" viewBox="0 0 38 36" fill="none" xmlns="http://www.w3.org/2000/svg">
<rect x="1" width="36" height="36" rx="2" fill="#4BDEFF" fill-opacity="0.1"/>
<rect x="1.5" y="0.5" width="35" height="35" rx="1.5" stroke="#4BDEFF" stroke-opacity="0.5"/>
<path opacity="0.1" d="M1 18.2812L37 18" stroke="#4BDEFF" stroke-dasharray="2 2"/>
<path opacity="0.1" d="M18.7188 0V36" stroke="#4BDEFF" stroke-dasharray="2 2"/>
<circle cx="19" cy="18" r="11.25" stroke="url(#paint0_angular_1721_33730)" stroke-dasharray="2 2"/>
<rect opacity="0.2" x="5.5" y="4.5" width="27" height="27" rx="2" fill="#4BDEFF" fill-opacity="0.2" stroke="#4BDEFF"/>
<path d="M25.75 5H30.5V4H25.75V5ZM32 6.5V11.25H33V6.5H32ZM30.5 5C31.3284 5 32 5.67157 32 6.5H33C33 5.11929 31.8807 4 30.5 4V5ZM32 24.75V29.5H33V24.75H32ZM30.5 31H25.75V32H30.5V31ZM32 29.5C32 30.3284 31.3284 31 30.5 31V32C31.8807 32 33 30.8807 33 29.5H32ZM12.25 31H7.5V32H12.25V31ZM6 29.5V24.75H5V29.5H6ZM7.5 31C6.67157 31 6 30.3284 6 29.5H5C5 30.8807 6.11929 32 7.5 32V31ZM6 11.25V6.5H5V11.25H6ZM7.5 5H12.25V4H7.5V5ZM6 6.5C6 5.67157 6.67157 5 7.5 5V4C6.11929 4 5 5.11929 5 6.5H6Z" fill="#4BDEFF"/>
<g filter="url(#filter0_d_1721_33730)">
<path d="M26.875 18.5622C26.875 23.2129 23.086 27 18.433 27C13.78 27 10 23.2039 10 18.5622C10 13.9205 13.789 10.1244 18.442 10.1244V18.5622H26.875Z" fill="#4BDEFF"/>
<path d="M28 17.4378H19.558V9C24.211 9 28 12.7871 28 17.4378Z" fill="#4BDEFF"/>
</g>
<defs>
<filter id="filter0_d_1721_33730" x="6" y="7" width="26" height="26" filterUnits="userSpaceOnUse" color-interpolation-filters="sRGB">
<feFlood flood-opacity="0" result="BackgroundImageFix"/>
<feColorMatrix in="SourceAlpha" type="matrix" values="0 0 0 0 0 0 0 0 0 0 0 0 0 0 0 0 0 0 127 0" result="hardAlpha"/>
<feOffset dy="2"/>
<feGaussianBlur stdDeviation="2"/>
<feColorMatrix type="matrix" values="0 0 0 0 0.105882 0 0 0 0 0.2 0 0 0 0 0.341176 0 0 0 0.5 0"/>
<feBlend mode="normal" in2="BackgroundImageFix" result="effect1_dropShadow_1721_33730"/>
<feBlend mode="normal" in="SourceGraphic" in2="effect1_dropShadow_1721_33730" result="shape"/>
</filter>
<radialGradient id="paint0_angular_1721_33730" cx="0" cy="0" r="1" gradientUnits="userSpaceOnUse" gradientTransform="translate(19 18) scale(11.25)">
<stop offset="0.116068" stop-color="#4B94FF" stop-opacity="0.2"/>
<stop offset="0.25" stop-color="#4B94FF" stop-opacity="0.01"/>
<stop offset="0.588446" stop-color="#4B94FF" stop-opacity="0.2"/>
<stop offset="0.745114" stop-color="#4B94FF" stop-opacity="0.01"/>
</radialGradient>
</defs>
</svg>
