<svg width="24" height="27" viewBox="0 0 24 27" fill="none" xmlns="http://www.w3.org/2000/svg">
<path fill-rule="evenodd" clip-rule="evenodd" d="M2.59918 6.02197C2.23519 6.18121 2 6.54083 2 6.93813V19.4818C2 19.8266 2.17762 20.1471 2.47 20.3298L11.1534 25.757C11.6723 26.0812 12.3306 26.0812 12.8494 25.757L21.5329 20.3298C21.8252 20.1471 22.0029 19.8266 22.0029 19.4818V6.93813C22.0029 6.54083 21.7677 6.18121 21.4037 6.02197L12.4023 2.08384C12.1467 1.97205 11.8561 1.97205 11.6006 2.08384L2.59918 6.02197ZM12.001 21.9114C16.4889 21.9114 20.1272 18.2732 20.1272 13.7852C20.1272 9.29725 16.4889 5.65904 12.001 5.65904C7.51303 5.65904 3.87482 9.29725 3.87482 13.7852C3.87482 18.2732 7.51303 21.9114 12.001 21.9114Z" fill="url(#paint0_linear_1271_33672)"/>
<g filter="url(#filter0_d_1271_33672)">
<path d="M10.5 9.1V8.55C10.5 8.47777 10.5129 8.40625 10.5381 8.33952C10.5632 8.27279 10.6 8.21216 10.6464 8.16109C10.6929 8.11002 10.748 8.06951 10.8087 8.04187C10.8693 8.01423 10.9343 8 11 8H13C13.1326 8 13.2598 8.05795 13.3536 8.16109C13.4473 8.26424 13.5 8.40413 13.5 8.55V9.1H15C15.1326 9.1 15.2598 9.15795 15.3536 9.26109C15.4473 9.36424 15.5 9.50413 15.5 9.65V18.45C15.5 18.5959 15.4473 18.7358 15.3536 18.8389C15.2598 18.9421 15.1326 19 15 19H9C8.86739 19 8.74021 18.9421 8.64645 18.8389C8.55268 18.7358 8.5 18.5959 8.5 18.45V9.65C8.5 9.50413 8.55268 9.36424 8.64645 9.26109C8.74021 9.15795 8.86739 9.1 9 9.1H10.5ZM12.5 13.5V10.75L10 14.6H11.5V17.35L14 13.5H12.5Z" fill="#B4E4FF"/>
</g>
<defs>
<filter id="filter0_d_1271_33672" x="0.5" y="0" width="23" height="27" filterUnits="userSpaceOnUse" color-interpolation-filters="sRGB">
<feFlood flood-opacity="0" result="BackgroundImageFix"/>
<feColorMatrix in="SourceAlpha" type="matrix" values="0 0 0 0 0 0 0 0 0 0 0 0 0 0 0 0 0 0 127 0" result="hardAlpha"/>
<feOffset/>
<feGaussianBlur stdDeviation="4"/>
<feComposite in2="hardAlpha" operator="out"/>
<feColorMatrix type="matrix" values="0 0 0 0 0.0375 0 0 0 0 0.6535 0 0 0 0 1 0 0 0 1 0"/>
<feBlend mode="normal" in2="BackgroundImageFix" result="effect1_dropShadow_1271_33672"/>
<feBlend mode="normal" in="SourceGraphic" in2="effect1_dropShadow_1271_33672" result="shape"/>
</filter>
<linearGradient id="paint0_linear_1271_33672" x1="12.0014" y1="2" x2="12.0014" y2="26.0002" gradientUnits="userSpaceOnUse">
<stop stop-color="#DEF0FF"/>
<stop offset="1" stop-color="#8EA7BC"/>
</linearGradient>
</defs>
</svg>
