<svg width="48" height="48" viewBox="0 0 48 48" fill="none" xmlns="http://www.w3.org/2000/svg">
<rect width="48" height="48" rx="4" fill="url(#paint0_radial_4439_206049)" fill-opacity="0.5"/>
<path d="M10.2168 22.9082H16.021V27.2613H10.2168V22.9082ZM17.472 22.9082H23.2762V27.2613H17.472V22.9082ZM24.7273 22.9082H30.5315V27.2613H24.7273V22.9082ZM31.9825 22.9082H37.7867V27.2613H31.9825V22.9082ZM10.2168 28.7124H16.021V33.0655H10.2168V28.7124ZM17.472 28.7124H23.2762V33.0655H17.472V28.7124ZM24.7273 28.7124H30.5315V33.0655H24.7273V28.7124ZM31.9825 28.7124H37.7867V33.0655H31.9825V28.7124ZM10.2168 34.5166H16.021V38.8697H10.2168V34.5166ZM17.472 34.5166H23.2762V38.8697H17.472V34.5166ZM24.7273 34.5166H30.5315V38.8697H24.7273V34.5166ZM31.9825 34.5166H37.7867V38.8697H31.9825V34.5166Z" fill="white"/>
<path fill-rule="evenodd" clip-rule="evenodd" d="M25.943 8.45312C28.6307 8.45236 30.8829 10.4857 31.156 13.1594C33.8363 13.2569 35.9998 15.4802 35.9998 18.1844C35.9998 19.4576 35.5547 20.6415 34.7993 21.5458H33.1555C33.3482 20.965 33.4412 20.3351 33.4412 19.6927C33.4412 16.9882 31.2777 14.7653 28.5959 14.6677C28.3293 12.024 26.0976 9.90164 23.3841 9.90164C22.9461 9.90164 22.6105 9.92586 22.204 10.0269C23.1602 9.00341 24.4306 8.45312 25.943 8.45312ZM32.3087 21.5458C32.403 21.1628 32.4536 20.7626 32.4548 20.3508C32.4548 17.6469 30.2914 15.4239 27.6095 15.3264C27.3385 12.6524 25.0876 10.6173 22.3999 10.6163C19.7121 10.6153 17.4597 12.6487 17.1866 15.3226H17.0249C16.6374 15.3225 16.2512 15.3675 15.8741 15.4566C13.6583 15.9801 11.9961 17.981 11.9961 20.3508C11.9961 20.7622 12.0462 21.1624 12.1405 21.5458H32.3087Z" fill="#9FDAFF"/>
<defs>
<radialGradient id="paint0_radial_4439_206049" cx="0" cy="0" r="1" gradientUnits="userSpaceOnUse" gradientTransform="translate(24 21.75) rotate(134.304) scale(29.3632)">
<stop stop-color="#0E7FA2"/>
<stop offset="0.223958" stop-color="#1486B4" stop-opacity="0"/>
<stop offset="0.465383" stop-color="#1689B9" stop-opacity="0"/>
<stop offset="1" stop-color="#1D92CD"/>
</radialGradient>
</defs>
</svg>
