<svg width="40" height="40" viewBox="0 0 40 40" fill="none" xmlns="http://www.w3.org/2000/svg">
<g clip-path="url(#clip0_4211_198711)">
<g filter="url(#filter0_d_4211_198711)">
<path d="M33.4973 11.5684C33.4973 12.4684 33.0123 13.2859 32.2473 13.7009L29.3473 15.2684L26.8798 16.5834L21.7623 19.3509C21.2123 19.6509 20.6123 19.8009 19.9948 19.8009C19.3798 19.8009 18.7798 19.6509 18.2298 19.3509L7.74732 13.7009C7.36654 13.4906 7.04948 13.1816 6.82951 12.8063C6.60954 12.431 6.49478 12.0034 6.49732 11.5684C6.49732 10.6684 6.97982 9.85094 7.74732 9.43594L11.0298 7.66844L13.6448 6.25094L18.2298 3.78594C19.3298 3.18594 20.6623 3.18594 21.7623 3.78594L32.2473 9.43594C33.0123 9.85094 33.4973 10.6684 33.4973 11.5684ZM16.4973 21.3184L6.74982 16.4509C6.38526 16.2656 5.97905 16.1774 5.57045 16.1949C5.16185 16.2124 4.76467 16.3351 4.41732 16.5509C4.06787 16.7626 3.77949 17.0614 3.5805 17.4182C3.3815 17.775 3.27874 18.1774 3.28232 18.5859V27.8009C3.28232 29.4009 4.16732 30.8359 5.59982 31.5509L15.3498 36.4184C15.6823 36.5834 16.0498 36.6684 16.4173 36.6684C16.8609 36.6704 17.2954 36.5427 17.6673 36.3009C18.0159 36.0892 18.3036 35.7906 18.5021 35.4343C18.7006 35.078 18.8032 34.6763 18.7998 34.2684V25.0509C18.8078 24.2751 18.5961 23.5129 18.1891 22.8524C17.7821 22.1919 17.1964 21.6601 16.4998 21.3184H16.4973ZM36.7173 18.5859V27.8009C36.7173 29.3859 35.8323 30.8184 34.3998 31.5359L24.6498 36.4184C24.2836 36.6005 23.8767 36.6853 23.4682 36.6647C23.0597 36.6441 22.6634 36.5189 22.3173 36.3009C21.9707 36.0868 21.6846 35.7877 21.4859 35.432C21.2873 35.0764 21.1828 34.6758 21.1823 34.2684V25.0684C21.1823 23.4684 22.0648 22.0359 23.4998 21.3184L27.0823 19.5359L29.5823 18.2859L33.2498 16.4509C33.9998 16.0684 34.8648 16.1009 35.5823 16.5509C36.2823 16.9834 36.7173 17.7509 36.7173 18.5859Z" fill="url(#paint0_linear_4211_198711)"/>
</g>
</g>
<defs>
<filter id="filter0_d_4211_198711" x="-0.717773" y="3.33594" width="41.4355" height="41.332" filterUnits="userSpaceOnUse" color-interpolation-filters="sRGB">
<feFlood flood-opacity="0" result="BackgroundImageFix"/>
<feColorMatrix in="SourceAlpha" type="matrix" values="0 0 0 0 0 0 0 0 0 0 0 0 0 0 0 0 0 0 127 0" result="hardAlpha"/>
<feOffset dy="4"/>
<feGaussianBlur stdDeviation="2"/>
<feComposite in2="hardAlpha" operator="out"/>
<feColorMatrix type="matrix" values="0 0 0 0 0 0 0 0 0 0 0 0 0 0 0 0 0 0 0.25 0"/>
<feBlend mode="normal" in2="BackgroundImageFix" result="effect1_dropShadow_4211_198711"/>
<feBlend mode="normal" in="SourceGraphic" in2="effect1_dropShadow_4211_198711" result="shape"/>
</filter>
<linearGradient id="paint0_linear_4211_198711" x1="15.2631" y1="36.6685" x2="2.18139" y2="18.763" gradientUnits="userSpaceOnUse">
<stop stop-color="#06C3FF"/>
<stop offset="1" stop-color="#97E6FF"/>
</linearGradient>
<clipPath id="clip0_4211_198711">
<rect width="40" height="40" fill="white"/>
</clipPath>
</defs>
</svg>
