<svg width="26" height="27" viewBox="0 0 26 27" fill="none" xmlns="http://www.w3.org/2000/svg">
<path fill-rule="evenodd" clip-rule="evenodd" d="M3.59918 6.02197C3.23519 6.18121 3 6.54083 3 6.93813V19.4818C3 19.8266 3.17762 20.1471 3.47 20.3298L12.1534 25.757C12.6723 26.0812 13.3306 26.0812 13.8494 25.757L22.5329 20.3298C22.8252 20.1471 23.0029 19.8266 23.0029 19.4818V6.93813C23.0029 6.54083 22.7677 6.18121 22.4037 6.02197L13.4023 2.08384C13.1467 1.97205 12.8561 1.97205 12.6006 2.08384L3.59918 6.02197ZM13.001 21.9114C17.4889 21.9114 21.1272 18.2732 21.1272 13.7852C21.1272 9.29725 17.4889 5.65904 13.001 5.65904C8.51303 5.65904 4.87482 9.29725 4.87482 13.7852C4.87482 18.2732 8.51303 21.9114 13.001 21.9114Z" fill="url(#paint0_linear_1271_33650)"/>
<g filter="url(#filter0_d_1271_33650)">
<path d="M15.62 9.94869L16.5878 9.73969C16.7878 9.69654 16.9911 9.79321 17.0931 9.97958L17.9363 11.5204C18.0383 11.7068 18.0159 11.9412 17.8805 12.1022L17.2255 12.8817C17.279 13.292 17.279 13.708 17.2255 14.1183L17.8805 14.8978C18.0159 15.0588 18.0385 15.2932 17.9365 15.4796L17.0931 17.0204C17.0433 17.1114 16.9677 17.1834 16.877 17.2265C16.7863 17.2695 16.6851 17.2814 16.5878 17.2603L15.6198 17.0513C15.31 17.3062 14.9684 17.5146 14.6048 17.6707L14.2928 18.6582C14.2612 18.7578 14.2008 18.8444 14.1201 18.9057C14.0394 18.9671 13.9425 19.0001 13.8432 19H12.1568C12.0574 19.0001 11.9606 18.9671 11.8799 18.9057C11.7992 18.8444 11.7388 18.7578 11.7072 18.6582L11.3952 17.6707C11.0315 17.5146 10.6898 17.3062 10.38 17.0513L9.41221 17.2603C9.31483 17.2814 9.21366 17.2695 9.12297 17.2265C9.03229 17.1834 8.95668 17.1114 8.90682 17.0204L8.06362 15.4796C8.01389 15.3887 7.99251 15.2836 8.00253 15.1792C8.01255 15.0747 8.05345 14.9763 8.11942 14.8978L8.77442 14.1183C8.72095 13.708 8.72095 13.292 8.77442 12.8817L8.11942 12.1022C8.05342 12.0237 8.01248 11.9253 8.00243 11.8209C7.99237 11.7164 8.01372 11.6113 8.06342 11.5204L8.90682 9.97958C8.95667 9.88867 9.03225 9.81662 9.12289 9.77358C9.21353 9.73054 9.31466 9.71868 9.41201 9.73969L10.38 9.94869C10.6898 9.6938 11.0313 9.48537 11.395 9.32931L11.707 8.34185C11.7386 8.24218 11.7991 8.15555 11.8798 8.09421C11.9605 8.03286 12.0574 7.99991 12.1568 8H13.8432C13.9425 7.99995 14.0394 8.03293 14.1201 8.09427C14.2008 8.15561 14.2612 8.24221 14.2928 8.34185L14.6048 9.32931C14.9685 9.48536 15.3101 9.69379 15.62 9.94869ZM13 15.6154C14.1046 15.6154 15 14.6683 15 13.5C15 12.3317 14.1046 11.3846 13 11.3846C11.8954 11.3846 11 12.3317 11 13.5C11 14.6683 11.8954 15.6154 13 15.6154Z" fill="#B4E4FF"/>
</g>
<defs>
<filter id="filter0_d_1271_33650" x="0" y="0" width="26" height="27" filterUnits="userSpaceOnUse" color-interpolation-filters="sRGB">
<feFlood flood-opacity="0" result="BackgroundImageFix"/>
<feColorMatrix in="SourceAlpha" type="matrix" values="0 0 0 0 0 0 0 0 0 0 0 0 0 0 0 0 0 0 127 0" result="hardAlpha"/>
<feOffset/>
<feGaussianBlur stdDeviation="4"/>
<feComposite in2="hardAlpha" operator="out"/>
<feColorMatrix type="matrix" values="0 0 0 0 0.0375 0 0 0 0 0.6535 0 0 0 0 1 0 0 0 1 0"/>
<feBlend mode="normal" in2="BackgroundImageFix" result="effect1_dropShadow_1271_33650"/>
<feBlend mode="normal" in="SourceGraphic" in2="effect1_dropShadow_1271_33650" result="shape"/>
</filter>
<linearGradient id="paint0_linear_1271_33650" x1="13.0014" y1="2" x2="13.0014" y2="26.0002" gradientUnits="userSpaceOnUse">
<stop stop-color="#DEF0FF"/>
<stop offset="1" stop-color="#8EA7BC"/>
</linearGradient>
</defs>
</svg>
