<svg width="50" height="50" viewBox="0 0 50 50" fill="none" xmlns="http://www.w3.org/2000/svg">
<path d="M45.4226 24C45.7799 24.6188 45.7799 25.3812 45.4226 26L36.0773 42.1865C35.7201 42.8053 35.0598 43.1865 34.3453 43.1865L15.6547 43.1865C14.9402 43.1865 14.2799 42.8053 13.9226 42.1865L4.57735 26C4.22008 25.3812 4.22008 24.6188 4.57735 24L13.9226 7.81347C14.2799 7.19466 14.9402 6.81347 15.6547 6.81347L34.3453 6.81347C35.0598 6.81347 35.7201 7.19466 36.0774 7.81347L45.4226 24Z" fill="url(#paint0_radial_3322_188156)"/>
<g clip-path="url(#clip0_3322_188156)">
<path d="M22.115 16.4039C22.4666 16.4039 22.7666 16.5258 23.0174 16.7695C23.2682 17.0133 23.3924 17.3109 23.3924 17.6625V22.7344C23.3924 23.0859 23.2682 23.3859 23.0174 23.6367C22.7666 23.8875 22.4666 24.0117 22.115 24.0117H17.0408C16.6893 24.0117 16.3916 23.8875 16.1479 23.6367C15.9041 23.3859 15.7846 23.0859 15.7846 22.7344V17.6625C15.7846 17.3109 15.9064 17.0133 16.1502 16.7695C16.3939 16.5258 16.6916 16.4039 17.0432 16.4039C17.0408 16.4063 22.115 16.4039 22.115 16.4039ZM22.115 26.55C22.4666 26.55 22.7666 26.6719 23.0174 26.9156C23.2682 27.1594 23.3924 27.457 23.3924 27.8086V32.9016C23.3924 33.2531 23.2682 33.5508 23.0174 33.7945C22.7666 34.0383 22.4666 34.1602 22.115 34.1602H17.0408C16.6893 34.1602 16.3916 34.0383 16.1479 33.7945C15.9041 33.5508 15.7822 33.2531 15.7822 32.9016V27.8063C15.7822 27.4547 15.9041 27.157 16.1479 26.9133C16.3916 26.6695 16.6893 26.5477 17.0408 26.5477H22.115V26.55ZM32.2799 26.55C32.6314 26.55 32.9291 26.6719 33.1729 26.9156C33.4166 27.1594 33.5385 27.457 33.5385 27.8086V32.9016C33.5385 33.2531 33.4166 33.5508 33.1729 33.7945C32.9291 34.0383 32.6314 34.1602 32.2799 34.1602H27.2057C26.8541 34.1602 26.5541 34.0383 26.3033 33.7945C26.0525 33.5508 25.9283 33.2531 25.9283 32.9016V27.8063C25.9283 27.4547 26.0525 27.157 26.3033 26.9133C26.5541 26.6695 26.8541 26.5477 27.2057 26.5477H32.2799V26.55ZM35.0994 18.6352C35.3689 18.9047 35.5049 19.2234 35.5049 19.5891C35.5049 19.9547 35.3689 20.2641 35.0994 20.5219L31.3236 24.2977C31.0541 24.5672 30.7377 24.7031 30.3791 24.7031C30.0205 24.7031 29.7064 24.5672 29.4346 24.2977L25.6635 20.5242C25.4057 20.2664 25.2768 19.957 25.2768 19.5914C25.2768 19.2258 25.4057 18.907 25.6635 18.6375L29.4393 14.8617C29.7088 14.6039 30.0252 14.475 30.3838 14.475C30.7424 14.475 31.0564 14.6039 31.3283 14.8617L35.0994 18.6352Z" fill="white"/>
</g>
<path d="M46.9896 24.25C47.2576 24.7141 47.2576 25.2859 46.9896 25.75L36.6443 43.6686C36.3764 44.1327 35.8812 44.4186 35.3453 44.4186L14.6547 44.4186C14.1188 44.4186 13.6236 44.1327 13.3557 43.6686L3.01037 25.75C2.74242 25.2859 2.74242 24.7141 3.01037 24.25L13.3557 6.33141C13.6236 5.86731 14.1188 5.58141 14.6547 5.58141L35.3453 5.58141C35.8812 5.58141 36.3764 5.86731 36.6443 6.33142L46.9896 24.25Z" stroke="#539BDA" stroke-opacity="0.3"/>
<path d="M48.9896 24.25C49.2576 24.7141 49.2576 25.2859 48.9896 25.75L37.6443 45.4006C37.3764 45.8647 36.8812 46.1506 36.3453 46.1506L13.6547 46.1506C13.1188 46.1506 12.6236 45.8647 12.3557 45.4006L1.01037 25.75C0.742415 25.2859 0.742415 24.7141 1.01037 24.25L12.3557 4.59936C12.6236 4.13526 13.1188 3.84936 13.6547 3.84936L36.3453 3.84936C36.8812 3.84936 37.3764 4.13526 37.6443 4.59936L48.9896 24.25Z" stroke="#539BDA" stroke-opacity="0.3"/>
<rect x="19" y="3" width="12" height="2" rx="1" fill="#B4E4FF"/>
<defs>
<radialGradient id="paint0_radial_3322_188156" cx="0" cy="0" r="1" gradientUnits="userSpaceOnUse" gradientTransform="translate(25 25) rotate(-180) scale(21)">
<stop offset="0.432292" stop-color="#094185" stop-opacity="0.38"/>
<stop offset="1" stop-color="#031121"/>
</radialGradient>
<clipPath id="clip0_3322_188156">
<rect width="24" height="24" fill="white" transform="translate(13 13)"/>
</clipPath>
</defs>
</svg>
