<svg width="24" height="27" viewBox="0 0 24 27" fill="none" xmlns="http://www.w3.org/2000/svg">
<path fill-rule="evenodd" clip-rule="evenodd" d="M2.59918 5.02197C2.23519 5.18121 2 5.54083 2 5.93813V18.4818C2 18.8266 2.17762 19.1471 2.47 19.3298L11.1534 24.757C11.6723 25.0812 12.3306 25.0812 12.8494 24.757L21.5329 19.3298C21.8252 19.1471 22.0029 18.8266 22.0029 18.4818V5.93813C22.0029 5.54083 21.7677 5.18121 21.4037 5.02197L12.4023 1.08384C12.1467 0.972052 11.8561 0.972052 11.6006 1.08384L2.59918 5.02197ZM12.001 20.9114C16.4889 20.9114 20.1272 17.2732 20.1272 12.7852C20.1272 8.29725 16.4889 4.65904 12.001 4.65904C7.51303 4.65904 3.87482 8.29725 3.87482 12.7852C3.87482 17.2732 7.51303 20.9114 12.001 20.9114Z" fill="url(#paint0_linear_1271_33683)"/>
<g filter="url(#filter0_d_1271_33683)">
<path d="M10.5471 14.4379H8.40044C8.12017 14.4379 7.92684 14.1556 8.02657 13.8923L10.1596 8.25917C10.1885 8.18296 10.2397 8.11737 10.3064 8.07109C10.3732 8.0248 10.4523 8.00001 10.5334 8H14.1328C14.4168 8 14.6104 8.28949 14.5032 8.55416L13.2612 11.6213H15.5994C15.9432 11.6213 16.1267 12.0291 15.8999 12.2891L10.1674 18.8609C9.8887 19.1805 9.37204 18.9036 9.48017 18.4927L10.5471 14.4379Z" fill="#B4E4FF"/>
</g>
<defs>
<filter id="filter0_d_1271_33683" x="0" y="0" width="24" height="27" filterUnits="userSpaceOnUse" color-interpolation-filters="sRGB">
<feFlood flood-opacity="0" result="BackgroundImageFix"/>
<feColorMatrix in="SourceAlpha" type="matrix" values="0 0 0 0 0 0 0 0 0 0 0 0 0 0 0 0 0 0 127 0" result="hardAlpha"/>
<feOffset/>
<feGaussianBlur stdDeviation="4"/>
<feComposite in2="hardAlpha" operator="out"/>
<feColorMatrix type="matrix" values="0 0 0 0 0.0375 0 0 0 0 0.6535 0 0 0 0 1 0 0 0 1 0"/>
<feBlend mode="normal" in2="BackgroundImageFix" result="effect1_dropShadow_1271_33683"/>
<feBlend mode="normal" in="SourceGraphic" in2="effect1_dropShadow_1271_33683" result="shape"/>
</filter>
<linearGradient id="paint0_linear_1271_33683" x1="12.0014" y1="1" x2="12.0014" y2="25.0002" gradientUnits="userSpaceOnUse">
<stop stop-color="#DEF0FF"/>
<stop offset="1" stop-color="#8EA7BC"/>
</linearGradient>
</defs>
</svg>
