<svg width="60" height="60" viewBox="0 0 60 60" fill="none" xmlns="http://www.w3.org/2000/svg">
<circle cx="30" cy="30" r="30" fill="#FF6B4B"/>
<path d="M12.5336 33.7212C13.1419 35.9728 14.6953 36.6159 17.2492 36.2597C20.2515 35.8411 22.792 35.0383 22.6021 32.4445C22.6021 32.4445 22.3592 29.6504 29.6663 29.4501C38.1921 29.246 37.8359 32.5537 37.8359 32.5537C37.844 35.598 39.9475 35.7715 42.9451 36.2227C45.9425 36.6739 47.7744 35.9336 48.1377 32.6043C48.8376 26.1885 37.1102 24.4948 31.9645 24.4219L31.9644 24.4217C31.9644 24.4217 24.1175 24.2891 20.3621 25.3882L18.3376 25.9606C15.5196 26.8672 12.9902 28.5216 12.405 30.8818C12.4049 30.8817 12.0602 31.9568 12.5336 33.7212Z" fill="white"/>
</svg>
