<svg width="38" height="36" viewBox="0 0 38 36" fill="none" xmlns="http://www.w3.org/2000/svg">
<rect x="1" width="36" height="36" rx="2" fill="#4BDEFF" fill-opacity="0.1"/>
<rect x="1.5" y="0.5" width="35" height="35" rx="1.5" stroke="#4BDEFF" stroke-opacity="0.5"/>
<path opacity="0.1" d="M1 18.2812L37 18" stroke="#4BDEFF" stroke-dasharray="2 2"/>
<path opacity="0.1" d="M18.7188 0V36" stroke="#4BDEFF" stroke-dasharray="2 2"/>
<circle cx="19" cy="18" r="11.25" stroke="url(#paint0_angular_1721_33640)" stroke-dasharray="2 2"/>
<rect opacity="0.2" x="5.5" y="4.5" width="27" height="27" rx="2" fill="#4BDEFF" fill-opacity="0.2" stroke="#4BDEFF"/>
<path d="M25.75 5H30.5V4H25.75V5ZM32 6.5V11.25H33V6.5H32ZM30.5 5C31.3284 5 32 5.67157 32 6.5H33C33 5.11929 31.8807 4 30.5 4V5ZM32 24.75V29.5H33V24.75H32ZM30.5 31H25.75V32H30.5V31ZM32 29.5C32 30.3284 31.3284 31 30.5 31V32C31.8807 32 33 30.8807 33 29.5H32ZM12.25 31H7.5V32H12.25V31ZM6 29.5V24.75H5V29.5H6ZM7.5 31C6.67157 31 6 30.3284 6 29.5H5C5 30.8807 6.11929 32 7.5 32V31ZM6 11.25V6.5H5V11.25H6ZM7.5 5H12.25V4H7.5V5ZM6 6.5C6 5.67157 6.67157 5 7.5 5V4C6.11929 4 5 5.11929 5 6.5H6Z" fill="#4BDEFF"/>
<g filter="url(#filter0_d_1721_33640)">
<path d="M24.3311 11.3679H26.3409C26.4218 11.37 26.5023 11.356 26.5775 11.3267C26.6528 11.2973 26.7211 11.2533 26.7784 11.1973C26.8357 11.1412 26.8808 11.0744 26.9108 11.0007C26.9409 10.9271 26.9554 10.8482 26.9534 10.7689C26.9555 10.6895 26.9412 10.6105 26.9112 10.5367C26.8812 10.4629 26.8362 10.3959 26.7788 10.3397C26.7215 10.2836 26.6531 10.2394 26.5778 10.21C26.5025 10.1806 26.4219 10.1666 26.3409 10.1687H24.3311C24.2502 10.1667 24.1696 10.1809 24.0944 10.2104C24.0192 10.2398 23.9509 10.284 23.8936 10.3401C23.8363 10.3962 23.7913 10.4632 23.7612 10.5369C23.7311 10.6106 23.7167 10.6895 23.7187 10.7689C23.7211 11.1115 24.0255 11.3679 24.3311 11.3679ZM26.3874 12.0112H24.3776C24.2966 12.0094 24.2161 12.0237 24.1409 12.0532C24.0657 12.0827 23.9974 12.1269 23.94 12.1829C23.8827 12.239 23.8375 12.3059 23.8073 12.3795C23.777 12.4532 23.7622 12.532 23.7639 12.6114C23.7639 12.9528 24.0255 13.2104 24.3776 13.2104H26.3874C26.4682 13.2124 26.5487 13.1982 26.6238 13.1688C26.6989 13.1395 26.7672 13.0954 26.8245 13.0394C26.8817 12.9834 26.9268 12.9166 26.9569 12.843C26.9871 12.7695 27.0017 12.6907 26.9998 12.6114C27.0017 12.5321 26.9871 12.4532 26.9569 12.3796C26.9268 12.306 26.8818 12.2391 26.8245 12.183C26.7673 12.1269 26.699 12.0828 26.6239 12.0532C26.5488 12.0237 26.4683 12.0094 26.3874 12.0112ZM26.3874 13.8525H24.3776C24.2967 13.8506 24.2162 13.8647 24.141 13.8941C24.0658 13.9235 23.9974 13.9675 23.9401 14.0235C23.8827 14.0794 23.8375 14.1462 23.8073 14.2198C23.777 14.2934 23.7622 14.3722 23.7639 14.4515C23.7621 14.531 23.7767 14.6099 23.8069 14.6836C23.8371 14.7573 23.8823 14.8243 23.9396 14.8804C23.997 14.9365 24.0654 14.9806 24.1407 15.0101C24.216 15.0395 24.2966 15.0537 24.3776 15.0517H26.3874C26.4683 15.0537 26.5489 15.0395 26.6241 15.0101C26.6993 14.9806 26.7676 14.9365 26.8249 14.8803C26.8822 14.8242 26.9272 14.7572 26.9573 14.6835C26.9874 14.6098 27.0018 14.5309 26.9998 14.4515C27.0015 14.3723 26.9868 14.2936 26.9566 14.2201C26.9264 14.1466 26.8813 14.0799 26.8241 14.0239C26.7668 13.9679 26.6987 13.9239 26.6236 13.8945C26.5485 13.865 26.4682 13.8507 26.3874 13.8525ZM21.9119 19.8821V10.6826C21.9119 8.71313 20.2517 7 18.3276 7C16.3643 7 14.7897 8.6712 14.7897 10.6395V19.7922C13.698 20.7794 13 22.1043 13 23.6905C13 26.6435 15.3606 29 18.3312 29C21.3006 29 23.6625 26.6016 23.6625 23.6905C23.616 22.1043 23.0072 20.8644 21.9119 19.8821ZM18.3276 26.1236C16.8386 26.1236 15.5953 24.9005 15.5953 23.3934C15.5953 22.6398 15.9303 21.8887 16.5073 21.3712L17.2261 20.7578V17.8431C17.2261 17.2788 17.7053 16.7613 18.3276 16.7613C18.9046 16.7613 19.3862 17.2788 19.3862 17.8431V20.8081L20.105 21.4191C20.7297 21.9833 21.0671 22.6878 21.0671 23.3934C21.0671 24.9005 19.8679 26.1236 18.3276 26.1236Z" fill="#4BDEFF"/>
</g>
<defs>
<filter id="filter0_d_1721_33640" x="9" y="5" width="22" height="30" filterUnits="userSpaceOnUse" color-interpolation-filters="sRGB">
<feFlood flood-opacity="0" result="BackgroundImageFix"/>
<feColorMatrix in="SourceAlpha" type="matrix" values="0 0 0 0 0 0 0 0 0 0 0 0 0 0 0 0 0 0 127 0" result="hardAlpha"/>
<feOffset dy="2"/>
<feGaussianBlur stdDeviation="2"/>
<feColorMatrix type="matrix" values="0 0 0 0 0.105882 0 0 0 0 0.2 0 0 0 0 0.341176 0 0 0 0.5 0"/>
<feBlend mode="normal" in2="BackgroundImageFix" result="effect1_dropShadow_1721_33640"/>
<feBlend mode="normal" in="SourceGraphic" in2="effect1_dropShadow_1721_33640" result="shape"/>
</filter>
<radialGradient id="paint0_angular_1721_33640" cx="0" cy="0" r="1" gradientUnits="userSpaceOnUse" gradientTransform="translate(19 18) scale(11.25)">
<stop offset="0.116068" stop-color="#4B94FF" stop-opacity="0.2"/>
<stop offset="0.25" stop-color="#4B94FF" stop-opacity="0.01"/>
<stop offset="0.588446" stop-color="#4B94FF" stop-opacity="0.2"/>
<stop offset="0.745114" stop-color="#4B94FF" stop-opacity="0.01"/>
</radialGradient>
</defs>
</svg>
