<svg width="26" height="28" viewBox="0 0 26 28" fill="none" xmlns="http://www.w3.org/2000/svg">
<path fill-rule="evenodd" clip-rule="evenodd" d="M3.59918 6.02197C3.23519 6.18121 3 6.54083 3 6.93813V19.4818C3 19.8266 3.17762 20.1471 3.47 20.3298L12.1534 25.757C12.6723 26.0812 13.3306 26.0812 13.8494 25.757L22.5329 20.3298C22.8252 20.1471 23.0029 19.8266 23.0029 19.4818V6.93813C23.0029 6.54083 22.7677 6.18121 22.4037 6.02197L13.4023 2.08384C13.1467 1.97205 12.8561 1.97205 12.6006 2.08384L3.59918 6.02197ZM13.001 21.9114C17.4889 21.9114 21.1272 18.2732 21.1272 13.7852C21.1272 9.29725 17.4889 5.65904 13.001 5.65904C8.51303 5.65904 4.87482 9.29725 4.87482 13.7852C4.87482 18.2732 8.51303 21.9114 13.001 21.9114Z" fill="url(#paint0_linear_1271_33694)"/>
<g filter="url(#filter0_d_1271_33694)">
<path d="M17.2752 9.73196C16.406 9.60268 14.8976 9.23471 13.581 8.18949C13.4391 8.07556 13.2626 8.00935 13.0782 8.00092C12.8938 7.99248 12.7116 8.04228 12.5592 8.14275C11.4 8.89824 10.083 9.39899 8.70111 9.60964C8.50439 9.64192 8.32593 9.74051 8.19753 9.88785C8.06913 10.0352 7.99914 10.2217 8.00001 10.4142V14.7463C8.00001 17.9505 11.3962 19.4801 12.6397 19.9326C12.78 19.9832 12.9295 20.0058 13.0791 19.9987C13.2287 19.9917 13.3753 19.9554 13.5099 19.8918C14.7007 19.3289 18 17.5408 18 14.9939V10.5385C17.9994 10.3426 17.9259 10.1534 17.7929 10.0054C17.6599 9.85735 17.4761 9.76032 17.2752 9.73196ZM16.007 13.1928L12.982 16.065C12.887 16.1559 12.759 16.2076 12.6252 16.2092H12.6087C12.5389 16.207 12.4703 16.1911 12.407 16.1626C12.3437 16.134 12.2871 16.0934 12.2406 16.0431L10.3704 14.0292C10.3222 13.9811 10.2847 13.9241 10.2599 13.8616C10.2352 13.7991 10.2237 13.7325 10.2263 13.6656C10.2289 13.5988 10.2454 13.5332 10.2749 13.4726C10.3044 13.4121 10.3462 13.3579 10.3979 13.3134C10.4496 13.2688 10.5101 13.2347 10.5757 13.2132C10.6414 13.1917 10.7108 13.1832 10.78 13.1882C10.8491 13.1932 10.9165 13.2116 10.9781 13.2423C11.0397 13.273 11.0942 13.3154 11.1385 13.3669L12.6438 14.9909L15.2843 12.4848C15.3315 12.4348 15.3887 12.3946 15.4526 12.3666C15.5164 12.3387 15.5855 12.3237 15.6556 12.3224C15.7257 12.3211 15.7953 12.3336 15.8602 12.3591C15.9251 12.3847 15.9839 12.4227 16.0331 12.4709C16.0822 12.5191 16.1206 12.5765 16.146 12.6395C16.1714 12.7026 16.1832 12.7699 16.1806 12.8375C16.1781 12.9051 16.1613 12.9714 16.1313 13.0325C16.1012 13.0936 16.0586 13.1482 16.006 13.1928H16.007Z" fill="#B4E4FF"/>
</g>
<defs>
<filter id="filter0_d_1271_33694" x="0" y="0" width="26" height="28" filterUnits="userSpaceOnUse" color-interpolation-filters="sRGB">
<feFlood flood-opacity="0" result="BackgroundImageFix"/>
<feColorMatrix in="SourceAlpha" type="matrix" values="0 0 0 0 0 0 0 0 0 0 0 0 0 0 0 0 0 0 127 0" result="hardAlpha"/>
<feOffset/>
<feGaussianBlur stdDeviation="4"/>
<feComposite in2="hardAlpha" operator="out"/>
<feColorMatrix type="matrix" values="0 0 0 0 0.0375 0 0 0 0 0.6535 0 0 0 0 1 0 0 0 1 0"/>
<feBlend mode="normal" in2="BackgroundImageFix" result="effect1_dropShadow_1271_33694"/>
<feBlend mode="normal" in="SourceGraphic" in2="effect1_dropShadow_1271_33694" result="shape"/>
</filter>
<linearGradient id="paint0_linear_1271_33694" x1="13.0014" y1="2" x2="13.0014" y2="26.0002" gradientUnits="userSpaceOnUse">
<stop stop-color="#DEF0FF"/>
<stop offset="1" stop-color="#8EA7BC"/>
</linearGradient>
</defs>
</svg>
