<svg width="26" height="26" viewBox="0 0 26 26" fill="none" xmlns="http://www.w3.org/2000/svg">
<path fill-rule="evenodd" clip-rule="evenodd" d="M3.59918 5.02197C3.23519 5.18121 3 5.54083 3 5.93813V18.4818C3 18.8266 3.17762 19.1471 3.47 19.3298L12.1534 24.757C12.6723 25.0812 13.3306 25.0812 13.8494 24.757L22.5329 19.3298C22.8252 19.1471 23.0029 18.8266 23.0029 18.4818V5.93813C23.0029 5.54083 22.7677 5.18121 22.4037 5.02197L13.4023 1.08384C13.1467 0.972052 12.8561 0.972052 12.6006 1.08384L3.59918 5.02197ZM13.001 20.9114C17.4889 20.9114 21.1272 17.2732 21.1272 12.7852C21.1272 8.29725 17.4889 4.65904 13.001 4.65904C8.51303 4.65904 4.87482 8.29725 4.87482 12.7852C4.87482 17.2732 8.51303 20.9114 13.001 20.9114Z" fill="url(#paint0_linear_2625_37715)"/>
<g filter="url(#filter0_d_2625_37715)">
<path d="M10.513 8.19995C11.0469 8.19995 11.5589 8.41204 11.9365 8.78955C12.314 9.16707 12.5261 9.67909 12.5261 10.213V12.226H10.513C9.97914 12.226 9.46712 12.0139 9.0896 11.6364C8.71209 11.2589 8.5 10.7469 8.5 10.213C8.5 9.67909 8.71209 9.16707 9.0896 8.78955C9.46712 8.41204 9.97914 8.19995 10.513 8.19995ZM10.513 13.1739H12.5261V15.1869C12.5261 15.5851 12.408 15.9743 12.1868 16.3053C11.9656 16.6363 11.6512 16.8944 11.2834 17.0467C10.9155 17.1991 10.5108 17.2389 10.1203 17.1613C9.72982 17.0836 9.37113 16.8919 9.0896 16.6103C8.80808 16.3288 8.61635 15.9701 8.53868 15.5796C8.46101 15.1892 8.50087 14.7844 8.65323 14.4166C8.80559 14.0487 9.06361 13.7343 9.39465 13.5132C9.72569 13.292 10.1149 13.1739 10.513 13.1739ZM15.487 8.19995C16.0209 8.19995 16.5329 8.41204 16.9104 8.78955C17.2879 9.16707 17.5 9.67909 17.5 10.213C17.5 10.7469 17.2879 11.2589 16.9104 11.6364C16.5329 12.0139 16.0209 12.226 15.487 12.226H13.4739V10.213C13.4739 9.67909 13.686 9.16707 14.0635 8.78955C14.4411 8.41204 14.9531 8.19995 15.487 8.19995ZM13.4739 13.1739H15.487C15.8851 13.1739 16.2743 13.292 16.6054 13.5132C16.9364 13.7343 17.1944 14.0487 17.3468 14.4166C17.4991 14.7844 17.539 15.1892 17.4613 15.5796C17.3836 15.9701 17.1919 16.3288 16.9104 16.6103C16.6289 16.8919 16.2702 17.0836 15.8797 17.1613C15.4892 17.2389 15.0845 17.1991 14.7166 17.0467C14.3488 16.8944 14.0344 16.6363 13.8132 16.3053C13.592 15.9743 13.4739 15.5851 13.4739 15.1869V13.1739Z" fill="#B4E4FF"/>
</g>
<defs>
<filter id="filter0_d_2625_37715" x="0.5" y="0.199951" width="25" height="25" filterUnits="userSpaceOnUse" color-interpolation-filters="sRGB">
<feFlood flood-opacity="0" result="BackgroundImageFix"/>
<feColorMatrix in="SourceAlpha" type="matrix" values="0 0 0 0 0 0 0 0 0 0 0 0 0 0 0 0 0 0 127 0" result="hardAlpha"/>
<feOffset/>
<feGaussianBlur stdDeviation="4"/>
<feComposite in2="hardAlpha" operator="out"/>
<feColorMatrix type="matrix" values="0 0 0 0 0.0375 0 0 0 0 0.6535 0 0 0 0 1 0 0 0 1 0"/>
<feBlend mode="normal" in2="BackgroundImageFix" result="effect1_dropShadow_2625_37715"/>
<feBlend mode="normal" in="SourceGraphic" in2="effect1_dropShadow_2625_37715" result="shape"/>
</filter>
<linearGradient id="paint0_linear_2625_37715" x1="13.0014" y1="1" x2="13.0014" y2="25.0002" gradientUnits="userSpaceOnUse">
<stop stop-color="#DEF0FF"/>
<stop offset="1" stop-color="#8EA7BC"/>
</linearGradient>
</defs>
</svg>
