<svg width="63" height="63" viewBox="0 0 63 63" fill="none" xmlns="http://www.w3.org/2000/svg">
<g filter="url(#filter0_d_3279_184206)">
<rect x="4" y="2" width="55" height="55" rx="4" fill="url(#paint0_radial_3279_184206)" fill-opacity="0.5"/>
<path d="M42.7999 10.2316H21.1999C20.1578 10.2316 19.3052 10.9895 19.3052 11.9368V40.0737C19.3052 41.021 20.1578 41.7789 21.1999 41.7789H21.3894L22.4315 43.4842C22.4315 43.5789 22.5262 43.5789 22.621 43.6737H22.7157C22.8104 43.6737 22.9052 43.7684 22.9999 43.7684H24.8946C24.9894 43.7684 25.0841 43.7684 25.1789 43.6737H25.2736C25.3683 43.6737 25.3683 43.5789 25.4631 43.4842L26.5052 41.7789H37.4946L38.5368 43.4842C38.5368 43.5789 38.6315 43.5789 38.7262 43.6737H38.821C38.9157 43.6737 39.0104 43.7684 39.1052 43.7684H40.9999C41.0947 43.7684 41.1894 43.7684 41.2841 43.6737H41.3789C41.4736 43.6737 41.4736 43.5789 41.5683 43.4842L42.6104 41.7789H42.7999C43.842 41.7789 44.6947 41.021 44.6947 40.0737V11.9368C44.6947 10.9895 43.842 10.2316 42.7999 10.2316ZM24.5157 42.4421H23.3789L22.9999 41.7789H24.9894L24.5157 42.4421ZM40.621 42.4421H39.4841L39.1052 41.7789H41.0947L40.621 42.4421ZM43.3683 40.0737C43.3683 40.2631 43.0841 40.4526 42.7999 40.4526H21.1999C20.9157 40.4526 20.6315 40.2631 20.6315 40.0737V11.9368C20.6315 11.7474 20.9157 11.5579 21.1999 11.5579H42.7999C43.0841 11.5579 43.3683 11.7474 43.3683 11.9368V40.0737Z" fill="white"/>
<path fill-rule="evenodd" clip-rule="evenodd" d="M23.1559 13.41H40.4927C41.0611 13.41 41.4401 13.789 41.5348 14.2627V37.9469C41.5348 38.5153 41.0611 38.8942 40.5874 38.8942H23.1559C22.5874 38.8942 22.2085 38.4206 22.2085 37.9469V14.3574C22.2085 13.789 22.6822 13.41 23.1559 13.41ZM32.7218 26.536L34.1175 26.9579C34.0238 27.3493 33.8761 27.6762 33.6745 27.9387C33.473 28.2012 33.2222 28.3993 32.9222 28.5329C32.6245 28.6664 32.2448 28.7332 31.7831 28.7332C31.223 28.7332 30.7648 28.6524 30.4085 28.4907C30.0546 28.3266 29.7488 28.0395 29.4909 27.6293C29.2331 27.2192 29.1042 26.6942 29.1042 26.0543C29.1042 25.2012 29.3304 24.5461 29.7827 24.0891C30.2374 23.6297 30.8796 23.4 31.7093 23.4C32.3585 23.4 32.8683 23.5313 33.2386 23.7938C33.6112 24.0563 33.8878 24.4594 34.0683 25.0032L32.662 25.3161C32.6128 25.159 32.5613 25.0442 32.5073 24.9715C32.4183 24.8496 32.3093 24.7559 32.1804 24.6903C32.0515 24.6246 31.9073 24.5918 31.748 24.5918C31.387 24.5918 31.1105 24.7371 30.9183 25.0278C30.773 25.2434 30.7003 25.5821 30.7003 26.0438C30.7003 26.6157 30.787 27.0082 30.9605 27.2215C31.1339 27.4325 31.3777 27.5379 31.6917 27.5379C31.9964 27.5379 32.2261 27.4524 32.3808 27.2813C32.5378 27.1102 32.6515 26.8618 32.7218 26.536ZM24.0804 23.4879H26.7277C27.3042 23.4879 27.7355 23.625 28.0214 23.8993C28.3097 24.1735 28.4538 24.5637 28.4538 25.07C28.4538 25.5903 28.2968 25.9969 27.9827 26.2899C27.671 26.5829 27.1941 26.7293 26.5519 26.7293H25.68V28.6418H24.0804V23.4879ZM25.68 25.6852H26.0702C26.3773 25.6852 26.5929 25.6325 26.7171 25.527C26.8413 25.4192 26.9034 25.2821 26.9034 25.1157C26.9034 24.9539 26.8495 24.8168 26.7417 24.7043C26.6339 24.5918 26.4312 24.5356 26.1335 24.5356H25.68V25.6852ZM36.132 26.8418L34.6167 26.9368C34.6613 27.4571 34.8523 27.886 35.1898 28.2235C35.5273 28.561 36.1343 28.7297 37.0109 28.7297C37.5101 28.7297 37.9237 28.6582 38.2519 28.5153C38.58 28.37 38.8355 28.1579 39.0183 27.8789C39.2011 27.6 39.2925 27.2954 39.2925 26.9649C39.2925 26.6836 39.2234 26.4293 39.0851 26.202C38.9491 25.9746 38.73 25.7848 38.4277 25.6325C38.1277 25.4778 37.6296 25.3254 36.9335 25.1754C36.6523 25.1168 36.4741 25.0536 36.3991 24.9856C36.3218 24.92 36.2831 24.8461 36.2831 24.7641C36.2831 24.6516 36.33 24.5567 36.4237 24.4793C36.5175 24.3996 36.657 24.3598 36.8421 24.3598C37.0671 24.3598 37.2429 24.4125 37.3695 24.518C37.4984 24.6235 37.5827 24.7922 37.6226 25.0243L39.1238 24.9364C39.0581 24.402 38.8519 24.0129 38.505 23.7692C38.1605 23.5231 37.6589 23.4 37.0003 23.4C36.4636 23.4 36.0405 23.468 35.7312 23.6039C35.4241 23.7375 35.1933 23.9227 35.0386 24.1594C34.8863 24.3938 34.8101 24.6434 34.8101 24.9082C34.8101 25.3114 34.9601 25.643 35.2601 25.9032C35.5577 26.1633 36.0558 26.3719 36.7542 26.5289C37.1808 26.6227 37.4527 26.7223 37.5698 26.8278C37.687 26.9332 37.7456 27.0528 37.7456 27.1864C37.7456 27.327 37.6835 27.4512 37.5593 27.559C37.4374 27.6645 37.2628 27.7172 37.0355 27.7172C36.7308 27.7172 36.4964 27.6129 36.3323 27.4043C36.2316 27.2754 36.1648 27.0879 36.132 26.8418Z" fill="white"/>
</g>
<defs>
<filter id="filter0_d_3279_184206" x="0" y="0" width="63" height="63" filterUnits="userSpaceOnUse" color-interpolation-filters="sRGB">
<feFlood flood-opacity="0" result="BackgroundImageFix"/>
<feColorMatrix in="SourceAlpha" type="matrix" values="0 0 0 0 0 0 0 0 0 0 0 0 0 0 0 0 0 0 127 0" result="hardAlpha"/>
<feOffset dy="2"/>
<feGaussianBlur stdDeviation="2"/>
<feComposite in2="hardAlpha" operator="out"/>
<feColorMatrix type="matrix" values="0 0 0 0 0 0 0 0 0 0 0 0 0 0 0 0 0 0 0.1 0"/>
<feBlend mode="normal" in2="BackgroundImageFix" result="effect1_dropShadow_3279_184206"/>
<feBlend mode="normal" in="SourceGraphic" in2="effect1_dropShadow_3279_184206" result="shape"/>
</filter>
<radialGradient id="paint0_radial_3279_184206" cx="0" cy="0" r="1" gradientUnits="userSpaceOnUse" gradientTransform="translate(31.5 26.9219) rotate(134.304) scale(33.6453)">
<stop stop-color="#0E7FA2"/>
<stop offset="0.223958" stop-color="#1486B4" stop-opacity="0"/>
<stop offset="0.465383" stop-color="#1689B9" stop-opacity="0"/>
<stop offset="1" stop-color="#1D92CD"/>
</radialGradient>
</defs>
</svg>
