<svg width="63" height="63" viewBox="0 0 63 63" fill="none" xmlns="http://www.w3.org/2000/svg">
<g filter="url(#filter0_d_1689_411)">
<rect x="4" y="2" width="55" height="55" rx="4" fill="url(#paint0_radial_1689_411)" fill-opacity="0.5"/>
<path d="M49.4842 47.2737C49.2858 47.5018 49.0404 47.6847 48.7647 47.8101C48.489 47.9354 48.1894 48.0002 47.8863 48H15.1117C14.8095 48.0002 14.5108 47.9357 14.2358 47.8111C13.9608 47.6864 13.7159 47.5044 13.5176 47.2773C13.3194 47.0503 13.1724 46.7835 13.0867 46.495C13.001 46.2065 12.9785 45.9031 13.0207 45.6053C13.1841 44.4708 13.5313 43.5117 14.0814 42.6734C14.5814 41.9113 15.2363 41.2717 16.0842 40.7159C17.5928 39.727 19.5 39.155 21.5194 38.549C22.3285 38.3064 23.165 38.0555 24.0008 37.7701C25.564 37.2369 26.5064 36.2183 26.8702 34.6634L26.5125 34.3962C24.9147 33.2032 23.8526 31.4321 23.556 29.4658C23.1228 29.3702 22.6601 29.1113 22.2717 28.5369C21.9286 28.0289 21.7306 27.399 21.5558 26.8435C21.4819 26.6086 21.4122 26.3868 21.3412 26.2055C20.9635 25.2429 20.7288 24.0982 20.7288 23.2195C20.7288 22.4456 21.0284 21.8046 21.5722 21.4149C21.8338 21.2292 22.1353 21.1071 22.4528 21.0583L21.875 16.6499C21.7945 16.0368 21.8382 15.414 22.0037 14.8181C22.1692 14.2222 22.4529 13.6654 22.8383 13.1806C23.2236 12.6957 23.7027 12.2927 24.2472 11.9954C24.7917 11.698 25.3905 11.5124 26.0083 11.4494L29.3505 11.1093C30.0589 11.0371 30.7705 11.0007 31.4826 11H31.499C34.9336 11 39.4663 11.8349 41.199 12.7869C41.2985 12.8415 41.3859 12.9154 41.456 13.0043C41.5261 13.0933 41.5774 13.1953 41.607 13.3045C41.6366 13.4136 41.6437 13.5276 41.6281 13.6395C41.6124 13.7515 41.5742 13.8591 41.5158 13.9561C41.5108 13.9639 41.0074 14.8117 40.6238 16.0144C40.8927 16.9148 40.9673 17.8615 40.8427 18.7926L40.5457 21.0586C40.8632 21.1076 41.1647 21.2298 41.4263 21.4154C41.9701 21.8052 42.271 22.4461 42.271 23.22C42.271 24.0987 42.0364 25.2434 41.6589 26.206C41.5879 26.3873 41.5182 26.6091 41.4443 26.844C41.2695 27.3996 41.0715 28.0295 40.7284 28.5374C40.3401 29.1119 39.8773 29.3707 39.4441 29.4664C39.1475 31.4326 38.0854 33.2037 36.4876 34.3967L36.1297 34.664C36.4934 36.2189 37.4358 37.2374 38.9991 37.7706C39.8356 38.056 40.6721 38.3069 41.4804 38.5495C43.4998 39.1555 45.4071 39.7276 46.9157 40.7164C47.7636 41.2722 48.4185 41.9126 48.9185 42.6739C49.4688 43.5122 49.816 44.4713 49.9791 45.6058C50.0215 45.9029 49.9992 46.2055 49.9138 46.4933C49.8284 46.7811 49.6819 47.0472 49.4842 47.2737Z" fill="white"/>
</g>
<defs>
<filter id="filter0_d_1689_411" x="0" y="0" width="63" height="63" filterUnits="userSpaceOnUse" color-interpolation-filters="sRGB">
<feFlood flood-opacity="0" result="BackgroundImageFix"/>
<feColorMatrix in="SourceAlpha" type="matrix" values="0 0 0 0 0 0 0 0 0 0 0 0 0 0 0 0 0 0 127 0" result="hardAlpha"/>
<feOffset dy="2"/>
<feGaussianBlur stdDeviation="2"/>
<feComposite in2="hardAlpha" operator="out"/>
<feColorMatrix type="matrix" values="0 0 0 0 0 0 0 0 0 0 0 0 0 0 0 0 0 0 0.1 0"/>
<feBlend mode="normal" in2="BackgroundImageFix" result="effect1_dropShadow_1689_411"/>
<feBlend mode="normal" in="SourceGraphic" in2="effect1_dropShadow_1689_411" result="shape"/>
</filter>
<radialGradient id="paint0_radial_1689_411" cx="0" cy="0" r="1" gradientUnits="userSpaceOnUse" gradientTransform="translate(31.5 26.9219) rotate(134.304) scale(33.6453)">
<stop stop-color="#0E7FA2"/>
<stop offset="0.223958" stop-color="#1486B4" stop-opacity="0"/>
<stop offset="0.465383" stop-color="#1689B9" stop-opacity="0"/>
<stop offset="1" stop-color="#1D92CD"/>
</radialGradient>
</defs>
</svg>
