<svg width="26" height="26" viewBox="0 0 26 26" fill="none" xmlns="http://www.w3.org/2000/svg">
<path fill-rule="evenodd" clip-rule="evenodd" d="M3.59918 5.02197C3.23519 5.18121 3 5.54083 3 5.93813V18.4818C3 18.8266 3.17762 19.1471 3.47 19.3298L12.1534 24.757C12.6723 25.0812 13.3306 25.0812 13.8494 24.757L22.5329 19.3298C22.8252 19.1471 23.0029 18.8266 23.0029 18.4818V5.93813C23.0029 5.54083 22.7677 5.18121 22.4037 5.02197L13.4023 1.08384C13.1467 0.972052 12.8561 0.972052 12.6006 1.08384L3.59918 5.02197ZM13.001 20.9114C17.4889 20.9114 21.1272 17.2732 21.1272 12.7852C21.1272 8.29725 17.4889 4.65904 13.001 4.65904C8.51303 4.65904 4.87482 8.29725 4.87482 12.7852C4.87482 17.2732 8.51303 20.9114 13.001 20.9114Z" fill="url(#paint0_linear_2625_37748)"/>
<g filter="url(#filter0_d_2625_37748)">
<path d="M17.9024 15.5006L15.9404 13.5408C15.8826 13.4834 15.8045 13.4512 15.723 13.4512C15.6415 13.4512 15.5633 13.4834 15.5055 13.5408L13.5436 15.5006C13.4861 15.5584 13.4539 15.6365 13.4539 15.7179C13.4539 15.7993 13.4861 15.8774 13.5436 15.9351L15.5055 17.9104C15.5633 17.9678 15.6415 18 15.723 18C15.8045 18 15.8826 17.9678 15.9404 17.9104L17.9024 15.9505C17.9332 15.9217 17.9577 15.8869 17.9745 15.8482C17.9913 15.8095 18 15.7678 18 15.7256C18 15.6834 17.9913 15.6417 17.9745 15.603C17.9577 15.5643 17.9332 15.5295 17.9024 15.5006ZM14.8484 15.5006L14.6294 15.7194C14.5716 15.7768 14.4934 15.809 14.4119 15.809C14.3304 15.809 14.2523 15.7768 14.1945 15.7194C14.137 15.6617 14.1048 15.5836 14.1048 15.5022C14.1048 15.4208 14.137 15.3427 14.1945 15.2849L14.4135 15.0662C14.4713 15.0088 14.5495 14.9765 14.631 14.9765C14.7124 14.9765 14.7906 15.0088 14.8484 15.0662C14.9063 15.1235 14.9391 15.2014 14.9397 15.2828C14.9403 15.3642 14.9086 15.4425 14.8515 15.5006H14.8484ZM16.1564 15.9351L15.5024 16.5884C15.4446 16.6458 15.3664 16.678 15.2849 16.678C15.2034 16.678 15.1252 16.6458 15.0674 16.5884C15.01 16.5307 14.9777 16.4526 14.9777 16.3712C14.9777 16.2898 15.01 16.2117 15.0674 16.1539L15.7214 15.5006C15.7491 15.4684 15.7831 15.4422 15.8214 15.4237C15.8596 15.4052 15.9013 15.3948 15.9438 15.3932C15.9863 15.3915 16.0287 15.3987 16.0682 15.4142C16.1078 15.4297 16.1438 15.4532 16.1738 15.4832C16.2039 15.5132 16.2274 15.5491 16.2429 15.5887C16.2585 15.6282 16.2656 15.6705 16.264 15.713C16.2623 15.7554 16.2519 15.7971 16.2334 15.8353C16.2149 15.8735 16.1887 15.9075 16.1564 15.9351ZM10.4866 12.45L12.4485 10.4901C12.5059 10.4324 12.5382 10.3543 12.5382 10.2729C12.5382 10.1915 12.5059 10.1133 12.4485 10.0556L10.4866 8.08961C10.4288 8.03221 10.3506 8 10.2691 8C10.1876 8 10.1094 8.03221 10.0516 8.08961L8.0897 10.0525C8.03225 10.1103 8 10.1884 8 10.2698C8 10.3512 8.03225 10.4293 8.0897 10.487L10.0516 12.4469C10.109 12.5047 10.187 12.5374 10.2685 12.538C10.35 12.5386 10.4284 12.5069 10.4866 12.45ZM10.7056 11.7967C10.6466 11.8472 10.5707 11.8735 10.493 11.8705C10.4154 11.8675 10.3417 11.8354 10.2868 11.7805C10.2319 11.7256 10.1997 11.6521 10.1967 11.5745C10.1937 11.497 10.2201 11.4211 10.2706 11.3622C10.3284 11.3048 10.4066 11.2726 10.4881 11.2726C10.5696 11.2726 10.6478 11.3048 10.7056 11.3622C10.763 11.4199 10.7953 11.498 10.7953 11.5794C10.7953 11.6608 10.763 11.7389 10.7056 11.7967ZM9.39764 10.9246C9.34019 10.8669 9.30794 10.7888 9.30794 10.7074C9.30794 10.6259 9.34019 10.5478 9.39764 10.4901L10.0516 9.83683C10.1094 9.77943 10.1876 9.74722 10.2691 9.74722C10.3506 9.74722 10.4288 9.77943 10.4866 9.83683C10.544 9.89456 10.5763 9.97266 10.5763 10.0541C10.5763 10.1355 10.544 10.2136 10.4866 10.2713L9.8326 10.9246C9.7748 10.982 9.69662 11.0142 9.61512 11.0142C9.53363 11.0142 9.45544 10.982 9.39764 10.9246ZM16.3785 11.3591C16.4363 11.4165 16.5145 11.4487 16.596 11.4487C16.6774 11.4487 16.7556 11.4165 16.8134 11.3591L17.4612 10.712C17.4917 10.683 17.5159 10.6481 17.5323 10.6094C17.5488 10.5707 17.5571 10.5291 17.5569 10.487C17.5565 10.4062 17.5244 10.3287 17.4674 10.2713L15.7214 8.52718C15.6926 8.49736 15.6581 8.47364 15.62 8.45743C15.5818 8.44123 15.5408 8.43288 15.4993 8.43288C15.4579 8.43288 15.4168 8.44123 15.3786 8.45743C15.3405 8.47364 15.306 8.49736 15.2772 8.52718L14.6294 9.1743C14.572 9.23204 14.5397 9.31014 14.5397 9.39155C14.5397 9.47296 14.572 9.55106 14.6294 9.60879L16.3785 11.3591ZM15.9404 11.7967L14.1945 10.0525C14.1367 9.99514 14.0585 9.96292 13.977 9.96292C13.8955 9.96292 13.8173 9.99514 13.7595 10.0525L8.4352 15.3712C8.40305 15.4032 8.37837 15.4419 8.36291 15.4845C8.34745 15.5271 8.34158 15.5726 8.34574 15.6177L8.49998 17.2078C8.50681 17.279 8.53826 17.3457 8.58892 17.3963C8.63958 17.4469 8.70629 17.4783 8.77761 17.4851L10.3693 17.6392C10.4145 17.6434 10.4601 17.6375 10.5027 17.6221C10.5454 17.6066 10.5841 17.582 10.6161 17.5499L15.9404 12.2312C15.9979 12.1734 16.0301 12.0953 16.0301 12.0139C16.0301 11.9325 15.9979 11.8544 15.9404 11.7967Z" fill="#B4E4FF"/>
</g>
<defs>
<filter id="filter0_d_2625_37748" x="0" y="0" width="26" height="26" filterUnits="userSpaceOnUse" color-interpolation-filters="sRGB">
<feFlood flood-opacity="0" result="BackgroundImageFix"/>
<feColorMatrix in="SourceAlpha" type="matrix" values="0 0 0 0 0 0 0 0 0 0 0 0 0 0 0 0 0 0 127 0" result="hardAlpha"/>
<feOffset/>
<feGaussianBlur stdDeviation="4"/>
<feComposite in2="hardAlpha" operator="out"/>
<feColorMatrix type="matrix" values="0 0 0 0 0.0375 0 0 0 0 0.6535 0 0 0 0 1 0 0 0 1 0"/>
<feBlend mode="normal" in2="BackgroundImageFix" result="effect1_dropShadow_2625_37748"/>
<feBlend mode="normal" in="SourceGraphic" in2="effect1_dropShadow_2625_37748" result="shape"/>
</filter>
<linearGradient id="paint0_linear_2625_37748" x1="13.0014" y1="1" x2="13.0014" y2="25.0002" gradientUnits="userSpaceOnUse">
<stop stop-color="#DEF0FF"/>
<stop offset="1" stop-color="#8EA7BC"/>
</linearGradient>
</defs>
</svg>
