<svg width="50" height="50" viewBox="0 0 50 50" fill="none" xmlns="http://www.w3.org/2000/svg">
<path d="M45.4226 24C45.7799 24.6188 45.7799 25.3812 45.4226 26L36.0773 42.1865C35.7201 42.8053 35.0598 43.1865 34.3453 43.1865L15.6547 43.1865C14.9402 43.1865 14.2799 42.8053 13.9226 42.1865L4.57735 26C4.22008 25.3812 4.22008 24.6188 4.57735 24L13.9226 7.81347C14.2799 7.19466 14.9402 6.81347 15.6547 6.81347L34.3453 6.81347C35.0598 6.81347 35.7201 7.19466 36.0774 7.81347L45.4226 24Z" fill="url(#paint0_radial_3322_188128)"/>
<path d="M24.625 33.9813L16.2437 31.075C16.0937 31.0188 16 30.8875 16 30.7188V19.7313L24.625 22.3563V33.9813ZM25.375 33.9813L33.7562 31.075C33.9062 31.0188 34 30.8875 34 30.7188V19.7313L25.375 22.3563V33.9813ZM16 18.9812L25 21.6063L34 18.9812L25.1125 16.0375C25.0375 16.0188 24.9437 16.0188 24.8687 16.0375L16 18.9812Z" fill="white"/>
<path d="M46.9896 24.25C47.2576 24.7141 47.2576 25.2859 46.9896 25.75L36.6443 43.6686C36.3764 44.1327 35.8812 44.4186 35.3453 44.4186L14.6547 44.4186C14.1188 44.4186 13.6236 44.1327 13.3557 43.6686L3.01037 25.75C2.74242 25.2859 2.74242 24.7141 3.01037 24.25L13.3557 6.33141C13.6236 5.86731 14.1188 5.58141 14.6547 5.58141L35.3453 5.58141C35.8812 5.58141 36.3764 5.86731 36.6443 6.33142L46.9896 24.25Z" stroke="#539BDA" stroke-opacity="0.3"/>
<path d="M48.9896 24.25C49.2576 24.7141 49.2576 25.2859 48.9896 25.75L37.6443 45.4006C37.3764 45.8647 36.8812 46.1506 36.3453 46.1506L13.6547 46.1506C13.1188 46.1506 12.6236 45.8647 12.3557 45.4006L1.01037 25.75C0.742415 25.2859 0.742415 24.7141 1.01037 24.25L12.3557 4.59936C12.6236 4.13526 13.1188 3.84936 13.6547 3.84936L36.3453 3.84936C36.8812 3.84936 37.3764 4.13526 37.6443 4.59936L48.9896 24.25Z" stroke="#539BDA" stroke-opacity="0.3"/>
<rect x="19" y="3" width="12" height="2" rx="1" fill="#B4E4FF"/>
<defs>
<radialGradient id="paint0_radial_3322_188128" cx="0" cy="0" r="1" gradientUnits="userSpaceOnUse" gradientTransform="translate(25 25) rotate(-180) scale(21)">
<stop offset="0.432292" stop-color="#094185" stop-opacity="0.38"/>
<stop offset="1" stop-color="#031121"/>
</radialGradient>
</defs>
</svg>
