<svg width="38" height="36" viewBox="0 0 38 36" fill="none" xmlns="http://www.w3.org/2000/svg">
<rect x="1" width="36" height="36" rx="2" fill="#4BDEFF" fill-opacity="0.1"/>
<rect x="1.5" y="0.5" width="35" height="35" rx="1.5" stroke="#4BDEFF" stroke-opacity="0.5"/>
<path opacity="0.1" d="M1 18.2812L37 18" stroke="#4BDEFF" stroke-dasharray="2 2"/>
<path opacity="0.1" d="M18.7188 0V36" stroke="#4BDEFF" stroke-dasharray="2 2"/>
<circle cx="19" cy="18" r="11.25" stroke="url(#paint0_angular_1721_33569)" stroke-dasharray="2 2"/>
<rect opacity="0.2" x="5.5" y="4.5" width="27" height="27" rx="2" fill="#4BDEFF" fill-opacity="0.2" stroke="#4BDEFF"/>
<path d="M25.75 5H30.5V4H25.75V5ZM32 6.5V11.25H33V6.5H32ZM30.5 5C31.3284 5 32 5.67157 32 6.5H33C33 5.11929 31.8807 4 30.5 4V5ZM32 24.75V29.5H33V24.75H32ZM30.5 31H25.75V32H30.5V31ZM32 29.5C32 30.3284 31.3284 31 30.5 31V32C31.8807 32 33 30.8807 33 29.5H32ZM12.25 31H7.5V32H12.25V31ZM6 29.5V24.75H5V29.5H6ZM7.5 31C6.67157 31 6 30.3284 6 29.5H5C5 30.8807 6.11929 32 7.5 32V31ZM6 11.25V6.5H5V11.25H6ZM7.5 5H12.25V4H7.5V5ZM6 6.5C6 5.67157 6.67157 5 7.5 5V4C6.11929 4 5 5.11929 5 6.5H6Z" fill="#4BDEFF"/>
<rect opacity="0.01" x="8.875" y="7.875" width="20.25" height="20.25" fill="#D8D8D8"/>
<g filter="url(#filter0_d_1721_33569)">
<path d="M19 9C14.0345 9 10 13.0345 10 18C10 22.9655 14.0345 27 19 27C23.9655 27 28 22.9655 28 18C28 13.0345 23.9655 9 19 9ZM24.1207 20.3276C24.1103 20.3276 24.1103 20.3276 24.1207 20.3276H22C21.8138 20.3276 21.6483 20.1931 21.6172 20.0069L21.2448 17.7724L19.8483 22.6241C19.7966 22.7897 19.6517 22.9034 19.4759 22.9034H19.4655C19.2897 22.8931 19.1345 22.769 19.1034 22.5931L17.4793 15.031L16.4552 19.3862C16.4138 19.5621 16.2586 19.6862 16.0724 19.6862H13.8793C13.6828 19.6862 13.5172 19.5207 13.5172 19.3241C13.5172 19.1276 13.6828 18.9621 13.8793 18.9621H15.8138L17.1172 13.4069C17.1586 13.231 17.3138 13.1069 17.5 13.1069C17.6862 13.1069 17.8414 13.231 17.8724 13.4172L19.5069 21.1345L20.9345 16.1483C20.9862 15.9724 21.1414 15.8586 21.3276 15.869C21.5138 15.8793 21.6586 16.0138 21.6897 16.1897L22.269 19.6034H24.1103C24.3069 19.6034 24.4724 19.769 24.4724 19.9655C24.4828 20.1621 24.3172 20.3276 24.1207 20.3276Z" fill="#4BDEFF"/>
</g>
<defs>
<filter id="filter0_d_1721_33569" x="6" y="7" width="26" height="26" filterUnits="userSpaceOnUse" color-interpolation-filters="sRGB">
<feFlood flood-opacity="0" result="BackgroundImageFix"/>
<feColorMatrix in="SourceAlpha" type="matrix" values="0 0 0 0 0 0 0 0 0 0 0 0 0 0 0 0 0 0 127 0" result="hardAlpha"/>
<feOffset dy="2"/>
<feGaussianBlur stdDeviation="2"/>
<feColorMatrix type="matrix" values="0 0 0 0 0.105882 0 0 0 0 0.2 0 0 0 0 0.341176 0 0 0 0.5 0"/>
<feBlend mode="normal" in2="BackgroundImageFix" result="effect1_dropShadow_1721_33569"/>
<feBlend mode="normal" in="SourceGraphic" in2="effect1_dropShadow_1721_33569" result="shape"/>
</filter>
<radialGradient id="paint0_angular_1721_33569" cx="0" cy="0" r="1" gradientUnits="userSpaceOnUse" gradientTransform="translate(19 18) scale(11.25)">
<stop offset="0.116068" stop-color="#4B94FF" stop-opacity="0.2"/>
<stop offset="0.25" stop-color="#4B94FF" stop-opacity="0.01"/>
<stop offset="0.588446" stop-color="#4B94FF" stop-opacity="0.2"/>
<stop offset="0.745114" stop-color="#4B94FF" stop-opacity="0.01"/>
</radialGradient>
</defs>
</svg>
