<svg width="28" height="26" viewBox="0 0 28 26" fill="none" xmlns="http://www.w3.org/2000/svg">
<path fill-rule="evenodd" clip-rule="evenodd" d="M4.59918 5.02197C4.23519 5.18121 4 5.54083 4 5.93813V18.4818C4 18.8266 4.17762 19.1471 4.47 19.3298L13.1534 24.757C13.6723 25.0812 14.3306 25.0812 14.8494 24.757L23.5329 19.3298C23.8252 19.1471 24.0029 18.8266 24.0029 18.4818V5.93813C24.0029 5.54083 23.7677 5.18121 23.4037 5.02197L14.4023 1.08384C14.1467 0.972052 13.8561 0.972052 13.6006 1.08384L4.59918 5.02197ZM14.001 20.9114C18.4889 20.9114 22.1272 17.2732 22.1272 12.7852C22.1272 8.29725 18.4889 4.65904 14.001 4.65904C9.51303 4.65904 5.87482 8.29725 5.87482 12.7852C5.87482 17.2732 9.51303 20.9114 14.001 20.9114Z" fill="url(#paint0_linear_2625_37737)"/>
<g filter="url(#filter0_d_2625_37737)">
<path d="M16.5142 17.302H15.493L15.375 17.0795H12.625L12.5072 17.302H11.4857C11.2877 17.302 11.1282 17.4585 11.1282 17.6511C11.1282 17.8437 11.2877 18 11.4857 18H16.5142C16.7123 18 16.8725 17.8437 16.8725 17.6511C16.8725 17.4585 16.7123 17.302 16.5142 17.302ZM18.5839 8H9.41697C8.82461 8 8.5 8.34332 8.5 8.92123V15.6987C8.5 16.2766 8.82451 16.6183 9.41697 16.6183H18.5829C19.1754 16.6183 19.5 16.2766 19.5 15.6977V8.92123C19.5 8.34411 19.1755 8.00079 18.5839 8ZM16.8622 11.7251C16.8563 11.7327 16.8502 11.7401 16.8439 11.7473L14.9185 13.9308C14.8418 14.0138 14.7367 14.0639 14.6248 14.0708C14.513 14.0777 14.4027 14.0409 14.3167 13.9679L12.9198 12.7568L11.8405 13.8736C11.6676 14.0507 11.3747 14.0563 11.1948 13.8862V13.8858C11.1541 13.8484 11.1215 13.803 11.0989 13.7522C11.0764 13.7015 11.0643 13.6466 11.0635 13.5909C11.0627 13.5353 11.0732 13.48 11.0944 13.4287C11.1155 13.3773 11.1469 13.3309 11.1864 13.2924L12.6437 11.8218C12.7194 11.7485 12.8193 11.7067 12.9238 11.7048C13.0283 11.7028 13.1298 11.7408 13.208 11.8113L14.5886 13.0822L16.1759 11.2701C16.2547 11.1845 16.362 11.132 16.4769 11.1229C16.5919 11.1137 16.706 11.1485 16.7969 11.2205C16.8341 11.249 16.8653 11.2848 16.8888 11.3258C16.9122 11.3667 16.9274 11.412 16.9335 11.4589C16.9396 11.5059 16.9364 11.5536 16.9242 11.5993C16.9119 11.645 16.8909 11.6878 16.8622 11.7251Z" fill="#B4E4FF"/>
</g>
<defs>
<filter id="filter0_d_2625_37737" x="0.5" y="0" width="27" height="26" filterUnits="userSpaceOnUse" color-interpolation-filters="sRGB">
<feFlood flood-opacity="0" result="BackgroundImageFix"/>
<feColorMatrix in="SourceAlpha" type="matrix" values="0 0 0 0 0 0 0 0 0 0 0 0 0 0 0 0 0 0 127 0" result="hardAlpha"/>
<feOffset/>
<feGaussianBlur stdDeviation="4"/>
<feComposite in2="hardAlpha" operator="out"/>
<feColorMatrix type="matrix" values="0 0 0 0 0.0375 0 0 0 0 0.6535 0 0 0 0 1 0 0 0 1 0"/>
<feBlend mode="normal" in2="BackgroundImageFix" result="effect1_dropShadow_2625_37737"/>
<feBlend mode="normal" in="SourceGraphic" in2="effect1_dropShadow_2625_37737" result="shape"/>
</filter>
<linearGradient id="paint0_linear_2625_37737" x1="14.0014" y1="1" x2="14.0014" y2="25.0002" gradientUnits="userSpaceOnUse">
<stop stop-color="#DEF0FF"/>
<stop offset="1" stop-color="#8EA7BC"/>
</linearGradient>
</defs>
</svg>
