<svg width="62" height="62" viewBox="0 0 62 62" fill="none" xmlns="http://www.w3.org/2000/svg">
<g filter="url(#filter0_d_4305_216650)">
<rect x="4" y="2" width="54" height="54" rx="4" fill="url(#paint0_radial_4305_216650)" fill-opacity="0.5"/>
<path d="M14.3848 24.627H21.3807V29.8739H14.3848V24.627ZM23.1297 24.627H30.1257V29.8739H23.1297V24.627ZM31.8746 24.627H38.8706V29.8739H31.8746V24.627ZM40.6196 24.627H47.6155V29.8739H40.6196V24.627ZM14.3848 31.6229H21.3807V36.8699H14.3848V31.6229ZM23.1297 31.6229H30.1257V36.8699H23.1297V31.6229ZM31.8746 31.6229H38.8706V36.8699H31.8746V31.6229ZM40.6196 31.6229H47.6155V36.8699H40.6196V31.6229ZM14.3848 38.6189H21.3807V43.8658H14.3848V38.6189ZM23.1297 38.6189H30.1257V43.8658H23.1297V38.6189ZM31.8746 38.6189H38.8706V43.8658H31.8746V38.6189ZM40.6196 38.6189H47.6155V43.8658H40.6196V38.6189Z" fill="white"/>
<path d="M20.5059 22.8787C20.5059 20.0955 21.6115 17.4264 23.5795 15.4584C25.5475 13.4904 28.2166 12.3848 30.9998 12.3848C33.7829 12.3848 36.4521 13.4904 38.4201 15.4584C40.3881 17.4264 41.4937 20.0955 41.4937 22.8787" fill="#FFC909"/>
</g>
<defs>
<filter id="filter0_d_4305_216650" x="0" y="0" width="62" height="62" filterUnits="userSpaceOnUse" color-interpolation-filters="sRGB">
<feFlood flood-opacity="0" result="BackgroundImageFix"/>
<feColorMatrix in="SourceAlpha" type="matrix" values="0 0 0 0 0 0 0 0 0 0 0 0 0 0 0 0 0 0 127 0" result="hardAlpha"/>
<feOffset dy="2"/>
<feGaussianBlur stdDeviation="2"/>
<feComposite in2="hardAlpha" operator="out"/>
<feColorMatrix type="matrix" values="0 0 0 0 0 0 0 0 0 0 0 0 0 0 0 0 0 0 0.1 0"/>
<feBlend mode="normal" in2="BackgroundImageFix" result="effect1_dropShadow_4305_216650"/>
<feBlend mode="normal" in="SourceGraphic" in2="effect1_dropShadow_4305_216650" result="shape"/>
</filter>
<radialGradient id="paint0_radial_4305_216650" cx="0" cy="0" r="1" gradientUnits="userSpaceOnUse" gradientTransform="translate(31 26.4687) rotate(134.304) scale(33.0336)">
<stop stop-color="#0E7FA2"/>
<stop offset="0.223958" stop-color="#1486B4" stop-opacity="0"/>
<stop offset="0.465383" stop-color="#1689B9" stop-opacity="0"/>
<stop offset="1" stop-color="#1D92CD"/>
</radialGradient>
</defs>
</svg>
