<svg width="48" height="48" viewBox="0 0 48 48" fill="none" xmlns="http://www.w3.org/2000/svg">
<rect width="48" height="48" rx="4" fill="url(#paint0_radial_4633_202941)" fill-opacity="0.5"/>
<path d="M10.2168 22.9062H16.021V27.2594H10.2168V22.9062ZM17.472 22.9062H23.2762V27.2594H17.472V22.9062ZM24.7273 22.9062H30.5315V27.2594H24.7273V22.9062ZM31.9825 22.9062H37.7867V27.2594H31.9825V22.9062ZM10.2168 28.7104H16.021V33.0636H10.2168V28.7104ZM17.472 28.7104H23.2762V33.0636H17.472V28.7104ZM24.7273 28.7104H30.5315V33.0636H24.7273V28.7104ZM31.9825 28.7104H37.7867V33.0636H31.9825V28.7104ZM10.2168 34.5146H16.021V38.8678H10.2168V34.5146ZM17.472 34.5146H23.2762V38.8678H17.472V34.5146ZM24.7273 34.5146H30.5315V38.8678H24.7273V34.5146ZM31.9825 34.5146H37.7867V38.8678H31.9825V34.5146Z" fill="white"/>
<path d="M16.5342 20.9336C16.5342 18.9533 17.3209 17.0541 18.7212 15.6538C20.1215 14.2535 22.0207 13.4668 24.001 13.4668C25.9814 13.4668 27.8806 14.2535 29.2809 15.6538C30.6812 17.0541 31.4679 18.9533 31.4679 20.9336" fill="#FFC909"/>
<path d="M23.9874 6C24.5643 6 24.8527 6.28844 24.8527 6.86533V10.4576C24.8527 11.0345 24.5643 11.3229 23.9874 11.3229C23.4105 11.3229 23.1221 11.0345 23.1221 10.4576V6.86533C23.1221 6.28844 23.4105 6 23.9874 6Z" fill="#FFC908"/>
<path d="M14.0979 10.095C14.5059 9.68708 14.9138 9.68708 15.3217 10.095L17.8618 12.6351C18.2697 13.0431 18.2697 13.451 17.8618 13.8589C17.4539 14.2668 17.046 14.2668 16.6381 13.8589L14.0979 11.3188C13.69 10.9108 13.69 10.5029 14.0979 10.095Z" fill="#FFC908"/>
<path d="M10.8653 19.123H14.4576C15.0345 19.123 15.3229 19.4115 15.3229 19.9884C15.3229 20.5653 15.0345 20.8537 14.4576 20.8537H10.8653C10.2884 20.8537 10 20.5653 10 19.9884C10 19.4115 10.2884 19.123 10.8653 19.123Z" fill="#FFC908"/>
<path d="M33.5431 19.1758H37.1354C37.7122 19.1758 38.0007 19.4642 38.0007 20.0411C38.0007 20.618 37.7122 20.9064 37.1354 20.9064H33.5431C32.9662 20.9064 32.6777 20.618 32.6777 20.0411C32.6777 19.4642 32.9662 19.1758 33.5431 19.1758Z" fill="#FFC908"/>
<path d="M30.1682 12.6566L32.7084 10.1165C33.1163 9.70857 33.5242 9.70857 33.9321 10.1165C34.3401 10.5244 34.3401 10.9323 33.9321 11.3402L31.392 13.8804C30.9841 14.2883 30.5762 14.2883 30.1682 13.8804C29.7603 13.4725 29.7603 13.0645 30.1682 12.6566Z" fill="#FFC908"/>
<defs>
<radialGradient id="paint0_radial_4633_202941" cx="0" cy="0" r="1" gradientUnits="userSpaceOnUse" gradientTransform="translate(24 21.75) rotate(134.304) scale(29.3632)">
<stop stop-color="#0E7FA2"/>
<stop offset="0.223958" stop-color="#1486B4" stop-opacity="0"/>
<stop offset="0.465383" stop-color="#1689B9" stop-opacity="0"/>
<stop offset="1" stop-color="#1D92CD"/>
</radialGradient>
</defs>
</svg>
