<svg width="60" height="60" viewBox="0 0 60 60" fill="none" xmlns="http://www.w3.org/2000/svg">
<circle cx="30" cy="30" r="30" fill="#0D151F"/>
<path d="M36.8865 26.2059C36.8865 26.3039 36.7764 26.4755 36.5563 26.7206C36.3362 26.9657 36.1003 27.2549 35.8487 27.5882C35.5972 27.9216 35.3613 28.2843 35.1412 28.6765C34.9211 29.0686 34.811 29.4706 34.811 29.8824C34.811 30.2941 34.9211 30.6912 35.1412 31.0735C35.3613 31.4559 35.5972 31.8039 35.8487 32.1176C36.1003 32.4314 36.3362 32.6912 36.5563 32.8971C36.7764 33.1029 36.8865 33.2353 36.8865 33.2941V36.3824C36.8865 36.7157 36.7554 37.0931 36.4934 37.5147C36.2313 37.9363 35.9064 38.3333 35.5185 38.7059C35.1307 39.0784 34.7009 39.3873 34.2292 39.6324C33.7575 39.8775 33.312 40 32.8928 40H17.2638C16.6978 40 16.1789 39.9069 15.7072 39.7206C15.2355 39.5343 14.8215 39.2745 14.4651 38.9412C14.1087 38.6078 13.8309 38.2157 13.6317 37.7647C13.4326 37.3137 13.333 36.8235 13.333 36.2941V23.6176C13.333 23.2255 13.4273 22.8186 13.616 22.3971C13.8047 21.9755 14.072 21.5882 14.4179 21.2353C14.7638 20.8824 15.1726 20.5882 15.6443 20.3529C16.116 20.1176 16.6349 20 17.2009 20H32.8299C33.3959 20 33.9253 20.0931 34.4179 20.2794C34.9106 20.4657 35.3403 20.7206 35.7072 21.0441C36.0741 21.3676 36.3624 21.7549 36.572 22.2059C36.7816 22.6569 36.8865 23.1373 36.8865 23.6471V26.2059ZM46.6663 23.4412V36.8824C46.6663 37.3137 46.5458 37.6961 46.3047 38.0294C46.0636 38.3627 45.702 38.5294 45.2198 38.5294C45.0521 38.5294 44.8372 38.4706 44.5751 38.3529C44.3131 38.2353 44.051 38.098 43.789 37.9412C43.5269 37.7843 43.2806 37.6275 43.05 37.4706C42.8194 37.3137 42.6517 37.1863 42.5468 37.0882C42.2743 36.8725 41.8603 36.5 41.3047 35.9706C40.7492 35.4412 40.1884 34.8431 39.6223 34.1765C39.0563 33.5098 38.5584 32.8235 38.1286 32.1176C37.6988 31.4118 37.484 30.7647 37.484 30.1765C37.484 29.5882 37.7146 28.9167 38.1758 28.1618C38.637 27.4069 39.1925 26.6667 39.8424 25.9412C40.4923 25.2157 41.1737 24.5441 41.8865 23.9265C42.5993 23.3088 43.1967 22.8431 43.6789 22.5294C43.8676 22.4118 44.1244 22.2696 44.4494 22.1029C44.7743 21.9363 45.0626 21.8529 45.3141 21.8529C45.8802 21.8529 46.2471 22 46.4148 22.2941C46.5825 22.5882 46.6663 22.951 46.6663 23.3824V23.4412Z" fill="white"/>
<rect x="14.667" y="11.542" width="2.66667" height="40" transform="rotate(-30 14.667 11.542)" fill="#2C2C2C"/>
<rect x="16.793" y="12.2085" width="2" height="40" transform="rotate(-30 16.793 12.2085)" fill="white"/>
</svg>
