<svg width="60" height="60" viewBox="0 0 60 60" fill="none" xmlns="http://www.w3.org/2000/svg">
<circle cx="30" cy="30" r="30" fill="#41A6FF"/>
<path d="M29.6648 12.6665C26.3035 12.6665 23.5777 15.4015 23.5777 18.7751V29.5142C23.5777 32.8878 26.3035 35.6228 29.6648 35.6228C33.026 35.6228 35.7517 32.8878 35.7517 29.5142V18.7751C35.7517 15.4015 33.026 12.6665 29.6648 12.6665ZM19.2672 27.9863C18.5666 27.9863 18 28.5549 18 29.2591C18 29.3481 18.0076 29.4331 18.0267 29.5142H18C18 35.4603 22.4215 40.3619 28.1449 41.1124V44.277H26.116C25.2737 44.277 24.5923 44.9618 24.5923 45.8052C24.5923 46.6484 25.2737 47.3332 26.116 47.3332H33.2173C34.0596 47.3332 34.7409 46.6484 34.7409 45.8052C34.7409 44.9618 34.0596 44.277 33.2173 44.277H31.1885V41.1124C36.7432 40.3851 41.0615 35.739 41.3064 30.0251C41.3217 29.9438 41.3333 29.8587 41.3333 29.7697C41.3333 29.7387 41.3257 29.7117 41.3257 29.6847C41.3257 29.6265 41.3333 29.5725 41.3333 29.5143H41.3064C41.1877 28.934 40.6787 28.4969 40.0622 28.4969C39.4496 28.4969 38.9367 28.934 38.818 29.5143H38.7913C38.7913 34.5745 34.7027 38.6752 29.6608 38.6752C24.6191 38.6752 20.5304 34.5745 20.5304 29.5143H20.5036C20.519 29.4331 20.5304 29.3481 20.5304 29.2591C20.5343 28.5549 19.9678 27.9863 19.2672 27.9863Z" fill="white"/>
</svg>
