<svg width="14" height="14" viewBox="0 0 14 14" fill="none" xmlns="http://www.w3.org/2000/svg">
<path d="M2.39805 12.759V8.29924C2.39805 5.63148 4.50042 3.46782 7.0957 3.46782C9.69098 3.46782 11.7934 5.63149 11.7934 8.29924V12.759H13.397C13.73 12.759 14 13.0369 14 13.3795C14 13.7222 13.73 14 13.397 14H0.603011C0.269971 14 0 13.7222 0 13.3795C0 13.0369 0.269971 12.759 0.603011 12.759H2.39807H2.39805ZM7.43577 5.41482L5.11861 9.34002H6.97178L6.50781 12.2839L8.82497 8.35872H6.97177L7.43576 5.41482H7.43577ZM10.9893 1.10308C11.2069 1.23334 11.2812 1.5208 11.1559 1.74454L10.3229 3.23419L9.5354 2.76547L10.3684 1.27582C10.4923 1.0521 10.7704 0.975641 10.9865 1.10308H10.9893ZM7.09433 0C7.36695 0 7.58724 0.21099 7.58724 0.472957V2.16083H6.60144V0.471547C6.60142 0.211004 6.82171 0 7.09433 0H7.09432H7.09433ZM3.20213 1.10308C3.41829 0.974217 3.69639 1.05068 3.82169 1.273C3.82169 1.273 3.82169 1.27441 3.82306 1.27441L4.65604 2.76406L3.86849 3.23276L3.03552 1.74311C2.91026 1.51938 2.98459 1.23334 3.20211 1.10308H3.20213ZM0.352117 4.04698C0.476023 3.82323 0.754134 3.74535 0.971684 3.87421C0.971684 3.87421 0.973054 3.87421 0.973054 3.87563L2.41594 4.73657L1.9616 5.54936L0.518699 4.68699C0.301177 4.55814 0.226814 4.27068 0.352117 4.04695V4.04698ZM13.8393 4.04698C13.9646 4.27069 13.8902 4.55815 13.6727 4.68841L12.2298 5.54794L11.7755 4.73516L13.2183 3.87421C13.4345 3.74536 13.7126 3.82182 13.8379 4.04413C13.8379 4.04554 13.8393 4.04554 13.8393 4.04695V4.04698H13.8393Z" fill="white"/>
</svg>
