<svg width="63" height="63" viewBox="0 0 63 63" fill="none" xmlns="http://www.w3.org/2000/svg">
<g filter="url(#filter0_d_4273_198813)">
<rect x="4" y="2" width="55" height="55" rx="4" fill="url(#paint0_radial_4273_198813)" fill-opacity="0.5"/>
<path fill-rule="evenodd" clip-rule="evenodd" d="M38.701 13.2422H16.9678V44.2897H38.701V13.2422ZM23.423 30.4273C22.8019 31.3329 23.4303 32.616 24.5469 32.616H28.9139L26.2272 35.9074C25.9988 36.192 25.8897 36.5572 25.9239 36.9235C25.958 37.2898 26.1326 37.6275 26.4095 37.863C26.6864 38.0985 27.0433 38.2127 27.4024 38.1808C27.7614 38.1488 28.0936 37.9733 28.3265 37.6925L32.8802 32.1139C33.6215 31.2055 32.9886 29.8267 31.8301 29.8267H27.4631L30.1498 26.5353L30.2345 26.421C30.4292 26.1243 30.5051 25.7627 30.4464 25.4106C30.3877 25.0586 30.199 24.7429 29.9191 24.5287C29.6392 24.3145 29.2895 24.2181 28.942 24.2593C28.5945 24.3005 28.2758 24.4762 28.0514 24.7502L23.4977 30.3288L23.423 30.4273Z" fill="white"/>
<path d="M36.5894 11C37.4348 11 38.2455 11.3428 38.8433 11.9531C39.4411 12.5634 39.777 13.3911 39.777 14.2542V22.3217H42.5092C43.6828 22.3218 44.8111 22.7845 45.6586 23.6132C46.5062 24.4419 47.0076 25.5727 47.0583 26.7697L47.0629 26.9706V36.801C47.0631 37.2208 47.2222 37.6243 47.507 37.9271C47.7918 38.2299 48.1802 38.4087 48.5911 38.426C49.0019 38.4432 49.4034 38.2977 49.7117 38.0199C50.0199 37.742 50.211 37.3532 50.245 36.9349L50.2505 36.801V20.0197C50.2505 19.7452 50.1909 19.4741 50.0761 19.2259C49.9613 18.9777 49.7942 18.7585 49.5866 18.5841L49.4682 18.493L45.7633 15.8645C45.4762 15.6597 45.2772 15.3501 45.2074 14.9997C45.1375 14.6493 45.2021 14.285 45.3879 13.9818C45.5736 13.6787 45.8663 13.46 46.2055 13.3709C46.5447 13.2818 46.9044 13.329 47.2104 13.5029L47.3216 13.5736L51.0274 16.202C51.5998 16.6081 52.0734 17.143 52.4114 17.7653C52.7495 18.3877 52.9431 19.081 52.9773 19.7919L52.9827 20.0197V36.801C52.9825 37.9547 52.5401 39.0625 51.7501 39.8874C50.9601 40.7124 49.8853 41.189 48.7555 41.2154C47.6258 41.2417 46.5307 40.8157 45.7047 40.0285C44.8786 39.2412 44.3871 38.1552 44.3352 37.0027L44.3307 36.801V26.9706C44.3306 26.5016 44.1569 26.05 43.8445 25.7062C43.532 25.3624 43.1039 25.1518 42.6458 25.1166L42.5092 25.111H39.777V43.5418H42.5092C42.8488 43.5418 43.1762 43.6709 43.4276 43.904C43.679 44.1371 43.8363 44.4574 43.8689 44.8025L43.8753 44.9364C43.8753 45.2831 43.7488 45.6174 43.5205 45.874C43.2921 46.1307 42.9784 46.2913 42.6403 46.3246L42.5092 46.3311H13.3654C13.0146 46.3309 12.6773 46.1929 12.4234 45.9458C12.1695 45.6986 12.0184 45.3612 12.0016 45.0034C11.9847 44.6457 12.1033 44.295 12.3328 44.0241C12.5623 43.7532 12.8851 43.5828 13.2343 43.5483L13.3654 43.5418H16.0977V14.2542C16.0977 13.3911 16.4335 12.5634 17.0313 11.9531C17.6291 11.3428 18.4399 11 19.2853 11H36.5894ZM36.5894 13.7893H19.2853C19.1645 13.7893 19.0487 13.8383 18.9633 13.9255C18.8779 14.0126 18.8299 14.1309 18.8299 14.2542V43.5418H37.0447V14.2542C37.0447 14.1309 36.9968 14.0126 36.9114 13.9255C36.826 13.8383 36.7101 13.7893 36.5894 13.7893Z" fill="white"/>
</g>
<defs>
<filter id="filter0_d_4273_198813" x="0" y="0" width="63" height="63" filterUnits="userSpaceOnUse" color-interpolation-filters="sRGB">
<feFlood flood-opacity="0" result="BackgroundImageFix"/>
<feColorMatrix in="SourceAlpha" type="matrix" values="0 0 0 0 0 0 0 0 0 0 0 0 0 0 0 0 0 0 127 0" result="hardAlpha"/>
<feOffset dy="2"/>
<feGaussianBlur stdDeviation="2"/>
<feComposite in2="hardAlpha" operator="out"/>
<feColorMatrix type="matrix" values="0 0 0 0 0 0 0 0 0 0 0 0 0 0 0 0 0 0 0.1 0"/>
<feBlend mode="normal" in2="BackgroundImageFix" result="effect1_dropShadow_4273_198813"/>
<feBlend mode="normal" in="SourceGraphic" in2="effect1_dropShadow_4273_198813" result="shape"/>
</filter>
<radialGradient id="paint0_radial_4273_198813" cx="0" cy="0" r="1" gradientUnits="userSpaceOnUse" gradientTransform="translate(31.5 26.9219) rotate(135) scale(24.7487)">
<stop stop-color="#A20E0E"/>
<stop offset="0.223958" stop-color="#B41414" stop-opacity="0"/>
<stop offset="0.465383" stop-color="#B91616" stop-opacity="0"/>
<stop offset="1" stop-color="#CD1D1D" stop-opacity="0.6"/>
</radialGradient>
</defs>
</svg>
