<svg width="20" height="20" viewBox="0 0 20 20" fill="none" xmlns="http://www.w3.org/2000/svg">
<path d="M15.7897 7.23145H4.21023C3.55492 7.23424 2.92724 7.4958 2.46385 7.95919C2.00047 8.42257 1.73891 9.05025 1.73611 9.70556V17.5208C1.73892 18.1756 2.00065 18.8028 2.46418 19.2653C2.92772 19.7278 3.5554 19.9882 4.21023 19.9896H15.7897C16.4446 19.9882 17.0723 19.7278 17.5358 19.2653C17.9993 18.8028 18.2611 18.1756 18.2639 17.5208V9.70556C18.2611 9.05025 17.9995 8.42257 17.5361 7.95919C17.0727 7.4958 16.4451 7.23424 15.7897 7.23145ZM11.0114 14.0273V16.5917H8.97264V14.022C8.57778 13.7956 8.26878 13.4451 8.09366 13.0249C7.91854 12.6048 7.88711 12.1386 8.00426 11.6988C8.12142 11.2589 8.38059 10.8701 8.74149 10.5928C9.1024 10.3154 9.54482 10.165 9.99998 10.165C10.4552 10.165 10.8976 10.3154 11.2585 10.5928C11.6194 10.8701 11.8786 11.2589 11.9957 11.6988C12.1129 12.1386 12.0814 12.6048 11.9063 13.0249C11.7312 13.4451 11.4222 13.7956 11.0273 14.022L11.0114 14.0273Z" fill="white"/>
<path d="M15.4447 7.30024H13.8519V5.442C13.8519 4.42112 13.4463 3.44206 12.7245 2.72019C12.0026 1.99832 11.0235 1.59278 10.0027 1.59278C8.98179 1.59278 8.00273 1.99832 7.28086 2.72019C6.55899 3.44206 6.15345 4.42112 6.15345 5.442V7.30024H4.56067V5.442C4.56067 3.99869 5.13402 2.6145 6.15459 1.59392C7.17516 0.573352 8.55936 0 10.0027 0C11.446 0 12.8302 0.573352 13.8507 1.59392C14.8713 2.6145 15.4447 3.99869 15.4447 5.442V7.30024Z" fill="white"/>
</svg>
