<svg width="162" height="215" viewBox="0 0 162 215" fill="none" xmlns="http://www.w3.org/2000/svg">
<ellipse opacity="0.589844" cx="80" cy="39.0698" rx="80" ry="39.0698" transform="matrix(-1 0 0 1 161 136.186)" stroke="url(#paint0_linear_903_51509)" stroke-width="0.5"/>
<g filter="url(#filter0_i_903_51509)">
<ellipse cx="62.1395" cy="30.1395" rx="62.1395" ry="30.1395" transform="matrix(-1 0 0 1 143.139 139.052)" fill="black" fill-opacity="0.01"/>
</g>
<ellipse opacity="0.750396" cx="69.2093" cy="33.4884" rx="69.2093" ry="33.4884" transform="matrix(-1 0 0 1 149.093 137.674)" stroke="url(#paint1_linear_903_51509)" stroke-width="0.2"/>
<path d="M40.1112 114.122L80.652 137.407V155.486L80.7526 191.705L40.2118 168.244L40.1112 132.189V114.122Z" fill="url(#paint2_linear_903_51509)"/>
<path d="M121.458 114.11L121.445 132.014H121.458L121.558 168.207L80.7533 191.706L80.6527 155.487V137.408L121.458 114.11Z" fill="url(#paint3_linear_903_51509)"/>
<path d="M40.1121 114.123L80.6529 137.408L121.458 114.111L80.6529 90.6626L40.1121 114.123Z" fill="url(#paint4_linear_903_51509)"/>
<path d="M53.093 127.256L80.5597 142.891V155.03L80.6279 179.349L53.1612 163.596L53.093 139.387V127.256Z" fill="url(#paint5_linear_903_51509)"/>
<path d="M108.163 128.041L108.024 139.994H108.032L108.163 163.574L80.6282 179.346V155.035L80.565 143.615L108.163 128.041Z" fill="url(#paint6_linear_903_51509)"/>
<path d="M53.0932 128.059L80.5386 143.628L108.163 128.05L80.5386 112.372L53.0932 128.059Z" fill="url(#paint7_linear_903_51509)"/>
<path d="M96.1206 104.262L80.6835 112.984L80.6706 124.704L96.0818 115.874L96.1206 104.262Z" fill="url(#paint8_linear_903_51509)"/>
<path d="M80.7816 112.984L65.2604 104.262L65.2152 115.906L80.7687 124.704L80.7816 112.984Z" fill="url(#paint9_linear_903_51509)"/>
<path d="M96.1282 104.262L80.6911 112.984L65.1699 104.262L80.6975 95.4707L96.1282 104.262Z" fill="url(#paint10_linear_903_51509)"/>
<path d="M80.6069 110.602L91.8533 104.263L80.6845 97.9243L69.4381 104.263L80.6069 110.602Z" fill="url(#paint11_linear_903_51509)"/>
<path d="M39.6976 40.9298V88.7026L101.915 52.1049V4.48828L39.6976 40.9298Z" fill="url(#paint12_linear_903_51509)"/>
<path d="M49.3724 69.6145L52.3492 68.4653V79.4479L49.3724 80.5971V69.6145Z" fill="url(#paint13_linear_903_51509)"/>
<path d="M55.3255 63.8724L58.3023 62.5117V75.5154L55.3255 76.876V63.8724Z" fill="url(#paint14_linear_903_51509)"/>
<path d="M61.279 57.5271L64.2557 55.814V72.1861L61.279 73.8992V57.5271Z" fill="url(#paint15_linear_903_51509)"/>
<ellipse opacity="0.1" cx="53.837" cy="46.8674" rx="6.69767" ry="11.1467" fill="#6884D7"/>
<path d="M35.5137 38.6978L39.7285 40.9303V88.6396L35.5137 86.2467V38.6978Z" fill="url(#paint16_linear_903_51509)"/>
<path d="M101.901 4.53902L97.4307 2.25586L35.516 38.7122L39.7042 40.9329L101.901 4.53902Z" fill="url(#paint17_linear_903_51509)"/>
<path fill-rule="evenodd" clip-rule="evenodd" d="M55.6518 35.2638L54.5814 47.0529L60.3397 47.5731C60.3397 47.5731 62.0846 43.0708 60.9346 38.5193C59.7846 33.9679 55.6518 35.2638 55.6518 35.2638Z" fill="#004D8F"/>
<path opacity="0.2" d="M71.043 57.6039L76.1939 40.407L84.1718 46.2106L89.0816 31.259L93.127 32.917L98.1885 17.0405" stroke="#26B6FE"/>
<ellipse cx="76.5349" cy="40.5421" rx="1.11628" ry="1.84433" fill="#085793"/>
<ellipse cx="83.977" cy="45.7516" rx="1.11628" ry="1.84433" fill="#085793"/>
<ellipse cx="89.1863" cy="30.8678" rx="1.11628" ry="1.84433" fill="#085793"/>
<ellipse cx="92.907" cy="33.1002" rx="1.11628" ry="1.84433" fill="#085793"/>
<ellipse cx="98.1163" cy="16.7281" rx="1.11628" ry="1.84433" fill="#085793"/>
<ellipse cx="71.3256" cy="57.6583" rx="1.11628" ry="1.84433" fill="#085793"/>
<path d="M87.3255 51.7655V79.628L123.046 58.2831V30.5117L87.3255 51.7655Z" fill="url(#paint18_linear_903_51509)"/>
<path d="M92.5348 68.3552L94.0232 67.7207V73.7839L92.5348 74.4184V68.3552Z" fill="url(#paint19_linear_903_51509)"/>
<path d="M96.2559 64.7754L97.7442 64V71.4106L96.2559 72.186V64.7754Z" fill="url(#paint20_linear_903_51509)"/>
<path d="M99.2324 61.2662L100.721 60.2793V69.711L99.2324 70.6979V61.2662Z" fill="url(#paint21_linear_903_51509)"/>
<ellipse opacity="0.1" cx="94.7675" cy="54.6977" rx="3.72093" ry="6.32558" fill="#6884D7"/>
<path d="M84.349 49.8604L87.2976 51.5477V79.6118L84.349 77.493V49.8604Z" fill="url(#paint22_linear_903_51509)"/>
<path d="M123.061 30.5341L120.441 29.0234L84.349 50.0671L87.2501 51.7702L123.061 30.5341Z" fill="url(#paint23_linear_903_51509)"/>
<path fill-rule="evenodd" clip-rule="evenodd" d="M96.0966 47.7976L95.5117 54.7625L98.658 55.0698C98.658 55.0698 99.6114 52.4099 98.983 49.7209C98.3547 47.032 96.0966 47.7976 96.0966 47.7976Z" fill="#004D8F"/>
<path opacity="0.2" d="M105.186 61.0234L108.151 50.9275L112.744 54.3346L115.571 45.5568L117.9 46.5302L120.814 37.2095" stroke="#26B6FE"/>
<ellipse cx="108.163" cy="50.9766" rx="0.744186" ry="1.11628" fill="#085793"/>
<ellipse cx="112.628" cy="53.9537" rx="0.744186" ry="1.11628" fill="#085793"/>
<ellipse cx="115.605" cy="45.7676" rx="0.744186" ry="1.11628" fill="#085793"/>
<ellipse cx="117.837" cy="47.2559" rx="0.744186" ry="1.11628" fill="#085793"/>
<ellipse cx="120.814" cy="37.5816" rx="0.744186" ry="1.11628" fill="#085793"/>
<ellipse cx="105.186" cy="61.3956" rx="0.744186" ry="1.11628" fill="#085793"/>
<path fill-rule="evenodd" clip-rule="evenodd" d="M69.6008 104.186L58.7816 78.9108C58.7816 78.9108 67.7867 65.4749 80.4686 65.4883C93.1505 65.5017 104.356 78.4466 104.356 78.4466L91.5242 104.599L80.4686 110.786L69.6008 104.186Z" fill="url(#paint24_linear_903_51509)"/>
<defs>
<filter id="filter0_i_903_51509" x="18.8604" y="139.052" width="124.279" height="60.2793" filterUnits="userSpaceOnUse" color-interpolation-filters="sRGB">
<feFlood flood-opacity="0" result="BackgroundImageFix"/>
<feBlend mode="normal" in="SourceGraphic" in2="BackgroundImageFix" result="shape"/>
<feColorMatrix in="SourceAlpha" type="matrix" values="0 0 0 0 0 0 0 0 0 0 0 0 0 0 0 0 0 0 127 0" result="hardAlpha"/>
<feOffset/>
<feGaussianBlur stdDeviation="6.5"/>
<feComposite in2="hardAlpha" operator="arithmetic" k2="-1" k3="1"/>
<feColorMatrix type="matrix" values="0 0 0 0 0 0 0 0 0 0.816576 0 0 0 0 1 0 0 0 0.5 0"/>
<feBlend mode="normal" in2="shape" result="effect1_innerShadow_903_51509"/>
</filter>
<linearGradient id="paint0_linear_903_51509" x1="93.1112" y1="3.35649" x2="72.7386" y2="65.1962" gradientUnits="userSpaceOnUse">
<stop stop-color="#00E3FF"/>
<stop offset="0.393774" stop-color="#003CFF" stop-opacity="0.19837"/>
<stop offset="1" stop-color="#00B5FF"/>
</linearGradient>
<linearGradient id="paint1_linear_903_51509" x1="14.6228" y1="7.17438" x2="14.6224" y2="56.8793" gradientUnits="userSpaceOnUse">
<stop stop-color="#00E3FF"/>
<stop offset="0.393774" stop-color="#003CFF" stop-opacity="0.19837"/>
<stop offset="1" stop-color="#00B5FF"/>
</linearGradient>
<linearGradient id="paint2_linear_903_51509" x1="79.7146" y1="118.085" x2="79.7146" y2="191.705" gradientUnits="userSpaceOnUse">
<stop stop-color="#01417B" stop-opacity="0.583418"/>
<stop offset="1" stop-color="#016BC0"/>
</linearGradient>
<linearGradient id="paint3_linear_903_51509" x1="120.514" y1="118.074" x2="120.514" y2="191.706" gradientUnits="userSpaceOnUse">
<stop stop-color="#013564" stop-opacity="0.644871"/>
<stop offset="1" stop-color="#015BA3"/>
</linearGradient>
<linearGradient id="paint4_linear_903_51509" x1="118.278" y1="92.6908" x2="118.278" y2="135.781" gradientUnits="userSpaceOnUse">
<stop stop-color="#00B8FF" stop-opacity="0.01"/>
<stop offset="1" stop-color="#0094FF"/>
</linearGradient>
<linearGradient id="paint5_linear_903_51509" x1="79.9246" y1="129.917" x2="79.9246" y2="179.349" gradientUnits="userSpaceOnUse">
<stop stop-color="#01417B"/>
<stop offset="1" stop-color="#016BC0"/>
</linearGradient>
<linearGradient id="paint6_linear_903_51509" x1="107.458" y1="130.661" x2="107.458" y2="179.346" gradientUnits="userSpaceOnUse">
<stop stop-color="#0067C4"/>
<stop offset="1" stop-color="#015BA3"/>
</linearGradient>
<linearGradient id="paint7_linear_903_51509" x1="106.01" y1="113.728" x2="106.01" y2="142.54" gradientUnits="userSpaceOnUse">
<stop stop-color="#00B8FF" stop-opacity="0.426178"/>
<stop offset="1" stop-color="#0094FF"/>
</linearGradient>
<linearGradient id="paint8_linear_903_51509" x1="81.0652" y1="105.306" x2="81.0652" y2="124.704" gradientUnits="userSpaceOnUse">
<stop stop-color="#009DFF"/>
<stop offset="1" stop-color="#0069B6" stop-opacity="0.791242"/>
</linearGradient>
<linearGradient id="paint9_linear_903_51509" x1="65.6128" y1="105.306" x2="65.6128" y2="124.704" gradientUnits="userSpaceOnUse">
<stop stop-color="#007CC9"/>
<stop offset="1" stop-color="#003C69" stop-opacity="0.462664"/>
</linearGradient>
<linearGradient id="paint10_linear_903_51509" x1="66.3802" y1="96.2306" x2="66.3802" y2="112.375" gradientUnits="userSpaceOnUse">
<stop stop-color="#00B8FF" stop-opacity="0.426178"/>
<stop offset="1" stop-color="#0094FF"/>
</linearGradient>
<linearGradient id="paint11_linear_903_51509" x1="70.3144" y1="98.4743" x2="70.3144" y2="110.16" gradientUnits="userSpaceOnUse">
<stop stop-color="#00B8FF" stop-opacity="0.426178"/>
<stop offset="1" stop-color="#0094FF"/>
</linearGradient>
<linearGradient id="paint12_linear_903_51509" x1="83.1931" y1="1.78272" x2="18.5392" y2="29.0743" gradientUnits="userSpaceOnUse">
<stop stop-color="#013564" stop-opacity="0.581776"/>
<stop offset="1" stop-color="#015BA3" stop-opacity="0.889748"/>
</linearGradient>
<linearGradient id="paint13_linear_903_51509" x1="52.1413" y1="79.7955" x2="52.1413" y2="69.3578" gradientUnits="userSpaceOnUse">
<stop stop-color="#025093" stop-opacity="0.01"/>
<stop offset="1" stop-color="#016BC0" stop-opacity="0.426602"/>
</linearGradient>
<linearGradient id="paint14_linear_903_51509" x1="58.0944" y1="75.927" x2="58.0944" y2="63.5684" gradientUnits="userSpaceOnUse">
<stop stop-color="#025093" stop-opacity="0.01"/>
<stop offset="1" stop-color="#016BC0" stop-opacity="0.426602"/>
</linearGradient>
<linearGradient id="paint15_linear_903_51509" x1="64.0479" y1="72.7043" x2="64.0479" y2="57.1444" gradientUnits="userSpaceOnUse">
<stop stop-color="#025093" stop-opacity="0.01"/>
<stop offset="1" stop-color="#016BC0" stop-opacity="0.426602"/>
</linearGradient>
<linearGradient id="paint16_linear_903_51509" x1="35.6213" y1="41.2489" x2="35.6213" y2="88.6396" gradientUnits="userSpaceOnUse">
<stop stop-color="#01417B" stop-opacity="0.583418"/>
<stop offset="1" stop-color="#016BC0"/>
</linearGradient>
<linearGradient id="paint17_linear_903_51509" x1="38.1111" y1="3.93395" x2="38.1111" y2="39.5871" gradientUnits="userSpaceOnUse">
<stop stop-color="#00B8FF" stop-opacity="0.426178"/>
<stop offset="1" stop-color="#0094FF"/>
</linearGradient>
<linearGradient id="paint18_linear_903_51509" x1="88.2379" y1="33.0207" x2="88.2379" y2="79.628" gradientUnits="userSpaceOnUse">
<stop stop-color="#013564" stop-opacity="0.644871"/>
<stop offset="1" stop-color="#015BA3"/>
</linearGradient>
<linearGradient id="paint19_linear_903_51509" x1="93.9193" y1="73.9758" x2="93.9193" y2="68.2134" gradientUnits="userSpaceOnUse">
<stop stop-color="#025093" stop-opacity="0.01"/>
<stop offset="1" stop-color="#016BC0" stop-opacity="0.426602"/>
</linearGradient>
<linearGradient id="paint20_linear_903_51509" x1="97.6403" y1="71.6452" x2="97.6403" y2="64.6022" gradientUnits="userSpaceOnUse">
<stop stop-color="#025093" stop-opacity="0.01"/>
<stop offset="1" stop-color="#016BC0" stop-opacity="0.426602"/>
</linearGradient>
<linearGradient id="paint21_linear_903_51509" x1="100.617" y1="70.0095" x2="100.617" y2="61.0457" gradientUnits="userSpaceOnUse">
<stop stop-color="#025093" stop-opacity="0.01"/>
<stop offset="1" stop-color="#016BC0" stop-opacity="0.426602"/>
</linearGradient>
<linearGradient id="paint22_linear_903_51509" x1="84.4243" y1="51.3801" x2="84.4243" y2="79.6118" gradientUnits="userSpaceOnUse">
<stop stop-color="#01417B" stop-opacity="0.583418"/>
<stop offset="1" stop-color="#016BC0"/>
</linearGradient>
<linearGradient id="paint23_linear_903_51509" x1="85.8623" y1="30.0104" x2="85.8623" y2="50.9787" gradientUnits="userSpaceOnUse">
<stop stop-color="#00B8FF" stop-opacity="0.426178"/>
<stop offset="1" stop-color="#0094FF"/>
</linearGradient>
<linearGradient id="paint24_linear_903_51509" x1="57.667" y1="66.1291" x2="58.9409" y2="111.079" gradientUnits="userSpaceOnUse">
<stop stop-color="#071138" stop-opacity="0.01"/>
<stop offset="1" stop-color="#009DFA" stop-opacity="0.717533"/>
</linearGradient>
</defs>
</svg>
