<svg xmlns="http://www.w3.org/2000/svg" viewBox="0 0 63.22 42.04">
    <defs>
        <style>
            .cls-1 {
                fill: #4653a2;
            }
        </style>
    </defs>
    <g id="图层_2" data-name="图层 2">
        <g id="图层_1-2" data-name="图层 1">
            <path class="cls-1"
                d="M25.84,17C16.67,22.91,11.46,29.71,13,35.21c.87,3.16,3.84,5.46,8.27,6.83h42V20.52L63,20.7C51.1,26.46,37.37,23.17,25.84,17Z" />
            <path class="cls-1"
                d="M46.66,7.74A86,86,0,0,0,28.18,15.6c15.91,7.27,30.39,5.13,35,.45V4.42A87,87,0,0,0,46.66,7.74Z" />
            <path class="cls-1"
                d="M52.49,3.93A91.87,91.87,0,0,1,63.21,2.55V0H7.12A68.18,68.18,0,0,0,24.18,13.59a108,108,0,0,1,12.87-5.5A104.09,104.09,0,0,1,52.49,3.93Z" />
            <path class="cls-1"
                d="M4.64,0H0V38.76a.29.29,0,0,0,.3.3h0a.32.32,0,0,0,.3-.24c2.42-10.7,11.12-18.53,21.31-24A68.46,68.46,0,0,1,4.64,0Z" />
        </g>
    </g>
</svg>