<svg width="22" height="22" viewBox="0 0 22 22" fill="none" xmlns="http://www.w3.org/2000/svg">
<rect width="22" height="22" rx="4" fill="#FA2A2D"/>
<mask id="mask0_577_30646" style="mask-type:alpha" maskUnits="userSpaceOnUse" x="0" y="0" width="22" height="22">
<rect width="22" height="22" rx="4" fill="#FA2A2D"/>
</mask>
<g mask="url(#mask0_577_30646)">
<rect x="25.0017" y="-29.1504" width="38.4692" height="38.4692" rx="8" transform="rotate(45 25.0017 -29.1504)" fill="white" fill-opacity="0.4"/>
</g>
<path d="M9.6127 10.3249C8.8633 10.3263 8.13032 10.1054 7.50651 9.69016C6.8827 9.27488 6.39611 8.68387 6.10832 7.99193C5.82053 7.3 5.74448 6.53824 5.88979 5.80306C6.0351 5.06788 6.39524 4.39234 6.92463 3.86192C7.45402 3.3315 8.12886 2.97005 8.86375 2.82332C9.59865 2.67658 10.3606 2.75115 11.053 3.0376C11.7455 3.32405 12.3375 3.80949 12.754 4.43249C13.1705 5.05549 13.3928 5.78804 13.3928 6.53744C13.3934 7.03437 13.2961 7.52654 13.1064 7.98585C12.9168 8.44516 12.6385 8.8626 12.2874 9.21432C11.9364 9.56604 11.5195 9.84515 11.0605 10.0357C10.6016 10.2263 10.1096 10.3245 9.6127 10.3249ZM12.2185 11.8031C11.4803 12.7147 11.1201 13.8747 11.212 15.0441C11.3039 16.2134 11.8409 17.3029 12.7124 18.088C11.7593 18.2711 10.7908 18.3618 9.82021 18.3589C5.76328 18.3589 2.47485 16.8485 2.47485 14.9892C2.47485 13.1299 5.76328 11.6149 9.82021 11.6149C10.6233 11.6148 11.4252 11.6777 12.2185 11.8031Z" fill="white"/>
<path fill-rule="evenodd" clip-rule="evenodd" d="M12.8372 16.2324C12.6642 15.8147 12.5751 15.3669 12.5752 14.9147C12.5751 14.4625 12.6642 14.0147 12.8372 13.597C13.0102 13.1792 13.2638 12.7996 13.5835 12.4798C13.9033 12.16 14.2828 11.9064 14.7006 11.7333C15.1184 11.5603 15.5661 11.4712 16.0183 11.4712C16.4705 11.4712 16.9183 11.5603 17.336 11.7333C17.7538 11.9064 18.1334 12.16 18.4531 12.4798C18.7729 12.7996 19.0265 13.1792 19.1995 13.597C19.3725 14.0147 19.4615 14.4625 19.4615 14.9147C19.4615 15.3669 19.3725 15.8147 19.1995 16.2324C19.0265 16.6502 18.7729 17.0298 18.4531 17.3496C18.1334 17.6694 17.7538 17.923 17.336 18.0961C16.9183 18.2691 16.4705 18.3582 16.0183 18.3582C15.5661 18.3582 15.1184 18.2691 14.7006 18.0961C14.2828 17.923 13.9033 17.6694 13.5835 17.3496C13.2638 17.0298 13.0102 16.6502 12.8372 16.2324ZM15.8007 16.0944L15.6814 12.7293H16.7483L16.6229 16.0944H15.8007ZM16.2552 17.669C16.0881 17.6761 15.9243 17.6205 15.7961 17.5129C15.7414 17.4648 15.6977 17.4055 15.6681 17.3389C15.6384 17.2723 15.6235 17.2002 15.6244 17.1273C15.6226 17.0542 15.6372 16.9816 15.667 16.9149C15.6969 16.8482 15.7413 16.789 15.7971 16.7417C15.9143 16.6399 16.0656 16.5858 16.2208 16.5902C16.3756 16.5849 16.5266 16.6391 16.6427 16.7417C16.6968 16.7901 16.7398 16.8496 16.7688 16.9162C16.7978 16.9827 16.8121 17.0547 16.8107 17.1273C16.8118 17.1994 16.7979 17.2709 16.7699 17.3373C16.7418 17.4037 16.7002 17.4635 16.6477 17.5129C16.5423 17.6142 16.4014 17.6702 16.2552 17.669Z" fill="white"/>
</svg>
