<svg width="22" height="22" viewBox="0 0 22 22" fill="none" xmlns="http://www.w3.org/2000/svg">
<rect width="22" height="22" rx="4" fill="#FF7500"/>
<mask id="mask0_577_30663" style="mask-type:alpha" maskUnits="userSpaceOnUse" x="0" y="0" width="22" height="22">
<rect width="22" height="22" rx="4" fill="#FA2A2D"/>
</mask>
<g mask="url(#mask0_577_30663)">
<rect x="25.0017" y="-29.1504" width="38.4692" height="38.4692" rx="8" transform="rotate(45 25.0017 -29.1504)" fill="white" fill-opacity="0.4"/>
</g>
<path d="M18.0342 10.4763H17.2359V7.33348H18.0337V4.9765H19.6303V7.33348H20.4287V10.4763H19.6303V15.9761C19.6303 16.6012 19.3781 17.2008 18.929 17.6429C18.4799 18.0849 17.8708 18.3333 17.2357 18.3333C16.6006 18.3333 15.9915 18.0849 15.5424 17.6429C15.0933 17.2008 14.841 16.6012 14.841 15.9761V12.8333H13.2449V16.7624H14.0432V18.3335H3.66675V16.7614H4.46505V4.9765C4.46505 4.54267 4.82214 4.19067 5.26286 4.19067H12.4466C12.8873 4.19067 13.2449 4.54267 13.2449 4.9765V11.2621H14.8415C15.2649 11.2622 15.6709 11.4279 15.9702 11.7226C16.2695 12.0173 16.4376 12.417 16.4376 12.8338V15.9766C16.4376 16.185 16.5217 16.3848 16.6714 16.5322C16.8212 16.6796 17.0242 16.7624 17.2359 16.7624C17.4477 16.7624 17.6507 16.6796 17.8004 16.5322C17.9501 16.3848 18.0342 16.185 18.0342 15.9766V10.4758V10.4763ZM9.25388 10.4763V7.33348L6.06116 12.0484H8.45608V15.1912L11.6483 10.4768H9.25438L9.25388 10.4763Z" fill="white"/>
</svg>
