<svg width="22" height="22" viewBox="0 0 22 22" fill="none" xmlns="http://www.w3.org/2000/svg">
<rect width="21.9999" height="21.9999" rx="4" fill="#FFBF00"/>
<mask id="mask0_577_30675" style="mask-type:alpha" maskUnits="userSpaceOnUse" x="0" y="0" width="22" height="23">
<rect y="0.000244141" width="21.9999" height="21.9999" rx="4" fill="#FA2A2D"/>
</mask>
<g mask="url(#mask0_577_30675)">
<rect x="25.0017" y="-29.1501" width="38.4691" height="38.4691" rx="8" transform="rotate(45 25.0017 -29.1501)" fill="white" fill-opacity="0.4"/>
</g>
<path d="M17.2234 18.304H4.77453C2.85058 18.304 2.06639 16.9738 3.03376 15.3468L9.25577 4.88538C10.2219 3.25954 11.8035 3.26074 12.7684 4.88778L18.9689 15.3456C19.9327 16.9726 19.1473 18.304 17.2234 18.304ZM11.0001 6.55073C10.4805 6.55073 10.0603 6.97216 10.0603 7.49056L10.5308 13.6024H11.4706L11.9412 7.49056C11.94 6.97096 11.5197 6.55073 11.0001 6.55073ZM11.0001 14.5435C10.4805 14.5435 10.0603 14.9649 10.0603 15.4833C10.0603 16.0017 10.4805 16.4231 11.0001 16.4231C11.5197 16.4231 11.94 16.0017 11.94 15.4833C11.94 14.9649 11.5197 14.5435 11.0001 14.5435Z" fill="white"/>
</svg>
