<svg width="232.000000" height="232.000000" viewBox="0 0 232 232" fill="none" xmlns="http://www.w3.org/2000/svg" xmlns:xlink="http://www.w3.org/1999/xlink">
	<desc>
			Created with Pixso.
	</desc>
	<defs>
		
		<filter id="filter_1_35404_dd" x="32.000000" y="8.000000" width="168.000000" height="168.000000" filterUnits="userSpaceOnUse" color-interpolation-filters="sRGB">
			<feFlood flood-opacity="0" result="BackgroundImageFix"/>
			<feColorMatrix in="SourceAlpha" type="matrix" values="0 0 0 0 0 0 0 0 0 0 0 0 0 0 0 0 0 0 127 0" result="hardAlpha"/>
			<feOffset dx="0" dy="0"/>
			<feGaussianBlur stdDeviation="13.3333"/>
			<feComposite in2="hardAlpha" operator="out" k2="-1" k3="1"/>
			<feColorMatrix type="matrix" values="0 0 0 0 0 0 0 0 0 0.69804 0 0 0 0 1 0 0 0 0.2 0"/>
			<feBlend mode="normal" in2="BackgroundImageFix" result="effect_dropShadow_1"/>
			<feBlend mode="normal" in="SourceGraphic" in2="effect_dropShadow_1" result="shape"/>
		</filter>
		
		<linearGradient x1="76.000000" y1="52.000000" x2="76.000000" y2="132.000000" id="paint_linear_1_35404_0" gradientUnits="userSpaceOnUse">
			<stop stop-color="#0E64A2"/>
			<stop offset="1.000000" stop-color="#1D39CD" stop-opacity="0.913725"/>
		</linearGradient>
		<linearGradient x1="80.762459" y1="61.524925" x2="80.762459" y2="132.000000" id="paint_linear_1_35404_1" gradientUnits="userSpaceOnUse">
			<stop stop-color="#BDDBFF"/>
			<stop offset="1.000000" stop-color="#4180FB"/>
		</linearGradient>
		<linearGradient x1="82.316406" y1="58.316406" x2="82.316406" y2="125.684822" id="paint_linear_1_35405_0" gradientUnits="userSpaceOnUse">
			<stop stop-color="#0A2966" stop-opacity="0.788235"/>
			<stop offset="1.000000" stop-color="#091643" stop-opacity="0.850980"/>
		</linearGradient>
		<linearGradient x1="86.326904" y1="66.337395" x2="86.326904" y2="125.684822" id="paint_linear_1_35405_1" gradientUnits="userSpaceOnUse">
			<stop stop-color="#A5D4FF"/>
			<stop offset="1.000000" stop-color="#4175FB"/>
		</linearGradient>
	</defs>
	<g style="transform:translate(-74px,-50px)">
		<g >
			<g filter="url(#filter_1_35404_dd)">
				<rect id="Rectangle 12172" x="76.000000" y="52.000000" rx="8.000000" width="80.000000" height="80.000000" fill="url(#paint_linear_1_35404_0)" fill-opacity="0.500000"/>
			</g>
			<rect id="Rectangle 12172" x="74.000000" y="50.000000" rx="8.000000" width="84.000000" height="84.000000" stroke="url(#paint_linear_1_35404_1)" stroke-opacity="1.000000" stroke-width="4.000000"/>
			<rect id="Rectangle 12173" x="82.316406" y="58.316406" rx="8.000000" width="67.368416" height="67.368416" fill="url(#paint_linear_1_35405_0)" fill-opacity="0.500000"/>
			<rect id="Rectangle 12173" x="82.316406" y="58.316406" rx="8.000000" width="67.368416" height="67.368416" stroke="url(#paint_linear_1_35405_1)" stroke-opacity="0.400000" stroke-width="4.000000" stroke-linejoin="round" stroke-dasharray="12 10"/>
		</g>
	<path  id="V2G" d="M114.84 94.78Q112.88 96.5 109.96 98.84L109.96 103L125.48 103L125.48 99.15L115.78 99.15L115.78 98.9L117.2 97.78Q119.63 95.86 121.14 94.41Q122.67 92.95 123.51 91.7Q124.36 90.45 124.67 89.28Q124.97 88.11 124.97 86.77Q124.97 84.33 123.78 82.85Q123.41 82.39 122.93 82.02Q120.88 80.46 117.2 80.46Q115.6 80.46 114.09 80.66Q112.59 80.85 111.31 81.27L111.31 85.14Q112.75 84.69 113.98 84.5Q115.21 84.31 116.3 84.31Q118.12 84.31 119.14 84.98Q119.27 85.06 119.38 85.16Q120.18 85.87 120.18 87.47Q120.18 88.43 119.68 89.44Q119.18 90.45 118 91.75Q116.81 93.04 114.84 94.78ZM135.42 102.84Q137.45 103.32 140.01 103.32Q142.09 103.32 144.02 103.03Q145.96 102.74 147.21 102.32L147.21 90.17L138.92 90.17L138.92 94.23L142.7 94.23L142.7 99.03Q142.16 99.15 141.58 99.19Q141 99.22 140.33 99.22Q138.7 99.22 137.56 98.9Q136.7 98.66 136.08 98.13Q135.89 97.96 135.72 97.77Q135.02 96.95 134.7 95.53Q134.38 94.1 134.38 91.89Q134.38 89.78 134.75 88.39Q135.12 87 135.87 86.15Q136.09 85.9 136.34 85.7Q136.96 85.2 137.78 84.96Q138.95 84.63 140.56 84.63Q141.99 84.63 143.45 84.85Q144.91 85.07 146.16 85.53L146.16 81.27Q145.64 81.07 144.94 80.93Q144.23 80.78 143.45 80.69Q142.66 80.6 141.81 80.53Q140.97 80.46 140.17 80.46Q137.58 80.46 135.53 81.04Q133.83 81.52 132.54 82.53Q132.28 82.74 132.04 82.96Q130.6 84.31 129.84 86.5Q129.07 88.69 129.07 91.89Q129.07 95.38 129.82 97.6Q130.57 99.82 131.98 101.09Q132.14 101.24 132.32 101.37Q133.63 102.41 135.42 102.84ZM91.78 80.78L86.41 80.78L94.06 103L100.1 103L107.92 80.78L102.86 80.78L97.32 97.81L97.13 97.81L91.78 80.78Z" fill="#FFFFFF" fill-opacity="1.000000" fill-rule="evenodd"/>
	</g>
</svg>
