<svg width="24" height="25" viewBox="0 0 24 25" fill="none" xmlns="http://www.w3.org/2000/svg">
<path d="M24 11.2142C24 10.5441 23.4525 10 22.7782 10H16.2218C15.5475 10 15 10.5441 15 11.2142V22.7858C15 23.4559 15.5475 24 16.2218 24H22.7782C23.4525 24 24 23.4559 24 22.7858V11.2142Z" fill="#3C517A"/>
<path d="M15 15H24V16H15V15Z" fill="#FFCB66"/>
<path d="M15 11H24V15H15V11Z" fill="#00A2FF"/>
<path d="M21 9.49995C20.9999 9.22386 20.8447 9.0001 20.6531 9H18.3469C18.1553 9.0001 18.0001 9.22386 18 9.49995V10.5C18.0001 10.7761 18.1553 10.9999 18.3469 11H20.6531C20.8447 10.9999 20.9999 10.7761 21 10.5V9.49995Z" fill="#B0BEE6"/>
<path d="M20 9.49995C19.9999 9.22386 19.7929 9.0001 19.5375 9H18.4625C18.2071 9.0001 18.0001 9.22386 18 9.49995V10.5C18.0001 10.7761 18.2071 10.9999 18.4625 11H19.5375C19.7929 10.9999 19.9999 10.7761 20 10.5V9.49995Z" fill="#BCD0F5"/>
<path d="M24 11H15C15.0653 10.4382 15.5855 10 16.2168 10H22.7832C23.4145 10 23.9347 10.4382 24 11Z" fill="#C6D2F8"/>
<path d="M19.5262 18.1412C19.5262 18.0777 19.4867 18.022 19.4298 18.0051C19.3728 17.9882 19.3123 18.0142 19.282 18.0688L18.0186 20.3398C17.9943 20.3834 17.9938 20.4377 18.0171 20.4819C18.0404 20.5261 18.0841 20.5534 18.1314 20.5535H19.3948C19.4674 20.5535 19.5262 20.6167 19.5262 20.6947V21.8587C19.5261 21.9229 19.5664 21.9791 19.6242 21.9954C19.682 22.0117 19.7428 21.984 19.7721 21.928L20.9831 19.62C21.006 19.5762 21.0056 19.5227 20.982 19.4794C20.9585 19.4361 20.9153 19.4094 20.8686 19.4094H19.6576C19.5851 19.4094 19.5262 19.3462 19.5262 19.2682V18.1412Z" fill="white"/>
<path fill-rule="evenodd" clip-rule="evenodd" d="M2.25492 0H15.7845C17.0247 0 18.0394 1.01471 18.0394 2.25492V8H15C13.8954 8 13 8.89543 13 10V24.8041H12.4021C11.782 24.8041 11.2746 24.2968 11.2746 23.6767V22.5492H6.76477V23.6767C6.76477 24.2968 6.25741 24.8041 5.63731 24.8041H3.38238C2.76228 24.8041 2.25492 24.2968 2.25492 23.6767V22.5492C1.01471 22.5492 0 21.5345 0 20.2943V2.25492C0 1.01471 1.01471 0 2.25492 0ZM14.3751 3.38238H3.66425C3.21326 3.38238 2.81865 3.777 2.81865 4.22798C2.81865 4.67896 3.21326 5.07358 3.66425 5.07358H14.3751C14.8261 5.07358 15.2207 4.67896 15.2207 4.22798C15.2207 3.777 14.8261 3.38238 14.3751 3.38238ZM4.50985 18.885C4.50985 18.434 4.11523 18.0394 3.66425 18.0394C3.21326 18.0394 2.81865 18.434 2.81865 18.885C2.81865 19.336 3.21326 19.7306 3.66425 19.7306C4.11523 19.7306 4.50985 19.336 4.50985 18.885ZM5.63731 18.885C5.63731 19.336 6.03192 19.7306 6.4829 19.7306C6.93389 19.7306 7.3285 19.336 7.3285 18.885C7.3285 18.434 6.93389 18.0394 6.4829 18.0394C6.03192 18.0394 5.63731 18.434 5.63731 18.885ZM8.45596 18.885C8.45596 19.336 8.85057 19.7306 9.30156 19.7306C9.75254 19.7306 10.1472 19.336 10.1472 18.885C10.1472 18.434 9.75254 18.0394 9.30156 18.0394C8.85057 18.0394 8.45596 18.434 8.45596 18.885ZM7.55399 16.5173C7.49762 16.9119 7.9486 17.0247 8.17409 16.6864L11.7256 12.1202C12.0075 11.782 11.782 11.331 11.3874 11.331H9.47067L9.86529 7.21575C9.92166 6.82114 9.47067 6.7084 9.24518 7.04663L5.63731 11.6129C5.35544 11.9511 5.58093 12.4021 5.97554 12.4021H7.89223L7.55399 16.5173Z" fill="url(#paint0_linear_3425_194205)"/>
<defs>
<linearGradient id="paint0_linear_3425_194205" x1="9.01969" y1="0" x2="9.01969" y2="24.8041" gradientUnits="userSpaceOnUse">
<stop stop-color="#2CD8FF"/>
<stop offset="1" stop-color="#0079DE"/>
</linearGradient>
</defs>
</svg>
