<svg width="30" height="21" viewBox="0 0 30 21" fill="none" xmlns="http://www.w3.org/2000/svg">
<path d="M4.94443 16.4062H3.05554C2.50326 16.4062 2.05554 16.854 2.05554 17.4062V19.3125C2.05554 19.8648 2.50326 20.3125 3.05554 20.3125H4.94443C5.49672 20.3125 5.94443 19.8648 5.94443 19.3125V17.4062C5.94443 16.854 5.49672 16.4062 4.94443 16.4062Z" fill="url(#paint0_linear_1156_45678)"/>
<path d="M20.1233 0C21.8662 0 23.4085 1.12851 23.9358 2.7897C23.9938 2.97234 24.0419 3.14683 24.0803 3.31317L22.7863 3.31257C22.4941 2.35769 21.8434 1.73789 20.8341 1.45316H7.95228L7.75471 1.51474C6.79092 1.84508 6.1875 2.51218 5.94444 3.51602C5.75 4.31909 5.54544 5.10572 5.33076 5.87591L5.1127 6.64062L19.5 6.64V17.187L2.5 17.1875C1.39543 17.1875 0.5 16.2921 0.5 15.1875V10.0312C0.5 8.3744 1.84315 7.03125 3.5 7.03125H2.82787C3.09541 7.04609 3.37889 6.85008 3.67833 6.44321C4.12749 5.8329 4.30241 5.36823 4.42314 3.93451C4.45154 3.59721 4.53335 3.2156 4.66855 2.7897C5.1959 1.12851 6.73817 0 8.48105 0L20.1233 0ZM17.9983 12.5H11.0017C10.786 12.5 10.6111 12.6749 10.6111 12.8906C10.6111 13.0794 10.745 13.2369 10.923 13.2733L11.0017 13.2812H17.9983C18.214 13.2812 18.3889 13.1064 18.3889 12.8906C18.3889 12.6749 18.214 12.5 17.9983 12.5ZM7.27778 10.1562H3.83333C3.3205 10.1562 2.89783 10.5423 2.84006 11.0396L2.83333 11.1562V11.5C2.83333 12.0128 3.21937 12.4355 3.71671 12.4933L3.83333 12.5H7.27778C7.79061 12.5 8.21328 12.114 8.27105 11.6166L8.27778 11.5V11.1562C8.27778 10.604 7.83006 10.1562 7.27778 10.1562ZM17.9983 10.1562H11.0017C10.786 10.1562 10.6111 10.3311 10.6111 10.5469C10.6111 10.7356 10.745 10.8931 10.923 10.9296L11.0017 10.9375H17.9983C18.214 10.9375 18.3889 10.7626 18.3889 10.5469C18.3889 10.3311 18.214 10.1562 17.9983 10.1562Z" fill="url(#paint1_linear_1156_45678)"/>
<path d="M30 6.52674C30 5.85662 29.4525 5.3125 28.7782 5.3125H22.2218C21.5475 5.3125 21 5.85662 21 6.52674V18.0983C21 18.7684 21.5475 19.3125 22.2218 19.3125H28.7782C29.4525 19.3125 30 18.7684 30 18.0983V6.52674Z" fill="#3C517A"/>
<path d="M21 10.3125H30V11.3125H21V10.3125Z" fill="#FFCB66"/>
<path d="M21 6.3125H30V10.3125H21V6.3125Z" fill="#00A2FF"/>
<path d="M27 4.81245C26.9999 4.53636 26.8447 4.3126 26.6531 4.3125H24.3469C24.1553 4.3126 24.0001 4.53636 24 4.81245V5.81255C24.0001 6.08864 24.1553 6.3124 24.3469 6.3125H26.6531C26.8447 6.3124 26.9999 6.08864 27 5.81255V4.81245Z" fill="#B0BEE6"/>
<path d="M26 4.81245C25.9999 4.53636 25.7929 4.3126 25.5375 4.3125H24.4625C24.2071 4.3126 24.0001 4.53636 24 4.81245V5.81255C24.0001 6.08864 24.2071 6.3124 24.4625 6.3125H25.5375C25.7929 6.3124 25.9999 6.08864 26 5.81255V4.81245Z" fill="#BCD0F5"/>
<path d="M30 6.3125H21C21.0653 5.75071 21.5855 5.3125 22.2168 5.3125H28.7832C29.4145 5.3125 29.9347 5.75071 30 6.3125Z" fill="#C6D2F8"/>
<path d="M25.5262 13.4537C25.5262 13.3902 25.4867 13.3345 25.4298 13.3176C25.3728 13.3007 25.3123 13.3267 25.282 13.3813L24.0186 15.6523C23.9943 15.6959 23.9938 15.7502 24.0171 15.7944C24.0404 15.8386 24.0841 15.8659 24.1314 15.866H25.3948C25.4674 15.866 25.5262 15.9292 25.5262 16.0072V17.1712C25.5261 17.2354 25.5664 17.2916 25.6242 17.3079C25.682 17.3242 25.7428 17.2965 25.7721 17.2405L26.9831 14.9325C27.006 14.8887 27.0056 14.8352 26.982 14.7919C26.9585 14.7486 26.9153 14.7219 26.8686 14.7219H25.6576C25.5851 14.7219 25.5262 14.6587 25.5262 14.5807V13.4537Z" fill="white"/>
<defs>
<linearGradient id="paint0_linear_1156_45678" x1="3.99999" y1="16.4062" x2="3.99999" y2="20.3125" gradientUnits="userSpaceOnUse">
<stop stop-color="#0B3464"/>
<stop offset="1" stop-color="#208BF4"/>
</linearGradient>
<linearGradient id="paint1_linear_1156_45678" x1="12.2901" y1="0" x2="12.2901" y2="17.1875" gradientUnits="userSpaceOnUse">
<stop stop-color="#2CD8FF"/>
<stop offset="1" stop-color="#0079DE"/>
</linearGradient>
</defs>
</svg>
