<svg width="29" height="24" viewBox="0 0 29 24" fill="none" xmlns="http://www.w3.org/2000/svg">
<path fill-rule="evenodd" clip-rule="evenodd" d="M17.4353 9.86422L18.726 9.66734C19.3488 9.57224 19.5335 8.76496 19.0135 8.40959L17.9363 7.67327C16.9745 7.01575 16.6805 5.73067 17.2614 4.72156L17.9118 3.59148C18.2259 3.04622 17.7085 2.39859 17.1061 2.58296L15.8576 2.96479C14.7431 3.30562 13.5535 2.7336 13.1253 1.65121L12.6458 0.43883C12.4145 -0.146277 11.5849 -0.146277 11.3536 0.43883L10.8742 1.65121C10.4462 2.7336 9.25631 3.30562 8.14181 2.96479L6.89332 2.58296C6.29093 2.39888 5.77359 3.04622 6.0876 3.59148L6.73806 4.72156C7.31891 5.73067 7.02499 7.01575 6.06313 7.67327L4.98593 8.40959C4.46597 8.76496 4.65065 9.57224 5.27343 9.66734L6.56416 9.86422C7.71652 10.0399 8.53972 11.0708 8.45496 12.2314L8.35999 13.5313C8.31426 14.1586 9.06143 14.518 9.5243 14.0911L10.4832 13.2065C11.3394 12.4166 12.6598 12.4166 13.5159 13.2065L14.4749 14.0911C14.9377 14.518 15.6849 14.1589 15.6392 13.5313L15.5442 12.2314C15.4597 11.0705 16.2829 10.0399 17.4353 9.86422ZM12 10.3057C10.2508 10.3057 8.82752 8.88477 8.82752 7.13847C8.82752 5.39188 10.2508 3.97099 12 3.97099C13.7492 3.97099 15.1725 5.39188 15.1725 7.13847C15.1725 8.88477 13.7495 10.3057 12 10.3057ZM9.63412 14.534L9.34486 18.4951H14.6552L14.3659 14.534H9.63412ZM18 19.9538V23.9995H16.5224L16.2267 19.9538H18ZM18 18.4948V14.534H15.8308L16.1201 18.4948H18ZM9.23825 19.9538L8.94258 23.9995H15.0574L14.7618 19.9538H9.23825ZM2.07094 15.0784L1.19851 18.4951H7.87994L8.1692 14.5343H2.77267C2.44147 14.534 2.15279 14.7582 2.07094 15.0784ZM0.0228477 23.098C-0.0939615 23.5552 0.252097 23.9995 0.724577 23.9995H7.47766L7.77333 19.9538H0.825947L0.0228477 23.098ZM12 5.4187C11.0504 5.4187 10.2779 6.18992 10.2779 7.13825C10.2779 8.08599 11.0504 8.85751 12 8.85751C12.9496 8.85751 13.7221 8.08629 13.7221 7.13825C13.7221 6.19022 12.9496 5.4187 12 5.4187Z" fill="url(#paint0_linear_3237_188278)"/>
<path d="M29 11.2142C29 10.5441 28.4525 10 27.7782 10H21.2218C20.5475 10 20 10.5441 20 11.2142V22.7858C20 23.4559 20.5475 24 21.2218 24H27.7782C28.4525 24 29 23.4559 29 22.7858V11.2142Z" fill="#3C517A"/>
<path d="M20 15H29V16H20V15Z" fill="#FFCB66"/>
<path d="M20 11H29V15H20V11Z" fill="#00A2FF"/>
<path d="M26 9.49995C25.9999 9.22386 25.8447 9.0001 25.6531 9H23.3469C23.1553 9.0001 23.0001 9.22386 23 9.49995V10.5C23.0001 10.7761 23.1553 10.9999 23.3469 11H25.6531C25.8447 10.9999 25.9999 10.7761 26 10.5V9.49995Z" fill="#B0BEE6"/>
<path d="M25 9.49995C24.9999 9.22386 24.7929 9.0001 24.5375 9H23.4625C23.2071 9.0001 23.0001 9.22386 23 9.49995V10.5C23.0001 10.7761 23.2071 10.9999 23.4625 11H24.5375C24.7929 10.9999 24.9999 10.7761 25 10.5V9.49995Z" fill="#BCD0F5"/>
<path d="M29 11H20C20.0653 10.4382 20.5855 10 21.2168 10H27.7832C28.4145 10 28.9347 10.4382 29 11Z" fill="#C6D2F8"/>
<path d="M24.5262 18.1412C24.5262 18.0777 24.4867 18.022 24.4298 18.0051C24.3728 17.9882 24.3123 18.0142 24.282 18.0688L23.0186 20.3398C22.9943 20.3834 22.9938 20.4377 23.0171 20.4819C23.0404 20.5261 23.0841 20.5534 23.1314 20.5535H24.3948C24.4674 20.5535 24.5262 20.6167 24.5262 20.6947V21.8587C24.5261 21.9229 24.5664 21.9791 24.6242 21.9954C24.682 22.0117 24.7428 21.984 24.7721 21.928L25.9831 19.62C26.006 19.5762 26.0056 19.5227 25.982 19.4794C25.9585 19.4361 25.9153 19.4094 25.8686 19.4094H24.6576C24.5851 19.4094 24.5262 19.3462 24.5262 19.2682V18.1412Z" fill="white"/>
<defs>
<linearGradient id="paint0_linear_3237_188278" x1="9.65814" y1="0" x2="9.65814" y2="23.9995" gradientUnits="userSpaceOnUse">
<stop stop-color="#2CD8FF"/>
<stop offset="1" stop-color="#0079DE"/>
</linearGradient>
</defs>
</svg>
