<svg width="31" height="22" viewBox="0 0 31 22" fill="none" xmlns="http://www.w3.org/2000/svg">
<path d="M31 8.21424C31 7.54412 30.4525 7 29.7782 7H23.2218C22.5475 7 22 7.54412 22 8.21424V19.7858C22 20.4559 22.5475 21 23.2218 21H29.7782C30.4525 21 31 20.4559 31 19.7858V8.21424Z" fill="#3C517A"/>
<path d="M22 12.3125H31V13.3125H22V12.3125Z" fill="#FFCB66"/>
<path d="M22 8.3125H31V12.3125H22V8.3125Z" fill="#00A2FF"/>
<path d="M28 6.81245C27.9999 6.53636 27.8447 6.3126 27.6531 6.3125H25.3469C25.1553 6.3126 25.0001 6.53636 25 6.81245V7.81255C25.0001 8.08864 25.1553 8.3124 25.3469 8.3125H27.6531C27.8447 8.3124 27.9999 8.08864 28 7.81255V6.81245Z" fill="#B0BEE6"/>
<path d="M27 6.81245C26.9999 6.53636 26.7929 6.3126 26.5375 6.3125H25.4625C25.2071 6.3126 25.0001 6.53636 25 6.81245V7.81255C25.0001 8.08864 25.2071 8.3124 25.4625 8.3125H26.5375C26.7929 8.3124 26.9999 8.08864 27 7.81255V6.81245Z" fill="#BCD0F5"/>
<path d="M31 8.3125H22C22.0653 7.75071 22.5855 7.3125 23.2168 7.3125H29.7832C30.4145 7.3125 30.9347 7.75071 31 8.3125Z" fill="#C6D2F8"/>
<path d="M26.5262 15.4537C26.5262 15.3902 26.4867 15.3345 26.4298 15.3176C26.3728 15.3007 26.3123 15.3267 26.282 15.3813L25.0186 17.6523C24.9943 17.6959 24.9938 17.7502 25.0171 17.7944C25.0404 17.8386 25.0841 17.8659 25.1314 17.866H26.3948C26.4674 17.866 26.5262 17.9292 26.5262 18.0072V19.1712C26.5261 19.2354 26.5664 19.2916 26.6242 19.3079C26.682 19.3242 26.7428 19.2965 26.7721 19.2405L27.9831 16.9325C28.006 16.8887 28.0056 16.8352 27.982 16.7919C27.9585 16.7486 27.9153 16.7219 27.8686 16.7219H26.6576C26.5851 16.7219 26.5262 16.6587 26.5262 16.5807V15.4537Z" fill="white"/>
<path fill-rule="evenodd" clip-rule="evenodd" d="M8.15735 0H4.49335C3.98135 0 3.57601 0.410667 3.57601 0.917333C3.57601 1.424 3.98668 1.83467 4.49335 1.83467H8.15735C8.66401 1.83467 9.07468 1.424 9.07468 0.917333C9.07468 0.410667 8.66401 0 8.15735 0ZM20.968 0H17.304C16.7973 0 16.3867 0.410667 16.3867 0.917333C16.3867 1.424 16.7973 1.83467 17.304 1.83467H20.968C21.4747 1.83467 21.8853 1.424 21.8853 0.917333C21.8853 0.410667 21.4747 0 20.968 0ZM3.57601 2.74667H21.88C23.2211 2.74667 24.3474 3.72349 24.5819 5H21.4934C20.6692 5 20 5.69958 20 6.56116V10.9867H18.216V8.24H16.3867V10.9867H13.64V12.816H16.3867V15.5627H18.216V12.816H20V21.056H3.57601C2.06668 21.056 0.829346 19.8187 0.829346 18.3093V5.49333C0.829346 3.984 2.06668 2.74667 3.57601 2.74667ZM4.49335 12.8107H11.8107H11.816V10.9813H4.49335V12.8107Z" fill="url(#paint0_linear_3262_188472)"/>
<defs>
<linearGradient id="paint0_linear_3262_188472" x1="12.728" y1="0" x2="12.728" y2="21.056" gradientUnits="userSpaceOnUse">
<stop stop-color="#2CD8FF"/>
<stop offset="1" stop-color="#0079DE"/>
</linearGradient>
</defs>
</svg>
