<svg width="94.000000" height="93.916992" viewBox="0 0 94 93.917" fill="none" xmlns="http://www.w3.org/2000/svg" xmlns:xlink="http://www.w3.org/1999/xlink">
	<desc>
			Created with Pixso.
	</desc>
	<defs>
		<filter id="filter_1_133114_dd" x="33.868164" y="12.286133" width="26.311523" height="35.678711" filterUnits="userSpaceOnUse" color-interpolation-filters="sRGB">
			<feFlood flood-opacity="0" result="BackgroundImageFix"/>
			<feColorMatrix in="SourceAlpha" type="matrix" values="0 0 0 0 0 0 0 0 0 0 0 0 0 0 0 0 0 0 127 0" result="hardAlpha"/>
			<feOffset dx="0" dy="3"/>
			<feGaussianBlur stdDeviation="0.666667"/>
			<feComposite in2="hardAlpha" operator="out" k2="-1" k3="1"/>
			<feColorMatrix type="matrix" values="0 0 0 0 0 0 0 0 0 0 0 0 0 0 0 0 0 0 0.25 0"/>
			<feBlend mode="normal" in2="BackgroundImageFix" result="effect_dropShadow_1"/>
			<feBlend mode="normal" in="SourceGraphic" in2="effect_dropShadow_1" result="shape"/>
		</filter>
		<filter id="filter_1_133115_dd" x="10.945312" y="56.660156" width="73.238281" height="22.687500" filterUnits="userSpaceOnUse" color-interpolation-filters="sRGB">
			<feFlood flood-opacity="0" result="BackgroundImageFix"/>
			<feColorMatrix in="SourceAlpha" type="matrix" values="0 0 0 0 0 0 0 0 0 0 0 0 0 0 0 0 0 0 127 0" result="hardAlpha"/>
			<feOffset dx="0" dy="0"/>
			<feGaussianBlur stdDeviation="1.33333"/>
			<feComposite in2="hardAlpha" operator="out" k2="-1" k3="1"/>
			<feColorMatrix type="matrix" values="0 0 0 0 1 0 0 0 0 0.63137 0 0 0 0 0.082353 0 0 0 1 0"/>
			<feBlend mode="normal" in2="BackgroundImageFix" result="effect_dropShadow_1"/>
			<feBlend mode="normal" in="SourceGraphic" in2="effect_dropShadow_1" result="shape"/>
		</filter>
		<linearGradient id="paint_linear_1_133111_0" x1="47.000351" y1="71.654297" x2="46.567436" y2="93.917458" gradientUnits="userSpaceOnUse">
			<stop stop-color="#563708" stop-opacity="0.000000"/>
			<stop offset="1.000000" stop-color="#BE9D5E"/>
		</linearGradient>
		<linearGradient id="paint_linear_1_133111_1" x1="44.852539" y1="93.917488" x2="48.075203" y2="71.654305" gradientUnits="userSpaceOnUse">
			<stop stop-color="#FFECBC"/>
			<stop offset="0.880208" stop-color="#FF881A" stop-opacity="0.000000"/>
		</linearGradient>
		<linearGradient id="paint_linear_1_133112_0" x1="47.000000" y1="59.286133" x2="46.501564" y2="86.496658" gradientUnits="userSpaceOnUse">
			<stop stop-color="#563708" stop-opacity="0.000000"/>
			<stop offset="1.000000" stop-color="#BE9D5E"/>
		</linearGradient>
		<linearGradient id="paint_linear_1_133112_1" x1="44.525398" y1="86.496574" x2="48.236328" y2="59.286003" gradientUnits="userSpaceOnUse">
			<stop stop-color="#FFECBC"/>
			<stop offset="0.880208" stop-color="#FF881A" stop-opacity="0.000000"/>
		</linearGradient>
		<radialGradient id="paint_radial_1_133113_0" cx="0.000000" cy="0.000000" r="1.000000" gradientUnits="userSpaceOnUse" gradientTransform="translate(47.9041 28.6269) rotate(92.7569) scale(24.5031 24.3177)">
			<stop stop-color="#563708" stop-opacity="0.360784"/>
			<stop offset="1.000000" stop-color="#BE9D5E"/>
		</radialGradient>
		<linearGradient id="paint_linear_1_133113_1" x1="47.542969" y1="1.154297" x2="47.542969" y2="56.417480" gradientUnits="userSpaceOnUse">
			<stop stop-color="#FFECBC"/>
			<stop offset="1.000000" stop-color="#FF881A" stop-opacity="0.568627"/>
		</linearGradient>
		<linearGradient id="paint_linear_1_133114_0" x1="47.024094" y1="12.286133" x2="47.024094" y2="42.964951" gradientUnits="userSpaceOnUse">
			<stop stop-color="#FFF6DE"/>
			<stop offset="1.000000" stop-color="#F8B44E"/>
		</linearGradient>
	</defs>
	<g opacity="0.500000">
		<path id="Rectangle 12292" d="M27.3721 71.96C27.5605 71.7646 27.8203 71.6543 28.0908 71.6543L65.9092 71.6543C66.1807 71.6543 66.4404 71.7646 66.6289 71.96L86.1816 92.2227C86.7939 92.8584 86.3438 93.917 85.4619 93.917L8.53906 93.917C7.65723 93.917 7.20703 92.8584 7.81934 92.2227L27.3721 71.96Z" fill="url(#paint_linear_1_133111_0)" fill-opacity="0.800000" fill-rule="nonzero"/>
	</g>
	<path id="Rectangle 12291" d="M24.4395 59.6133C24.6289 59.4053 24.8975 59.2861 25.1797 59.2861L68.8203 59.2861C69.1025 59.2861 69.3711 59.4053 69.5605 59.6133L92.4795 84.8242C93.0635 85.4668 92.6074 86.4971 91.7393 86.4971L2.26074 86.4971C1.39258 86.4971 0.936523 85.4668 1.52051 84.8242L24.4395 59.6133Z" fill="url(#paint_linear_1_133112_0)" fill-opacity="0.800000" fill-rule="nonzero"/>
	<path id="Rectangle 12291" d="M68.8203 59.2861C69.1025 59.2861 69.3711 59.4053 69.5605 59.6133L92.4795 84.8242C93.0635 85.4668 92.6074 86.4971 91.7393 86.4971L2.26074 86.4971C1.39258 86.4971 0.936523 85.4668 1.52051 84.8242L24.4395 59.6133C24.6289 59.4053 24.8975 59.2861 25.1797 59.2861L68.8203 59.2861Z" stroke="url(#paint_linear_1_133112_1)" stroke-opacity="0.800000" stroke-width="1.000000"/>
	<path id="Polygon 1" d="M47.001 1.1543L24.5068 14.1416L24.5068 40.1152L47.001 53.1016L69.4951 40.1152L69.4951 14.1416L47.001 1.1543Z" fill="url(#paint_radial_1_133113_0)" fill-opacity="0.800000" fill-rule="evenodd"/>
	<path id="Polygon 1" d="M24.5068 14.1416L24.5068 40.1152L47.001 53.1016L69.4951 40.1152L69.4951 14.1416L47.001 1.1543L24.5068 14.1416Z" stroke="url(#paint_linear_1_133113_1)" stroke-opacity="1.000000" stroke-width="2.000000"/>
	<g filter="url(#filter_1_133114_dd)">
		<path id="Vector" d="M55.3906 12.2861L38.6572 12.2861C37.123 12.2861 35.8682 13.541 35.8682 15.0752L35.8682 37.3867C35.8682 38.9209 37.123 40.1758 38.6572 40.1758L38.6572 41.5703C38.6572 42.3379 39.2842 42.9648 40.0518 42.9648L42.8408 42.9648C43.6074 42.9648 44.2354 42.3379 44.2354 41.5703L44.2354 40.1758L49.8135 40.1758L49.8135 41.5703C49.8135 42.3379 50.4404 42.9648 51.208 42.9648L53.9961 42.9648C54.7637 42.9648 55.3906 42.3379 55.3906 41.5703L55.3906 40.1758C56.9248 40.1758 58.1797 38.9209 58.1797 37.3867L58.1797 15.0752C58.1797 13.541 56.9248 12.2861 55.3906 12.2861ZM40.4004 16.4697L53.6475 16.4697C54.2061 16.4697 54.6934 16.958 54.6934 17.5156C54.6934 18.0732 54.2061 18.5615 53.6475 18.5615L40.4004 18.5615C39.8428 18.5615 39.3545 18.0732 39.3545 17.5156C39.3545 16.958 39.8428 16.4697 40.4004 16.4697ZM40.4004 34.5977C40.958 34.5977 41.4463 35.0859 41.4463 35.6436C41.4463 36.2021 40.958 36.6895 40.4004 36.6895C39.8428 36.6895 39.3545 36.2021 39.3545 35.6436C39.3545 35.0859 39.8428 34.5977 40.4004 34.5977ZM43.8867 36.6895C43.3291 36.6895 42.8408 36.2021 42.8408 35.6436C42.8408 35.0859 43.3291 34.5977 43.8867 34.5977C44.4443 34.5977 44.9326 35.0859 44.9326 35.6436C44.9326 36.2021 44.4443 36.6895 43.8867 36.6895ZM47.373 36.6895C46.8145 36.6895 46.3271 36.2021 46.3271 35.6436C46.3271 35.0859 46.8145 34.5977 47.373 34.5977C47.9307 34.5977 48.4189 35.0859 48.4189 35.6436C48.4189 36.2021 47.9307 36.6895 47.373 36.6895ZM45.9785 32.9248C45.6992 33.3428 45.1416 33.2031 45.2109 32.7158L45.6299 27.626L43.2588 27.626C42.7705 27.626 42.4922 27.0674 42.8408 26.6494L47.3027 21.002C47.582 20.583 48.1396 20.7227 48.0703 21.2109L47.582 26.3008L49.9521 26.3008C50.4404 26.3008 50.7197 26.8584 50.3711 27.2773L45.9785 32.9248Z" fill="url(#paint_linear_1_133114_0)" fill-opacity="1.000000" fill-rule="nonzero"/>
	</g>
</svg>
