<svg width="94.000000" height="93.916992" viewBox="0 0 94 93.917" fill="none" xmlns="http://www.w3.org/2000/svg" xmlns:xlink="http://www.w3.org/1999/xlink">
	<desc>
			Created with Pixso.
	</desc>
	<defs>
		<filter id="filter_1_133134_dd" x="32.631836" y="17.233398" width="28.737305" height="24.789062" filterUnits="userSpaceOnUse" color-interpolation-filters="sRGB">
			<feFlood flood-opacity="0" result="BackgroundImageFix"/>
			<feColorMatrix in="SourceAlpha" type="matrix" values="0 0 0 0 0 0 0 0 0 0 0 0 0 0 0 0 0 0 127 0" result="hardAlpha"/>
			<feOffset dx="0" dy="3"/>
			<feGaussianBlur stdDeviation="0.666667"/>
			<feComposite in2="hardAlpha" operator="out" k2="-1" k3="1"/>
			<feColorMatrix type="matrix" values="0 0 0 0 0 0 0 0 0 0 0 0 0 0 0 0 0 0 0.25 0"/>
			<feBlend mode="normal" in2="BackgroundImageFix" result="effect_dropShadow_1"/>
			<feBlend mode="normal" in="SourceGraphic" in2="effect_dropShadow_1" result="shape"/>
		</filter>
		<filter id="filter_1_133135_dd" x="18.449219" y="56.675781" width="56.847656" height="22.640625" filterUnits="userSpaceOnUse" color-interpolation-filters="sRGB">
			<feFlood flood-opacity="0" result="BackgroundImageFix"/>
			<feColorMatrix in="SourceAlpha" type="matrix" values="0 0 0 0 0 0 0 0 0 0 0 0 0 0 0 0 0 0 127 0" result="hardAlpha"/>
			<feOffset dx="0" dy="0"/>
			<feGaussianBlur stdDeviation="1.33333"/>
			<feComposite in2="hardAlpha" operator="out" k2="-1" k3="1"/>
			<feColorMatrix type="matrix" values="0 0 0 0 1 0 0 0 0 0.63137 0 0 0 0 0.082353 0 0 0 1 0"/>
			<feBlend mode="normal" in2="BackgroundImageFix" result="effect_dropShadow_1"/>
			<feBlend mode="normal" in="SourceGraphic" in2="effect_dropShadow_1" result="shape"/>
		</filter>
		<linearGradient id="paint_linear_1_133131_0" x1="47.000351" y1="71.654297" x2="46.567436" y2="93.917458" gradientUnits="userSpaceOnUse">
			<stop stop-color="#563708" stop-opacity="0.000000"/>
			<stop offset="1.000000" stop-color="#BE9D5E"/>
		</linearGradient>
		<linearGradient id="paint_linear_1_133131_1" x1="44.852539" y1="93.917488" x2="48.075203" y2="71.654305" gradientUnits="userSpaceOnUse">
			<stop stop-color="#FFECBC"/>
			<stop offset="0.880208" stop-color="#FF881A" stop-opacity="0.000000"/>
		</linearGradient>
		<linearGradient id="paint_linear_1_133132_0" x1="47.000000" y1="59.286133" x2="46.501564" y2="86.496658" gradientUnits="userSpaceOnUse">
			<stop stop-color="#563708" stop-opacity="0.000000"/>
			<stop offset="1.000000" stop-color="#BE9D5E"/>
		</linearGradient>
		<linearGradient id="paint_linear_1_133132_1" x1="44.525398" y1="86.496574" x2="48.236328" y2="59.286003" gradientUnits="userSpaceOnUse">
			<stop stop-color="#FFECBC"/>
			<stop offset="0.880208" stop-color="#FF881A" stop-opacity="0.000000"/>
		</linearGradient>
		<radialGradient id="paint_radial_1_133133_0" cx="0.000000" cy="0.000000" r="1.000000" gradientUnits="userSpaceOnUse" gradientTransform="translate(47.9041 28.6269) rotate(92.7569) scale(24.5031 24.3177)">
			<stop stop-color="#563708" stop-opacity="0.360784"/>
			<stop offset="1.000000" stop-color="#BE9D5E"/>
		</radialGradient>
		<linearGradient id="paint_linear_1_133133_1" x1="47.542969" y1="1.154297" x2="47.542969" y2="56.417480" gradientUnits="userSpaceOnUse">
			<stop stop-color="#FFECBC"/>
			<stop offset="1.000000" stop-color="#FF881A" stop-opacity="0.568627"/>
		</linearGradient>
		<linearGradient id="paint_linear_1_133134_0" x1="47.000252" y1="17.233398" x2="47.000252" y2="37.022873" gradientUnits="userSpaceOnUse">
			<stop stop-color="#FFF6DE"/>
			<stop offset="1.000000" stop-color="#F8B44E"/>
		</linearGradient>
	</defs>
	<g opacity="0.500000">
		<path id="Rectangle 12292" d="M27.3721 71.96C27.5605 71.7646 27.8203 71.6543 28.0908 71.6543L65.9092 71.6543C66.1807 71.6543 66.4404 71.7646 66.6289 71.96L86.1816 92.2227C86.7939 92.8584 86.3438 93.917 85.4619 93.917L8.53906 93.917C7.65723 93.917 7.20703 92.8584 7.81934 92.2227L27.3721 71.96Z" fill="url(#paint_linear_1_133131_0)" fill-opacity="0.800000" fill-rule="nonzero"/>
	</g>
	<path id="Rectangle 12291" d="M24.4395 59.6133C24.6289 59.4053 24.8975 59.2861 25.1797 59.2861L68.8203 59.2861C69.1025 59.2861 69.3711 59.4053 69.5605 59.6133L92.4795 84.8242C93.0635 85.4668 92.6074 86.4971 91.7393 86.4971L2.26074 86.4971C1.39258 86.4971 0.936523 85.4668 1.52051 84.8242L24.4395 59.6133Z" fill="url(#paint_linear_1_133132_0)" fill-opacity="0.800000" fill-rule="nonzero"/>
	<path id="Rectangle 12291" d="M68.8203 59.2861C69.1025 59.2861 69.3711 59.4053 69.5605 59.6133L92.4795 84.8242C93.0635 85.4668 92.6074 86.4971 91.7393 86.4971L2.26074 86.4971C1.39258 86.4971 0.936523 85.4668 1.52051 84.8242L24.4395 59.6133C24.6289 59.4053 24.8975 59.2861 25.1797 59.2861L68.8203 59.2861Z" stroke="url(#paint_linear_1_133132_1)" stroke-opacity="0.800000" stroke-width="1.000000"/>
	<path id="Polygon 1" d="M47.001 1.1543L24.5068 14.1416L24.5068 40.1152L47.001 53.1016L69.4951 40.1152L69.4951 14.1416L47.001 1.1543Z" fill="url(#paint_radial_1_133133_0)" fill-opacity="0.800000" fill-rule="evenodd"/>
	<path id="Polygon 1" d="M24.5068 14.1416L24.5068 40.1152L47.001 53.1016L69.4951 40.1152L69.4951 14.1416L47.001 1.1543L24.5068 14.1416Z" stroke="url(#paint_linear_1_133133_1)" stroke-opacity="1.000000" stroke-width="2.000000"/>
	<g filter="url(#filter_1_133134_dd)">
		<path id="Vector" d="M37.2119 27.5752C37.2119 27.4268 37.3379 27.3047 37.4912 27.3047L44.1279 27.3047C44.2822 27.3047 44.4072 27.4268 44.4072 27.5752L44.4072 29.293C44.4072 29.3643 44.3779 29.4326 44.3252 29.4834C44.2734 29.5342 44.2021 29.5625 44.1279 29.5625L37.4912 29.5625C37.417 29.5625 37.3467 29.5342 37.2939 29.4834C37.2412 29.4326 37.2119 29.3643 37.2119 29.293L37.2119 27.5752ZM48.6787 27.3037L51.4561 27.3037C51.5303 27.3037 51.6016 27.2754 51.6533 27.2246C51.7061 27.1738 51.7354 27.1055 51.7354 27.0332L51.7354 24.626C51.7354 24.4775 51.8604 24.3564 52.0146 24.3564L53.792 24.3564C53.9453 24.3564 54.0713 24.4775 54.0713 24.626L54.0713 27.0352C54.0713 27.1836 54.1973 27.3047 54.3506 27.3047L56.8398 27.3047C56.9932 27.3047 57.1191 27.4268 57.1191 27.5752L57.1191 29.293C57.1191 29.3643 57.0898 29.4326 57.0371 29.4834C56.9854 29.5342 56.9141 29.5625 56.8398 29.5625L54.3506 29.5625C54.2764 29.5625 54.2051 29.5908 54.1533 29.6416C54.1006 29.6924 54.0713 29.7607 54.0713 29.832L54.0713 32.2393C54.0713 32.3105 54.042 32.3799 53.9893 32.4307C53.9375 32.4805 53.8662 32.5098 53.792 32.5098L52.0146 32.5098C51.9404 32.5098 51.8691 32.4805 51.8174 32.4307C51.7646 32.3799 51.7354 32.3105 51.7354 32.2393L51.7354 29.832C51.7354 29.7607 51.7061 29.6924 51.6533 29.6416C51.6016 29.5908 51.5303 29.5625 51.4561 29.5625L48.9668 29.5625C48.8926 29.5625 48.8213 29.5342 48.7695 29.4834C48.7168 29.4326 48.6875 29.3643 48.6875 29.293L48.6875 27.5752C48.6875 27.4248 48.6836 27.3037 48.6787 27.3037ZM51.8721 17.2334C51.7188 17.2334 51.5801 17.3545 51.5664 17.502L51.3711 19.499C51.3623 19.5723 51.3271 19.6396 51.2705 19.6885C51.2139 19.7383 51.1416 19.7666 51.0654 19.7676L42.9697 19.7676C42.8945 19.7656 42.8213 19.7373 42.7656 19.6885C42.709 19.6387 42.6738 19.5713 42.6641 19.499L42.4688 17.502C42.4609 17.4287 42.4248 17.3613 42.3682 17.3115C42.3125 17.2627 42.2393 17.2344 42.1631 17.2334L38.7822 17.2334C38.6289 17.2334 38.4922 17.3545 38.4766 17.502L38.2812 19.499C38.2725 19.5723 38.2373 19.6396 38.1807 19.6885C38.124 19.7383 38.0518 19.7666 37.9756 19.7676L34.9111 19.7676C34.8369 19.7676 34.7656 19.7959 34.7139 19.8467C34.6611 19.8975 34.6318 19.9658 34.6318 20.0371L34.6318 36.7529C34.6318 36.9014 34.7578 37.0225 34.9111 37.0225L59.0898 37.0225C59.1641 37.0225 59.2344 36.9941 59.2871 36.9434C59.3389 36.8936 59.3691 36.8242 59.3691 36.7529L59.3691 20.0391C59.3691 19.9668 59.3389 19.8984 59.2871 19.8477C59.2344 19.7969 59.1641 19.7686 59.0898 19.7686L56.0781 19.7686C56.002 19.7676 55.9297 19.7393 55.873 19.6904C55.8174 19.6406 55.7812 19.5732 55.7725 19.5L55.5752 17.5029C55.5674 17.4307 55.5312 17.3623 55.4756 17.3135C55.4189 17.2637 55.3457 17.2363 55.2705 17.2344L51.8721 17.2344L51.8721 17.2334Z" fill="url(#paint_linear_1_133134_0)" fill-opacity="1.000000" fill-rule="nonzero"/>
	</g>
</svg>
