<svg width="94.000000" height="93.916992" viewBox="0 0 94 93.917" fill="none" xmlns="http://www.w3.org/2000/svg" xmlns:xlink="http://www.w3.org/1999/xlink">
	<desc>
			Created with Pixso.
	</desc>
	<defs>
		<filter id="filter_1_133126_dd" x="0.740234" y="58.786133" width="92.519531" height="28.210938" filterUnits="userSpaceOnUse" color-interpolation-filters="sRGB">
			<feFlood flood-opacity="0" result="BackgroundImageFix"/>
			<feBlend mode="normal" in="SourceGraphic" in2="BackgroundImageFix" result="shape"/>
			<feColorMatrix in="SourceAlpha" type="matrix" values="0 0 0 0 0 0 0 0 0 0 0 0 0 0 0 0 0 0 127 0" result="hardAlpha"/>
			<feOffset dx="0" dy="-5"/>
			<feGaussianBlur stdDeviation="1.33333"/>
			<feComposite in2="hardAlpha" operator="arithmetic" k2="-1" k3="1"/>
			<feColorMatrix type="matrix" values="0 0 0 0 0.29412 0 0 0 0 0.57647 0 0 0 0 1 0 0 0 0.41 0"/>
			<feBlend mode="normal" in2="shape" result="effect_innerShadow_1"/>
		</filter>
		<filter id="filter_1_133128_dd" x="30.158203" y="14.759766" width="33.684570" height="28.500000" filterUnits="userSpaceOnUse" color-interpolation-filters="sRGB">
			<feFlood flood-opacity="0" result="BackgroundImageFix"/>
			<feColorMatrix in="SourceAlpha" type="matrix" values="0 0 0 0 0 0 0 0 0 0 0 0 0 0 0 0 0 0 127 0" result="hardAlpha"/>
			<feOffset dx="0" dy="3"/>
			<feGaussianBlur stdDeviation="0.666667"/>
			<feComposite in2="hardAlpha" operator="out" k2="-1" k3="1"/>
			<feColorMatrix type="matrix" values="0 0 0 0 0 0 0 0 0 0 0 0 0 0 0 0 0 0 0.25 0"/>
			<feBlend mode="normal" in2="BackgroundImageFix" result="effect_dropShadow_1"/>
			<feBlend mode="normal" in="SourceGraphic" in2="effect_dropShadow_1" result="shape"/>
		</filter>
		<linearGradient id="paint_linear_1_133125_0" x1="50.271500" y1="72.939110" x2="46.567459" y2="93.917458" gradientUnits="userSpaceOnUse">
			<stop stop-color="#082456" stop-opacity="0.000000"/>
			<stop offset="1.000000" stop-color="#5E90BE"/>
		</linearGradient>
		<linearGradient id="paint_linear_1_133125_1" x1="44.852520" y1="93.917351" x2="48.612324" y2="71.654419" gradientUnits="userSpaceOnUse">
			<stop stop-color="#BCEFFF"/>
			<stop offset="1.000000" stop-color="#1A91FF" stop-opacity="0.000000"/>
		</linearGradient>
		<linearGradient id="paint_linear_1_133126_0" x1="50.766750" y1="60.856457" x2="46.501511" y2="86.496658" gradientUnits="userSpaceOnUse">
			<stop stop-color="#082456" stop-opacity="0.000000"/>
			<stop offset="1.000000" stop-color="#5E90BE"/>
		</linearGradient>
		<linearGradient id="paint_linear_1_133126_1" x1="44.527351" y1="86.496574" x2="48.857452" y2="59.286316" gradientUnits="userSpaceOnUse">
			<stop stop-color="#BCEFFF"/>
			<stop offset="1.000000" stop-color="#1A91FF" stop-opacity="0.000000"/>
		</linearGradient>
		<radialGradient id="paint_radial_1_133127_0" cx="0.000000" cy="0.000000" r="1.000000" gradientUnits="userSpaceOnUse" gradientTransform="translate(47.9041 28.6269) rotate(92.7569) scale(24.5031 24.3177)">
			<stop stop-color="#082456" stop-opacity="0.360784"/>
			<stop offset="1.000000" stop-color="#5E90BE"/>
		</radialGradient>
		<linearGradient id="paint_linear_1_133127_1" x1="46.996094" y1="1.155272" x2="46.996094" y2="53.101562" gradientUnits="userSpaceOnUse">
			<stop stop-color="#BCEFFF"/>
			<stop offset="1.000000" stop-color="#1A91FF"/>
		</linearGradient>
		<linearGradient id="paint_linear_1_133128_0" x1="47.000309" y1="14.759766" x2="47.000309" y2="38.259766" gradientUnits="userSpaceOnUse">
			<stop stop-color="#DEEFFF"/>
			<stop offset="1.000000" stop-color="#0085FF"/>
		</linearGradient>
	</defs>
	<g opacity="0.500000">
		<path id="Rectangle 12292" d="M27.3721 71.96C27.5605 71.7646 27.8203 71.6543 28.0908 71.6543L65.9092 71.6543C66.1807 71.6543 66.4404 71.7646 66.6289 71.96L86.1816 92.2227C86.7939 92.8584 86.3438 93.917 85.4619 93.917L8.53906 93.917C7.65723 93.917 7.20703 92.8584 7.81934 92.2227L27.3721 71.96Z" fill="url(#paint_linear_1_133125_0)" fill-opacity="0.800000" fill-rule="nonzero"/>
	</g>
	<g filter="url(#filter_1_133126_dd)">
		<path id="Rectangle 12291" d="M24.4395 59.6133C24.6289 59.4053 24.8975 59.2861 25.1797 59.2861L68.8203 59.2861C69.1025 59.2861 69.3711 59.4053 69.5605 59.6133L92.4795 84.8242C93.0635 85.4668 92.6074 86.4971 91.7393 86.4971L2.26074 86.4971C1.39258 86.4971 0.936523 85.4668 1.52051 84.8242L24.4395 59.6133Z" fill="url(#paint_linear_1_133126_0)" fill-opacity="0.800000" fill-rule="nonzero"/>
	</g>
	<path id="Rectangle 12291" d="M68.8203 59.2861C69.1025 59.2861 69.3711 59.4053 69.5605 59.6133L92.4795 84.8242C93.0635 85.4668 92.6074 86.4971 91.7393 86.4971L2.26074 86.4971C1.39258 86.4971 0.936523 85.4668 1.52051 84.8242L24.4395 59.6133C24.6289 59.4053 24.8975 59.2861 25.1797 59.2861L68.8203 59.2861Z" stroke="url(#paint_linear_1_133126_1)" stroke-opacity="0.800000" stroke-width="1.000000"/>
	<path id="Polygon 1" d="M47.001 1.1543L24.5068 14.1416L24.5068 40.1152L47.001 53.1016L69.4951 40.1152L69.4951 14.1416L47.001 1.1543Z" fill="url(#paint_radial_1_133127_0)" fill-opacity="0.800000" fill-rule="evenodd"/>
	<path id="Polygon 1" d="M24.5068 14.1416L24.5068 40.1152L47.001 53.1016L69.4951 40.1152L69.4951 14.1416L47.001 1.1543L24.5068 14.1416Z" stroke="url(#paint_linear_1_133127_1)" stroke-opacity="1.000000" stroke-width="2.000000"/>
	<g filter="url(#filter_1_133128_dd)">
		<path id="Vector" d="M57.1992 22.3594L61.2021 25.6143C61.5703 25.9219 61.7979 26.3584 61.8369 26.8271C61.875 27.2969 61.7207 27.7617 61.4072 28.1221C61.0928 28.4766 60.6475 28.6973 60.167 28.7383C59.6865 28.7793 59.208 28.6367 58.835 28.3408L47.0049 18.7471L35.1797 28.3408C34.8057 28.6426 34.3223 28.7891 33.8369 28.749C33.3506 28.708 32.9014 28.4824 32.5869 28.1221C32.2744 27.7598 32.123 27.293 32.165 26.8232C32.208 26.3535 32.4404 25.9189 32.8135 25.6143L45.6846 15.1719C46.0459 14.877 46.5127 14.7305 46.9834 14.7646L47.0264 14.7646C47.499 14.7314 47.9668 14.877 48.3301 15.1719L53.5166 19.3779L53.5166 16.6416C53.5166 16.1689 53.7109 15.7168 54.0566 15.3828C54.4014 15.0488 54.8701 14.8613 55.3584 14.8613C55.8457 14.8613 56.3145 15.0488 56.6602 15.3828C57.0049 15.7168 57.1992 16.1689 57.1992 16.6416L57.1992 22.3594ZM36.1582 36.2256L36.1582 29.0732L46.9414 20.4561L57.7246 28.8799L57.7246 36.2256C57.7246 36.7646 57.5029 37.2822 57.1084 37.6641C56.7139 38.0449 56.1787 38.2598 55.6211 38.2598L49.835 38.2598L49.835 31.1387L44.0488 31.1387L44.0488 38.2598L38.2627 38.2598C37.7041 38.2598 37.1689 38.0449 36.7744 37.6641C36.3799 37.2822 36.1582 36.7646 36.1582 36.2256Z" fill="url(#paint_linear_1_133128_0)" fill-opacity="1.000000" fill-rule="evenodd"/>
	</g>
</svg>
