<svg width="94.000000" height="93.916992" viewBox="0 0 94 93.917" fill="none" xmlns="http://www.w3.org/2000/svg" xmlns:xlink="http://www.w3.org/1999/xlink">
	<desc>
			Created with Pixso.
	</desc>
	<defs>
		<filter id="filter_1_133179_dd" x="0.740234" y="58.786133" width="92.519531" height="28.210938" filterUnits="userSpaceOnUse" color-interpolation-filters="sRGB">
			<feFlood flood-opacity="0" result="BackgroundImageFix"/>
			<feBlend mode="normal" in="SourceGraphic" in2="BackgroundImageFix" result="shape"/>
			<feColorMatrix in="SourceAlpha" type="matrix" values="0 0 0 0 0 0 0 0 0 0 0 0 0 0 0 0 0 0 127 0" result="hardAlpha"/>
			<feOffset dx="0" dy="-5"/>
			<feGaussianBlur stdDeviation="1.33333"/>
			<feComposite in2="hardAlpha" operator="arithmetic" k2="-1" k3="1"/>
			<feColorMatrix type="matrix" values="0 0 0 0 0.29412 0 0 0 0 0.57647 0 0 0 0 1 0 0 0 0.41 0"/>
			<feBlend mode="normal" in2="shape" result="effect_innerShadow_1"/>
		</filter>
		<filter id="filter_1_133182_dd" x="32.632812" y="13.522461" width="28.737305" height="32.210938" filterUnits="userSpaceOnUse" color-interpolation-filters="sRGB">
			<feFlood flood-opacity="0" result="BackgroundImageFix"/>
			<feColorMatrix in="SourceAlpha" type="matrix" values="0 0 0 0 0 0 0 0 0 0 0 0 0 0 0 0 0 0 127 0" result="hardAlpha"/>
			<feOffset dx="0" dy="3"/>
			<feGaussianBlur stdDeviation="0.666667"/>
			<feComposite in2="hardAlpha" operator="out" k2="-1" k3="1"/>
			<feColorMatrix type="matrix" values="0 0 0 0 0 0 0 0 0 0 0 0 0 0 0 0 0 0 0.25 0"/>
			<feBlend mode="normal" in2="BackgroundImageFix" result="effect_dropShadow_1"/>
			<feBlend mode="normal" in="SourceGraphic" in2="effect_dropShadow_1" result="shape"/>
		</filter>
		<clipPath id="clip1_133181">
			<rect id="Frame" width="29.684210" height="29.684214" transform="translate(32.158203 12.286133)" fill="white" fill-opacity="0"/>
		</clipPath>
		<linearGradient id="paint_linear_1_133178_0" x1="50.271496" y1="72.939110" x2="46.567474" y2="93.917458" gradientUnits="userSpaceOnUse">
			<stop stop-color="#082456" stop-opacity="0.000000"/>
			<stop offset="1.000000" stop-color="#5E90BE"/>
		</linearGradient>
		<linearGradient id="paint_linear_1_133178_1" x1="44.852554" y1="93.917351" x2="48.612320" y2="71.654419" gradientUnits="userSpaceOnUse">
			<stop stop-color="#BCEFFF"/>
			<stop offset="1.000000" stop-color="#1A91FF" stop-opacity="0.000000"/>
		</linearGradient>
		<linearGradient id="paint_linear_1_133179_0" x1="50.766788" y1="60.856468" x2="46.501514" y2="86.496658" gradientUnits="userSpaceOnUse">
			<stop stop-color="#082456" stop-opacity="0.000000"/>
			<stop offset="1.000000" stop-color="#5E90BE"/>
		</linearGradient>
		<linearGradient id="paint_linear_1_133179_1" x1="44.527344" y1="86.496590" x2="48.857414" y2="59.286324" gradientUnits="userSpaceOnUse">
			<stop stop-color="#BCEFFF"/>
			<stop offset="1.000000" stop-color="#1A91FF" stop-opacity="0.000000"/>
		</linearGradient>
		<radialGradient id="paint_radial_1_133180_0" cx="0.000000" cy="0.000000" r="1.000000" gradientUnits="userSpaceOnUse" gradientTransform="translate(47.9022 28.6269) rotate(92.7569) scale(24.5031 24.3177)">
			<stop stop-color="#051736" stop-opacity="0.000000"/>
			<stop offset="1.000000" stop-color="#5E90BE"/>
		</radialGradient>
		<linearGradient id="paint_linear_1_133180_1" x1="46.994144" y1="1.155765" x2="46.994144" y2="53.102051" gradientUnits="userSpaceOnUse">
			<stop stop-color="#BCEFFF"/>
			<stop offset="1.000000" stop-color="#1A91FF"/>
		</linearGradient>
		<linearGradient id="paint_linear_1_133182_0" x1="47.001236" y1="13.522461" x2="47.001236" y2="40.732994" gradientUnits="userSpaceOnUse">
			<stop stop-color="#DEEFFF"/>
			<stop offset="1.000000" stop-color="#0085FF"/>
		</linearGradient>
	</defs>
	<g opacity="0.500000">
		<path id="Rectangle 12292" d="M27.3721 71.96C27.5605 71.7646 27.8203 71.6543 28.0908 71.6543L65.9092 71.6543C66.1807 71.6543 66.4404 71.7646 66.6289 71.96L86.1816 92.2227C86.7939 92.8584 86.3438 93.917 85.4619 93.917L8.53906 93.917C7.65723 93.917 7.20703 92.8584 7.81934 92.2227L27.3721 71.96Z" fill="url(#paint_linear_1_133178_0)" fill-opacity="0.800000" fill-rule="nonzero"/>
	</g>
	<g filter="url(#filter_1_133179_dd)">
		<path id="Rectangle 12291" d="M24.4395 59.6133C24.6289 59.4053 24.8975 59.2861 25.1797 59.2861L68.8203 59.2861C69.1025 59.2861 69.3711 59.4053 69.5605 59.6133L92.4795 84.8242C93.0635 85.4668 92.6074 86.4971 91.7393 86.4971L2.26074 86.4971C1.39258 86.4971 0.936523 85.4668 1.52051 84.8242L24.4395 59.6133Z" fill="url(#paint_linear_1_133179_0)" fill-opacity="0.800000" fill-rule="nonzero"/>
	</g>
	<path id="Rectangle 12291" d="M68.8203 59.2861C69.1025 59.2861 69.3711 59.4053 69.5605 59.6133L92.4795 84.8242C93.0635 85.4668 92.6074 86.4971 91.7393 86.4971L2.26074 86.4971C1.39258 86.4971 0.936523 85.4668 1.52051 84.8242L24.4395 59.6133C24.6289 59.4053 24.8975 59.2861 25.1797 59.2861L68.8203 59.2861Z" stroke="url(#paint_linear_1_133179_1)" stroke-opacity="0.800000" stroke-width="1.000000"/>
	<path id="Polygon 1" d="M46.999 1.1543L24.5049 14.1416L24.5049 40.1152L46.999 53.1016L69.4932 40.1152L69.4932 14.1416L46.999 1.1543Z" fill="url(#paint_radial_1_133180_0)" fill-opacity="0.800000" fill-rule="evenodd"/>
	<path id="Polygon 1" d="M24.5049 14.1416L24.5049 40.1152L46.999 53.1016L69.4932 40.1152L69.4932 14.1416L46.999 1.1543L24.5049 14.1416Z" stroke="url(#paint_linear_1_133180_1)" stroke-opacity="1.000000" stroke-width="2.000000"/>
	<rect id="Frame" width="29.684210" height="29.684214" transform="translate(32.158203 12.286133)" fill="#FFFFFF" fill-opacity="0"/>
	<g clip-path="url(#clip1_133181)">
		<g filter="url(#filter_1_133182_dd)">
			<path id="Vector" d="M36.4883 38.8779L57.5146 38.8779L57.5146 40.7334L36.4883 40.7334L36.4883 38.8779ZM37.7246 15.9961L41.4355 15.9961L41.4355 17.8516L37.7246 17.8516L37.7246 15.9961ZM37.7246 13.5225L41.4355 13.5225L41.4355 15.3779L37.7246 15.3779L37.7246 13.5225ZM52.5674 15.9961L56.2773 15.9961L56.2773 17.8516L52.5674 17.8516L52.5674 15.9961ZM52.5674 13.5225L56.2773 13.5225L56.2773 15.3779L52.5674 15.3779L52.5674 13.5225ZM45.1455 15.9961L48.8564 15.9961L48.8564 17.8516L45.1455 17.8516L45.1455 15.9961ZM45.1455 13.5225L48.8564 13.5225L48.8564 15.3779L45.1455 15.3779L45.1455 13.5225ZM58.3955 19.0879L34.6328 19.0879L34.6328 36.6846C34.6328 36.9717 34.7295 37.1631 34.9248 37.3535C35.1191 37.5459 35.3145 37.6406 35.6064 37.6406L58.3955 37.6406C58.6885 37.6406 58.8828 37.5449 59.0781 37.3535C59.2725 37.1621 59.3701 36.9717 59.3701 36.6846L59.3701 20.0439C59.3701 19.7578 59.2725 19.5664 59.0781 19.375C58.8926 19.2012 58.6504 19.0986 58.3955 19.0879ZM45.3369 33.9307L46.7627 29.25L42.6719 29.25L45.6221 22.1807L48.7617 22.1807L46.5732 26.7607L51.3301 26.7607L45.3369 33.9307Z" fill="url(#paint_linear_1_133182_0)" fill-opacity="1.000000" fill-rule="nonzero"/>
		</g>
	</g>
</svg>
