<svg width="94.000000" height="93.916992" viewBox="0 0 94 93.917" fill="none" xmlns="http://www.w3.org/2000/svg" xmlns:xlink="http://www.w3.org/1999/xlink">
	<desc>
			Created with Pixso.
	</desc>
	<defs>
		<filter id="filter_1_133106_dd" x="32.630859" y="13.522461" width="28.737305" height="32.210938" filterUnits="userSpaceOnUse" color-interpolation-filters="sRGB">
			<feFlood flood-opacity="0" result="BackgroundImageFix"/>
			<feColorMatrix in="SourceAlpha" type="matrix" values="0 0 0 0 0 0 0 0 0 0 0 0 0 0 0 0 0 0 127 0" result="hardAlpha"/>
			<feOffset dx="0" dy="3"/>
			<feGaussianBlur stdDeviation="0.666667"/>
			<feComposite in2="hardAlpha" operator="out" k2="-1" k3="1"/>
			<feColorMatrix type="matrix" values="0 0 0 0 0 0 0 0 0 0 0 0 0 0 0 0 0 0 0.25 0"/>
			<feBlend mode="normal" in2="BackgroundImageFix" result="effect_dropShadow_1"/>
			<feBlend mode="normal" in="SourceGraphic" in2="effect_dropShadow_1" result="shape"/>
		</filter>
		<clipPath id="clip1_133105">
			<rect id="Frame" width="29.684210" height="29.684212" transform="translate(32.158203 12.286133)" fill="white" fill-opacity="0"/>
		</clipPath>
		<filter id="filter_1_133107_dd" x="18.640625" y="56.695312" width="56.656250" height="22.652344" filterUnits="userSpaceOnUse" color-interpolation-filters="sRGB">
			<feFlood flood-opacity="0" result="BackgroundImageFix"/>
			<feColorMatrix in="SourceAlpha" type="matrix" values="0 0 0 0 0 0 0 0 0 0 0 0 0 0 0 0 0 0 127 0" result="hardAlpha"/>
			<feOffset dx="0" dy="0"/>
			<feGaussianBlur stdDeviation="1.33333"/>
			<feComposite in2="hardAlpha" operator="out" k2="-1" k3="1"/>
			<feColorMatrix type="matrix" values="0 0 0 0 1 0 0 0 0 0.63137 0 0 0 0 0.082353 0 0 0 1 0"/>
			<feBlend mode="normal" in2="BackgroundImageFix" result="effect_dropShadow_1"/>
			<feBlend mode="normal" in="SourceGraphic" in2="effect_dropShadow_1" result="shape"/>
		</filter>
		<linearGradient id="paint_linear_1_133102_0" x1="47.000351" y1="71.654297" x2="46.567436" y2="93.917458" gradientUnits="userSpaceOnUse">
			<stop stop-color="#563708" stop-opacity="0.000000"/>
			<stop offset="1.000000" stop-color="#BE9D5E"/>
		</linearGradient>
		<linearGradient id="paint_linear_1_133102_1" x1="44.852539" y1="93.917488" x2="48.075203" y2="71.654305" gradientUnits="userSpaceOnUse">
			<stop stop-color="#FFECBC"/>
			<stop offset="0.880208" stop-color="#FF881A" stop-opacity="0.000000"/>
		</linearGradient>
		<linearGradient id="paint_linear_1_133103_0" x1="47.000000" y1="59.286133" x2="46.501564" y2="86.496658" gradientUnits="userSpaceOnUse">
			<stop stop-color="#563708" stop-opacity="0.000000"/>
			<stop offset="1.000000" stop-color="#BE9D5E"/>
		</linearGradient>
		<linearGradient id="paint_linear_1_133103_1" x1="44.525398" y1="86.496574" x2="48.236328" y2="59.286003" gradientUnits="userSpaceOnUse">
			<stop stop-color="#FFECBC"/>
			<stop offset="0.880208" stop-color="#FF881A" stop-opacity="0.000000"/>
		</linearGradient>
		<radialGradient id="paint_radial_1_133104_0" cx="0.000000" cy="0.000000" r="1.000000" gradientUnits="userSpaceOnUse" gradientTransform="translate(47.9041 28.6269) rotate(92.7569) scale(24.5031 24.3177)">
			<stop stop-color="#563708" stop-opacity="0.360784"/>
			<stop offset="1.000000" stop-color="#BE9D5E"/>
		</radialGradient>
		<linearGradient id="paint_linear_1_133104_1" x1="47.542969" y1="1.154297" x2="47.542969" y2="56.417480" gradientUnits="userSpaceOnUse">
			<stop stop-color="#FFECBC"/>
			<stop offset="1.000000" stop-color="#FF881A" stop-opacity="0.568627"/>
		</linearGradient>
		<linearGradient id="paint_linear_1_133106_0" x1="46.999283" y1="13.522461" x2="46.999283" y2="40.732986" gradientUnits="userSpaceOnUse">
			<stop stop-color="#FFF6DE"/>
			<stop offset="1.000000" stop-color="#F8B44E"/>
		</linearGradient>
	</defs>
	<g opacity="0.500000">
		<path id="Rectangle 12292" d="M27.3721 71.96C27.5605 71.7646 27.8203 71.6543 28.0908 71.6543L65.9092 71.6543C66.1807 71.6543 66.4404 71.7646 66.6289 71.96L86.1816 92.2227C86.7939 92.8584 86.3438 93.917 85.4619 93.917L8.53906 93.917C7.65723 93.917 7.20703 92.8584 7.81934 92.2227L27.3721 71.96Z" fill="url(#paint_linear_1_133102_0)" fill-opacity="0.800000" fill-rule="nonzero"/>
	</g>
	<path id="Rectangle 12291" d="M24.4395 59.6133C24.6289 59.4053 24.8975 59.2861 25.1797 59.2861L68.8203 59.2861C69.1025 59.2861 69.3711 59.4053 69.5605 59.6133L92.4795 84.8242C93.0635 85.4668 92.6074 86.4971 91.7393 86.4971L2.26074 86.4971C1.39258 86.4971 0.936523 85.4668 1.52051 84.8242L24.4395 59.6133Z" fill="url(#paint_linear_1_133103_0)" fill-opacity="0.800000" fill-rule="nonzero"/>
	<path id="Rectangle 12291" d="M68.8203 59.2861C69.1025 59.2861 69.3711 59.4053 69.5605 59.6133L92.4795 84.8242C93.0635 85.4668 92.6074 86.4971 91.7393 86.4971L2.26074 86.4971C1.39258 86.4971 0.936523 85.4668 1.52051 84.8242L24.4395 59.6133C24.6289 59.4053 24.8975 59.2861 25.1797 59.2861L68.8203 59.2861Z" stroke="url(#paint_linear_1_133103_1)" stroke-opacity="0.800000" stroke-width="1.000000"/>
	<path id="Polygon 1" d="M47.001 1.1543L24.5068 14.1416L24.5068 40.1152L47.001 53.1016L69.4951 40.1152L69.4951 14.1416L47.001 1.1543Z" fill="url(#paint_radial_1_133104_0)" fill-opacity="0.800000" fill-rule="evenodd"/>
	<path id="Polygon 1" d="M24.5068 14.1416L24.5068 40.1152L47.001 53.1016L69.4951 40.1152L69.4951 14.1416L47.001 1.1543L24.5068 14.1416Z" stroke="url(#paint_linear_1_133104_1)" stroke-opacity="1.000000" stroke-width="2.000000"/>
	<rect id="Frame" width="29.684210" height="29.684212" transform="translate(32.158203 12.286133)" fill="#FFFFFF" fill-opacity="0"/>
	<g clip-path="url(#clip1_133105)">
		<g filter="url(#filter_1_133106_dd)">
			<path id="Vector" d="M36.4863 38.8779L57.5127 38.8779L57.5127 40.7334L36.4863 40.7334L36.4863 38.8779ZM37.7227 15.9961L41.4336 15.9961L41.4336 17.8516L37.7227 17.8516L37.7227 15.9961ZM37.7227 13.5225L41.4336 13.5225L41.4336 15.3779L37.7227 15.3779L37.7227 13.5225ZM52.5654 15.9961L56.2754 15.9961L56.2754 17.8516L52.5654 17.8516L52.5654 15.9961ZM52.5654 13.5225L56.2754 13.5225L56.2754 15.3779L52.5654 15.3779L52.5654 13.5225ZM45.1436 15.9961L48.8545 15.9961L48.8545 17.8516L45.1436 17.8516L45.1436 15.9961ZM45.1436 13.5225L48.8545 13.5225L48.8545 15.3779L45.1436 15.3779L45.1436 13.5225ZM58.3936 19.0879L34.6309 19.0879L34.6309 36.6846C34.6309 36.9717 34.7275 37.1631 34.9229 37.3535C35.1172 37.5459 35.3125 37.6406 35.6045 37.6406L58.3936 37.6406C58.6865 37.6406 58.8809 37.5449 59.0762 37.3535C59.2705 37.1621 59.3682 36.9717 59.3682 36.6846L59.3682 20.0439C59.3682 19.7578 59.2705 19.5664 59.0762 19.375C58.8906 19.2012 58.6484 19.0986 58.3936 19.0879ZM45.335 33.9307L46.7607 29.25L42.6699 29.25L45.6201 22.1807L48.7598 22.1807L46.5713 26.7607L51.3281 26.7607L45.335 33.9307Z" fill="url(#paint_linear_1_133106_0)" fill-opacity="1.000000" fill-rule="nonzero"/>
		</g>
	</g>
</svg>
