<svg width="20.000000" height="20.000000" viewBox="0 0 20 20" fill="none" xmlns="http://www.w3.org/2000/svg" xmlns:xlink="http://www.w3.org/1999/xlink">
	<desc>
			Created with Pixso.
	</desc>
	<defs>
		<clipPath id="clip20713_45210">
			<rect id="svg" width="20.000000" height="20.000000" fill="white" fill-opacity="0"/>
		</clipPath>
	</defs>
	<g clip-path="url(#clip20713_45210)">
		<path id="path" d="M14.1816 8.81821C14.4546 8.90912 14.6362 9.09091 14.7271 9.36365L17.3638 16.4546C17.4546 16.8182 17.2725 17.1818 17 17.3636C16.6362 17.4546 16.2725 17.2727 16.0908 17L15.1816 14.5455L12.5454 14.5455L11.6362 17C11.5454 17.3636 11.1816 17.4546 10.8184 17.4546C10.4546 17.3636 10.1816 16.9091 10.3638 16.5455L13 9.45456C13.1816 8.90912 13.7271 8.63638 14.1816 8.81821ZM3.36377 12.1818C3.72705 12.1818 4.09082 12.4546 4.09082 12.9091L4.09082 15.3636C4.09082 15.7273 4.36377 16.0909 4.81836 16.0909L7.27246 16.0909C7.63623 16.0909 8 16.3636 8 16.8182C8 17.2727 7.72705 17.5455 7.27246 17.5455L4.72705 17.5455C3.63623 17.5455 2.63623 16.6364 2.63623 15.5455L2.63623 13.0909C2.63623 12.4546 3 12.1818 3.36377 12.1818ZM13.8184 11L13 13.1818L14.6362 13.1818L13.8184 11ZM6.63623 2.63635C7 2.63635 7.27246 2.90912 7.27246 3.36365L7.27246 4.54547L9.72705 4.54547C10.2725 4.54547 10.6362 4.90912 10.6362 5.45459L10.6362 8.36365C10.6362 8.90912 10.2725 9.27274 9.72705 9.27274L7.27246 9.27274L7.27246 11C7.27246 11.3636 7 11.7273 6.63623 11.7273C6.27246 11.7273 5.90918 11.4546 5.90918 11L5.90918 9.27274L3.45459 9.27274C2.90918 9.27274 2.54541 8.90912 2.54541 8.36365L2.54541 5.45459C2.54541 4.90912 2.90918 4.54547 3.45459 4.54547L5.90918 4.54547L5.90918 3.36365C6 3 6.27246 2.63635 6.63623 2.63635ZM6 5.90912L4 5.90912L4 7.90912L6 7.90912L6 5.90912ZM9.27246 5.90912L7.27246 5.90912L7.27246 7.90912L9.27246 7.90912L9.27246 5.90912ZM15.2725 2.63635C16.3638 2.63635 17.2725 3.54547 17.2725 4.72729L17.2725 7.18182C17.2725 7.54547 17 7.90912 16.5454 7.90912C16.0908 7.90912 15.8184 7.63638 15.8184 7.18182L15.8184 4.72729C15.8184 4.36365 15.5454 4 15.0908 4L12.6362 4C12.2725 4 11.9092 3.72729 11.9092 3.27277C11.9092 2.81818 12.1816 2.54547 12.6362 2.54547L15.2725 2.63635Z" fill="#FFFFFF" fill-opacity="1.000000" fill-rule="nonzero"/>
	</g>
</svg>
