<svg width="20.000000" height="20.000000" viewBox="0 0 20 20" fill="none" xmlns="http://www.w3.org/2000/svg" xmlns:xlink="http://www.w3.org/1999/xlink">
	<desc>
			Created with Pixso.
	</desc>
	<defs>
		<clipPath id="clip560_11088">
			<rect id="svg" width="20.000000" height="20.000000" fill="white" fill-opacity="0"/>
		</clipPath>
	</defs>
	<g clip-path="url(#clip560_11088)">
		<path id="path" d="M17.66 1.88989L4.56 1.88989C3.28999 1.88989 2.25 2.92993 2.25 4.19995L2.25 4.69995C1.02 4.75 0.0299988 5.76978 0.0299988 7L0.0299988 15.2798C0.0299988 16.5498 1.06999 17.5898 2.34 17.5898L14.81 17.5898C16.08 17.5898 17.12 16.5498 17.12 15.2798L17.12 14.5798L17.66 14.5798C18.93 14.5798 19.97 13.5398 19.97 12.2698L19.97 4.18994C19.97 2.92993 18.93 1.88989 17.66 1.88989ZM6.11 13.5398C7.03999 13.5398 7.45 13.01 7.67999 12.4199L8.48 12.4199C8.20999 13.4399 7.45 14.21 6.08 14.21C4.27 14.21 3.36 12.8398 3.36 11.1299C3.36 9.48999 4.27 8.01001 6.11 8.01001C7.53 8.01001 8.31 8.81982 8.48 9.82983L7.67999 9.82983C7.45999 9.16992 7.03 8.67993 6.06999 8.67993C4.73999 8.67993 4.2 9.88989 4.2 11.1099C4.2 12.2898 4.70999 13.5398 6.11 13.5398ZM13.02 14.1299L12.26 14.1299L12.26 11.3999C12.26 10.74 12 10.2898 11.33 10.2898C10.5 10.2898 10.17 10.9199 10.17 11.8098L10.17 14.1399L9.41 14.1399L9.41 10.8499C9.41 10.47 9.41 10.0798 9.39999 9.73999L10.14 9.73999C10.16 9.86987 10.17 10.3298 10.17 10.46C10.35 10.0798 10.7 9.62988 11.55 9.62988C12.37 9.62988 13.02 10.1299 13.02 11.2998L13.02 14.1299ZM19.11 12.2798C19.11 12.6699 18.96 13.0298 18.68 13.2998C18.41 13.5698 18.04 13.73 17.66 13.73L17.12 13.73L17.12 7.01001C17.12 5.73999 16.08 4.69995 14.81 4.69995L3.10001 4.69995L3.10001 4.19995C3.10001 3.80981 3.25 3.44995 3.53 3.17993C3.8 2.90991 4.17 2.75 4.55 2.75L17.66 2.75C18.05 2.75 18.41 2.8999 18.68 3.17993C18.95 3.44995 19.11 3.81982 19.11 4.19995L19.11 12.2798Z" fill="#FFFFFF" fill-opacity="1.000000" fill-rule="nonzero"/>
	</g>
</svg>
