<svg width="63" height="63" viewBox="0 0 63 63" fill="none" xmlns="http://www.w3.org/2000/svg">
<g filter="url(#filter0_d_2943_137470)">
<rect x="4" y="2" width="55" height="55" rx="4" fill="url(#paint0_radial_2943_137470)" fill-opacity="0.5"/>
<path d="M49.4611 41.5051C49.4384 40.9973 49.0482 40.5676 48.5216 40.5676H47.2064V24.1344C47.2064 23.5114 46.9589 22.914 46.5184 22.4735C46.0779 22.033 45.4805 21.7855 44.8576 21.7855H35.0279C35.0279 22.2262 35.0228 22.6664 35.0236 23.1062C35.0272 24.6352 35.0305 26.1641 35.0333 27.693C35.0373 29.4609 35.041 31.229 35.0447 32.9973L35.0541 37.4004C35.0556 38.0121 35.0569 38.6241 35.058 39.2363C35.058 39.7629 34.6283 40.1531 34.1205 40.1738C33.6126 40.1945 33.183 39.7258 33.181 39.2363V39.2047C33.163 38.459 33.1775 37.7109 33.1759 36.9652C33.1728 35.4363 33.1695 33.9074 33.1662 32.3785C33.1628 30.61 33.1591 28.8419 33.1552 27.0742V17.9016C33.1552 17.2786 32.9078 16.6812 32.4673 16.2407C32.0268 15.8002 31.4293 15.5527 30.8064 15.5527H19.1427C18.5198 15.5527 17.9223 15.8002 17.4818 16.2407C17.0414 16.6812 16.7939 17.2786 16.7939 17.9016V40.5656C16.374 40.5656 15.954 40.5594 15.5345 40.5656H15.4794C14.988 40.5656 14.5173 40.9977 14.5419 41.5031C14.5665 42.0086 14.9548 42.4406 15.4794 42.4406H47.1728C47.6025 42.4406 48.0353 42.4469 48.4658 42.4406H48.5208C49.0123 42.4445 49.483 42.0125 49.4611 41.5051ZM38.8455 28.1266H43.8564C44.383 28.1266 44.7732 28.5562 44.7958 29.066C44.8185 29.5758 44.3478 30.0035 43.8564 30.0035H38.8455C38.3185 30.0035 37.9287 29.5738 37.908 29.066C37.8873 28.5582 38.354 28.1266 38.8455 28.1266ZM38.8455 34.3625H43.8564C44.383 34.3625 44.7732 34.7922 44.7958 35.3023C44.8185 35.8125 44.3478 36.2398 43.8564 36.2398H38.8455C38.3185 36.2398 37.9287 35.8102 37.908 35.3023C37.8873 34.7945 38.354 34.3625 38.8455 34.3625ZM22.4001 21.8016H27.547C28.0794 21.8016 28.474 22.2371 28.497 22.7516C28.5201 23.266 28.0439 23.7016 27.547 23.7016H22.4005C21.8681 23.7016 21.4736 23.2664 21.4505 22.7516C21.4275 22.2367 21.9037 21.8016 22.4005 21.8016H22.4001ZM22.4001 28.0996H27.547C28.0794 28.0996 28.474 28.5348 28.497 29.0496C28.5201 29.5645 28.0439 29.9992 27.547 29.9992H22.4005C21.8681 29.9992 21.4736 29.5641 21.4505 29.0496C21.4275 28.5352 21.9037 28.1016 22.4005 28.1016L22.4001 28.0996ZM22.4001 34.3914H27.547C28.0794 34.3914 28.474 34.8266 28.497 35.3414C28.5201 35.8562 28.0439 36.2914 27.547 36.2914H22.4005C21.8681 36.2914 21.4736 35.8559 21.4505 35.3414C21.4275 34.827 21.9037 34.3906 22.4005 34.3906L22.4001 34.3914Z" fill="white"/>
</g>
<defs>
<filter id="filter0_d_2943_137470" x="0" y="0" width="63" height="63" filterUnits="userSpaceOnUse" color-interpolation-filters="sRGB">
<feFlood flood-opacity="0" result="BackgroundImageFix"/>
<feColorMatrix in="SourceAlpha" type="matrix" values="0 0 0 0 0 0 0 0 0 0 0 0 0 0 0 0 0 0 127 0" result="hardAlpha"/>
<feOffset dy="2"/>
<feGaussianBlur stdDeviation="2"/>
<feComposite in2="hardAlpha" operator="out"/>
<feColorMatrix type="matrix" values="0 0 0 0 0 0 0 0 0 0 0 0 0 0 0 0 0 0 0.1 0"/>
<feBlend mode="normal" in2="BackgroundImageFix" result="effect1_dropShadow_2943_137470"/>
<feBlend mode="normal" in="SourceGraphic" in2="effect1_dropShadow_2943_137470" result="shape"/>
</filter>
<radialGradient id="paint0_radial_2943_137470" cx="0" cy="0" r="1" gradientUnits="userSpaceOnUse" gradientTransform="translate(31.5 26.9219) rotate(134.304) scale(33.6453)">
<stop stop-color="#0E7FA2"/>
<stop offset="0.223958" stop-color="#1486B4" stop-opacity="0"/>
<stop offset="0.465383" stop-color="#1689B9" stop-opacity="0"/>
<stop offset="1" stop-color="#1D92CD"/>
</radialGradient>
</defs>
</svg>
